<svg width="115" height="141" viewBox="0 0 115 141" fill="none" xmlns="http://www.w3.org/2000/svg">
<path d="M64.2891 135.021V131.626C64.2891 112.416 64.2891 102.811 70.2569 96.8435C76.2247 90.8757 85.8295 90.8757 105.039 90.8757H108.435M111.831 79.6225V56.9173C111.831 31.3043 111.831 18.4979 103.874 10.5409C95.9172 2.58399 83.1101 2.58398 57.4974 2.58398C31.8845 2.58398 19.078 2.58399 11.121 10.5409C3.16406 18.4978 3.16406 31.3043 3.16406 56.9173V87.78C3.16406 109.819 3.16406 120.838 9.18195 128.302C10.3977 129.81 11.7712 131.184 13.2791 132.399C20.743 138.417 31.7625 138.417 53.8014 138.417C58.5936 138.417 60.989 138.417 63.1834 137.643C63.6398 137.482 64.0867 137.297 64.5234 137.088C66.6227 136.084 68.3165 134.39 71.7049 131.002L103.874 98.8328C107.8 94.9065 109.763 92.9437 110.797 90.4471C111.831 87.9512 111.831 85.1747 111.831 79.6225Z" stroke="#999999" stroke-width="5" stroke-linecap="round" stroke-linejoin="round"/>
</svg>
