<?xml version="1.0" encoding="UTF-8"?>
<svg id="Layer_2" data-name="Layer 2" xmlns="http://www.w3.org/2000/svg" viewBox="0 0 202.1 42.86">
  <defs>
    <style>
      .cls-1, .cls-2 {
        stroke-linejoin: bevel;
      }

      .cls-1, .cls-2, .cls-3, .cls-4 {
        fill: none;
        stroke: #fbfcfe;
      }

      .cls-2, .cls-3 {
        stroke-linecap: square;
      }

      .cls-3, .cls-4 {
        stroke-miterlimit: 10;
      }

      .cls-5 {
        fill-rule: evenodd;
      }

      .cls-5, .cls-6 {
        fill: #fbfcfe;
        stroke-width: 0px;
      }
    </style>
  </defs>
  <g id="Layer_1-2" data-name="Layer 1">
    <g>
      <path class="cls-5" d="m26.35,41.11c-.19.11-.35.17-.47.27-.72.61-1.49.69-2.3.19-.88-.54-1.27-1.34-1.06-2.33.21-1.01.47-2.02.82-2.99,1.75-4.71,3.87-9.25,6.34-13.63,1.76-3.1,3.6-6.16,5.41-9.23.02-.03.28-.71.91-1.33.29-.28.58-.56.99-.58.13,0,.41,0,1.11.56.69.55,1.07.85,1.23,1.27.36.95-.52,2.1-.77,2.44-2.04,2.72-3.63,5.76-5.42,8.64-2.2,3.53-4.09,7.21-5.58,11.1-.41,1.06-.55,2.15-.46,3.24.57.7,1.33.78,2.07.85,2.62.24,5.13-.35,7.59-1.15,3.2-1.04,6.03-2.78,8.82-4.59,4.22-2.75,8.45-5.68,13.38-10.75,0,0,4.87-5.01,7.41-11.24.51-1.25,1.04-2.98.38-4.64-.34-.84-.88-1.41-1.14-1.69-1.39-1.44-3.13-1.83-3.74-1.97-5.82-1.31-11.54-.74-17.31.54-10,2.22-19.33,6.07-28.25,11.01-2.98,1.65-5.94,3.34-8.86,5.1-.98.59-1.82,1.44-2.66,2.23-1.19,1.11-2.55,1.65-4.13,1.46-.97-1.36-.91-2.36.36-3.28,2.45-1.78,4.88-3.62,7.48-5.16C19.86,8.7,31.99,3.94,44.93,1.23c3.47-.73,6.95-1.33,10.51-1.18,3.08.13,6.14.46,9.09,1.43,3.7,1.22,5.15,3.2,5.23,7.08.06,2.99-.8,5.71-2.21,8.31-2.98,5.47-7.03,10.04-11.85,13.96-4.5,3.66-9.26,6.9-14.48,9.44-2.25,1.09-4.59,1.97-7.08,2.35-2.78.42-5.49.46-7.8-1.5Z"/>
      <path class="cls-5" d="m127.21,14.77c-.34.21-.72.38-1.03.63-4.34,3.48-8.66,6.99-13,10.47-1.7,1.36-3.22,1.43-4.92.3-.35-.7.06-1.27.39-1.84.58-1.04,1.18-2.07,1.77-3.11l.06-.03-.04.03c-2.85,2.57-6.07,4.62-9.41,6.5-.93.53-1.91.81-2.98.75-1.13-.06-1.74-.81-1.5-1.93.11-.52.29-1.04.55-1.51,2.11-3.81,4.23-7.61,6.37-11.39.67-1.19,1.52-1.57,2.55-1.26,1.51.45,1.99,1.72,1.02,2.96-1.83,2.32-3.45,4.77-4.68,7.46-.13.29-.24.58-.19,1.02.91-.62,1.86-1.19,2.73-1.86,2.71-2.12,5.44-4.23,8.05-6.47.95-.82,1.61-1.98,2.34-3.03.92-1.33,1.95-1.14,2.27-1.14,1.14-.02,2.38.77,2.4,1.52,0,.31-.19.5-.5.87,0,0-1.23,1.47-3.01,5.27-.02.04-.08.17-.07.17.03-.05.06-.11.08-.16,1.61-1.24,3.22-2.46,4.82-3.71,2.19-1.71,4.37-3.45,6.56-5.17,1.79-1.4,3.57-1.47,5.54-.24.34.63-.08,1.1-.35,1.6-.77,1.42-1.44,2.88-1.64,4.66.34-.16.59-.25.81-.38,2.03-1.21,4.1-2.38,6.08-3.68.82-.53,1.47-1.32,2.18-2.01,1.21-1.2,2.36-2.45,3.6-3.61,1.62-1.5,3.6-2.23,5.79-2.28,1.37-.03,2.75.06,4.11.18.5.05.98.35,1.38.5.35,1.32-.05,2.26-.85,2.99-2,1.83-4.11,3.54-6.65,4.56-1.33.54-2.77.83-4.19,1.12-.24.05-1.06.2-1.78.83-.39.34-.92.98-.74,1.31.18.33,1.01.21,1.38.16,7-1.08,10.46-1.76,11.31-1.93,11.37-2.31,22.72-4.69,34.06-7.09,2.4-.51,4.75-1.22,7.13-1.82.8-.2,1.62-.38,2.43-.56.6-.13,1.07.08,1.37.61.32.56.15,1.13-.32,1.44-.56.38-1.23.72-1.89.85-5.26,1.03-10.54,1.98-15.8,3.02-8.4,1.66-16.8,3.35-25.19,5.07-4.68.96-9.35,2-14.03,2.97-.73.15-1.49.22-2.23.19-1.41-.06-1.91-.61-2-2-.01-.16,0-.33,0-.65-.41.25-.72.42-1.02.62-1.41.96-2.78,1.97-4.22,2.89-1.94,1.23-3.97,1.18-5.73-.18.03-.5.09-1.03.17-1.58.16-1.07.4-2.04.66-2.88Zm23.22-7.96c-.22-.29-2.18.82-3.35,1.6-1.41.93-3.4,2.51-3.2,2.84.19.31,2.41-.5,4.21-1.85,1.3-.97,2.53-2.33,2.34-2.58Z"/>
      <path class="cls-5" d="m101.72,4.15c-.49-.53-2.01.05-2.57.26-1.31.5-1.93,1.15-2.3.89-.27-.19-.21-.74-.19-.92.01-.12.1-.62.61-1.2,1.31-1.49,4.23-2.23,6.11-1.56,1.26.45,1.96,1.62,1.73,3.23-.16,1.1-.45,2.19-.83,3.24-1.02,2.83-2.58,5.37-4.26,7.85-2.89,4.27-6.02,8.36-9.43,12.22-.55.62-1.15,1.2-1.78,1.74-.75.65-1.67.72-2.6.49-1.12-.28-1.46-.82-1.44-1.98.05-2.59.6-5.1,1.2-7.6.09-.39.16-.78.24-1.17-.08-.05-.15-.11-.23-.16-1.64,1.33-3.32,2.61-4.91,3.99-2.83,2.44-5.54,5.04-8.44,7.39-1.8,1.46-3.82,2.65-5.81,3.84-.76.45-1.71.65-2.6.79-.96.15-1.49-.34-1.57-1.31-.09-1.13.03-2.22.58-3.26,2-3.82,3.98-7.65,5.94-11.49.38-.75.85-1.33,1.79-1.29.96.03,1.67.46,2.09,1.32.43.86.21,1.6-.42,2.27-2.31,2.49-3.41,5.65-4.95,8.88.49-.27.77-.4,1.02-.57,2.99-1.99,5.68-4.34,8.3-6.78,2.5-2.32,5-4.63,7.51-6.94.46-.42.94-.82,1.45-1.18,1.25-.87,2.61-1.01,4.05-.54,1.08.35,1.39.87,1.1,1.99-.54,2.04-1.12,4.07-1.67,6.11-.13.5-.18,1.02-.29,1.68.27-.16.4-.19.47-.28,3.8-4.72,7.61-9.45,10.57-14.76,0,0,.63-1,1.4-3.44.32-1.02.38-1.48.14-1.74Z"/>
      <path class="cls-5" d="m73.03,10.77c-.13-.34,0-.68.08-.89,1.14-2.98,1.36-3.42,1.82-4.07.62-.89.87-1.04,1.02-1.11,1.02-.48,2.55,0,2.85.86.08.23.06.47-.27,1.31-.17.43-.74,1.81-2.47,4.02-.24.31-.56.7-1.08.81-.44.09-.83-.07-1.03-.15-.24-.1-.76-.31-.92-.77Z"/>
      <path class="cls-5" d="m108.84,6.45c-.09,0-.77,0-1.07-.44-.11-.16-.13-.34-.14-.45-.07-1.07.74-2.58.91-2.9.67-1.23,1.01-1.86,1.23-2.03.81-.63,2.08-.85,2.88-.38.45.27.72.69.5,1.14-1.13,2.31-2.89,4.58-3.62,4.9-.12.05-.37.15-.69.15Z"/>
      <path class="cls-5" d="m23.17,27.52c-.97.26-.98-.69-1.6-1.06h-2.71c-.58.32-.57,1.44-1.71.84.91-1.7,1.61-3.49,2.91-4.93,1.02.55,2.89,3.65,3.11,5.14Zm-1.98-2.15c-.33-.59-.6-1.06-.99-1.76-.37.72-.61,1.19-.9,1.76h1.9Z"/>
      <path class="cls-5" d="m197.96,30.99c.23.39.45.78.68,1.17.27-.09.55-.18.82-.28-.17.89-.33,1.79-.5,2.68.47-.52.93-1.04,1.4-1.56l.32.64c.39,0,.79,0,1.18-.01l-.32,1.23c.19.21.38.42.57.63l-1.76,1.34-.22.83-1.34-.32-.48.16v1.79s-.69,0-.69,0v-1.79s-.48-.16-.48-.16l-1.34.32-.22-.83-1.76-1.34c.2-.19.39-.38.59-.56-.12-.41-.24-.82-.36-1.24.4-.02.81-.04,1.21-.05l.32-.64c.42.47.83.94,1.25,1.41-.12-.84-.24-1.69-.36-2.53.24.08.48.16.72.23l.77-1.13Z"/>
      <g>
        <path class="cls-2" d="m139.63,22.92v4.66h2.9c1.29,0,2.33-1.04,2.33-2.33h0c0-1.29-1.04-2.33-2.33-2.33h-2.9Z"/>
        <polyline class="cls-2" points="156.59 22.92 151.95 22.92 151.95 27.58 156.59 27.58"/>
        <line class="cls-1" x1="151.95" y1="25.25" x2="155.25" y2="25.25"/>
        <line class="cls-2" x1="175.5" y1="22.92" x2="175.5" y2="27.58"/>
        <path class="cls-4" d="m187.59,23.66s-.28-.74-2.06-.74-2.7,1.17-2.7,2.33.7,2.33,2.79,2.33,2.66-1.7,2.66-1.98h-2.72"/>
        <polyline class="cls-3" points="195.61 27.58 195.61 23.52 200.39 27.22 200.39 22.92"/>
      </g>
      <path class="cls-3" d="m167.65,23.58c-.15-.14-.4-.33-.74-.47-.54-.22-1.17-.23-1.74-.2-.46.02-.96.19-1.32.48-.36.3-.43.88-.11,1.24.38.41,1.09.48,1.61.51.77.05,2.11.08,2.27,1.07.19,1.15-1.15,1.38-1.98,1.37-.49,0-1.35-.09-2.36-.6"/>
      <g>
        <path class="cls-6" d="m75.76,37.81c-.2.14-.41.24-.62.3-.21.06-.45.09-.73.09-.38,0-.71-.05-.99-.16-.28-.11-.52-.25-.71-.42s-.33-.37-.42-.6c-.1-.22-.14-.45-.14-.69s.05-.46.14-.69c.09-.22.24-.42.42-.6s.42-.32.71-.42c.28-.11.61-.16.99-.16.27,0,.52.03.73.09.21.06.42.16.62.3.05.04.09.08.12.12.03.05.05.1.05.17,0,.1-.04.18-.11.24-.07.06-.15.09-.23.09-.06,0-.12-.01-.17-.04-.1-.06-.19-.11-.28-.15s-.16-.07-.24-.09c-.08-.02-.15-.03-.22-.04-.07,0-.15,0-.23,0-.21,0-.4.03-.56.1-.16.07-.29.15-.4.26-.11.11-.19.24-.24.38-.05.14-.08.29-.08.44s.03.29.08.43.13.27.24.38c.11.11.24.2.4.26.16.07.34.1.56.1.08,0,.16,0,.23-.01.07,0,.14-.02.22-.04.08-.02.15-.05.24-.09s.17-.09.28-.15c.05-.03.1-.04.17-.04.08,0,.16.03.23.09.07.06.11.14.11.24,0,.07-.02.12-.05.17-.03.05-.08.09-.12.12Z"/>
        <path class="cls-6" d="m80.8,34.95c0-.08.01-.14.04-.2.03-.06.07-.11.11-.15.05-.04.1-.07.16-.1.06-.02.12-.03.17-.03.06,0,.12.01.18.03.06.02.11.05.16.1.05.04.08.09.12.15s.04.13.04.2v1.65c0,.27-.05.5-.16.7-.11.2-.25.37-.44.5-.19.13-.41.23-.67.3s-.54.1-.83.1-.59-.03-.85-.1c-.26-.07-.48-.17-.67-.3-.19-.13-.33-.3-.44-.5-.11-.2-.16-.43-.16-.7v-1.65c0-.08.02-.14.04-.2.03-.06.07-.11.12-.15s.1-.07.16-.1c.06-.02.12-.03.17-.03.06,0,.12.01.18.03.06.02.11.05.16.1s.08.09.11.15.04.13.04.2v1.54c0,.18.03.33.09.46s.15.24.25.32c.1.08.23.15.36.19s.28.06.42.06.28-.02.42-.06c.13-.04.25-.1.35-.19.1-.08.19-.19.25-.32s.09-.28.09-.46v-1.54Z"/>
        <path class="cls-6" d="m83.88,37.13c.11.06.23.11.35.15s.25.08.38.11.25.05.37.07c.12.02.23.02.33.02.09,0,.19,0,.3-.02s.21-.03.29-.06c.09-.03.16-.07.22-.12.06-.05.09-.12.09-.21s-.04-.15-.12-.19c-.08-.05-.18-.08-.3-.12s-.27-.05-.43-.08c-.16-.02-.33-.04-.49-.07-.17-.03-.33-.07-.49-.11-.16-.04-.3-.11-.43-.19s-.23-.18-.3-.3c-.08-.12-.12-.27-.12-.46s.05-.35.16-.5c.11-.14.25-.25.42-.34s.36-.16.57-.2c.21-.04.41-.06.61-.06.08,0,.17,0,.27,0s.22.02.33.04c.12.02.23.05.35.08s.22.07.31.12c.09.05.17.11.23.19.06.07.08.16.08.25,0,.11-.04.19-.11.25-.07.06-.16.1-.25.1-.07,0-.14-.02-.21-.07-.09-.06-.18-.1-.28-.14-.1-.04-.19-.07-.27-.08-.09-.02-.17-.03-.23-.04-.07,0-.12-.01-.16-.01-.05,0-.12,0-.21.01-.09,0-.19.02-.28.04-.09.02-.18.06-.25.1-.07.05-.11.11-.11.19,0,.07.04.12.12.15.08.04.18.06.3.09.12.02.27.04.43.06.16.02.32.04.49.08.17.03.33.07.49.12.16.05.3.12.43.21s.23.2.3.34c.08.14.12.3.12.5,0,.23-.07.41-.2.56-.13.15-.29.27-.49.35-.2.09-.4.15-.62.19s-.42.05-.61.05c-.31,0-.62-.04-.92-.11-.3-.07-.57-.19-.82-.35-.05-.03-.09-.07-.12-.12-.03-.05-.05-.11-.05-.19,0-.12.04-.21.11-.26.08-.06.15-.09.24-.09.06,0,.12.01.19.04Z"/>
        <path class="cls-6" d="m90.01,35.2h-1.23c-.08,0-.16-.03-.23-.09-.07-.06-.11-.14-.11-.24s.04-.18.11-.24c.07-.06.15-.09.23-.09h3.43c.08,0,.16.03.23.09.07.06.11.14.11.24s-.04.18-.11.24c-.07.06-.15.09-.23.09h-1.23v2.52c0,.08-.01.14-.04.2-.03.06-.07.11-.11.15-.05.04-.1.07-.16.09-.06.02-.12.03-.18.03s-.12-.01-.18-.03c-.06-.02-.11-.05-.16-.09-.05-.04-.08-.09-.11-.15-.03-.06-.04-.13-.04-.2v-2.52Z"/>
        <path class="cls-6" d="m98.29,36.33c0,.23-.05.46-.15.69s-.24.42-.43.6-.44.32-.73.42c-.29.11-.63.16-1.02.16s-.73-.05-1.02-.16c-.29-.11-.53-.25-.73-.42s-.34-.37-.44-.6-.14-.45-.14-.69.05-.46.14-.68.24-.42.44-.6.44-.32.73-.42c.29-.11.63-.16,1.02-.16s.73.05,1.02.16c.29.11.53.25.73.42s.34.37.43.6.15.45.15.68Zm-1.05,0c0-.15-.03-.29-.08-.43-.05-.14-.13-.27-.24-.38-.11-.11-.24-.2-.4-.27s-.34-.1-.55-.1-.4.03-.56.1c-.16.07-.29.16-.4.27s-.19.24-.24.38-.08.29-.08.43.03.29.08.43.13.27.24.38.24.2.4.27c.16.07.35.1.56.1s.39-.03.55-.1.29-.16.4-.27c.11-.11.19-.24.24-.38.05-.14.08-.29.08-.43Z"/>
        <path class="cls-6" d="m103.9,36.06l-1.03,1.86c-.05.09-.12.16-.21.21-.09.05-.19.07-.28.07s-.19-.02-.28-.07c-.09-.05-.16-.12-.21-.21l-1.03-1.86-.46,1.83c-.03.11-.08.19-.15.24-.07.05-.15.07-.24.07-.06,0-.11,0-.17-.03-.06-.02-.1-.05-.15-.08s-.08-.08-.1-.13-.04-.11-.04-.17c0-.03,0-.07.02-.1l.7-2.91c.03-.1.08-.18.17-.23.08-.05.17-.08.26-.08s.17.03.24.08c.08.05.14.13.19.22l1.25,2.28,1.25-2.28c.05-.09.11-.17.19-.22.08-.06.16-.08.25-.08s.17.03.26.08c.08.05.14.13.17.23l.7,2.91s.02.07.02.1c0,.06-.01.12-.04.17-.03.05-.06.09-.1.13-.04.04-.09.06-.15.08-.05.02-.11.03-.17.03-.09,0-.17-.02-.24-.07-.07-.05-.12-.13-.15-.24l-.46-1.83Z"/>
        <path class="cls-6" d="m111.65,35.9l-.82,2c-.04.1-.1.17-.19.22-.08.05-.17.07-.26.07s-.18-.02-.26-.07c-.08-.05-.15-.12-.19-.22l-1.25-2.82s-.03-.06-.04-.09-.01-.07-.01-.11c0-.07.01-.13.04-.18.03-.05.06-.09.1-.13s.08-.06.13-.08c.05-.02.1-.03.15-.03.08,0,.15.02.22.06s.12.1.16.18l.96,2.12.85-2.08c.04-.1.09-.17.17-.21s.16-.07.24-.07.16.02.24.07c.08.04.13.12.17.21l.86,2.08.95-2.12c.04-.08.09-.14.16-.18.07-.04.14-.06.22-.06.05,0,.1,0,.15.03.05.02.09.04.13.08s.07.08.1.13c.03.05.04.11.04.18,0,.04,0,.08-.02.11s-.02.07-.04.09l-1.25,2.82c-.04.1-.11.17-.19.22s-.17.07-.26.07-.18-.02-.27-.07-.15-.12-.18-.22l-.82-2Z"/>
        <path class="cls-6" d="m116.01,34.95c0-.08.02-.14.04-.2.03-.06.07-.11.12-.15s.1-.07.16-.1c.06-.02.12-.03.17-.03.06,0,.12.01.18.03.06.02.11.05.16.1s.08.09.11.15.04.13.04.2v2.76c0,.08-.01.14-.04.2-.03.06-.07.11-.11.15-.05.04-.1.07-.16.09-.06.02-.12.03-.18.03s-.11-.01-.17-.03c-.06-.02-.11-.05-.16-.09-.05-.04-.08-.09-.12-.15-.03-.06-.04-.13-.04-.2v-2.76Z"/>
        <path class="cls-6" d="m119.69,35.88v1.83c0,.08-.01.14-.04.2-.03.06-.07.11-.11.15-.05.04-.1.07-.16.09-.06.02-.12.03-.18.03s-.11-.01-.17-.03-.11-.05-.16-.09c-.05-.04-.08-.09-.12-.15-.03-.06-.04-.13-.04-.2v-2.76c0-.08.01-.14.04-.2s.07-.11.12-.15c.05-.04.1-.07.16-.1.06-.02.12-.03.17-.03.08,0,.16.03.23.08s.15.11.21.17l2.33,2.12v-1.89c0-.08.02-.14.04-.2.03-.06.07-.11.12-.15s.1-.07.16-.1c.06-.02.12-.03.17-.03.06,0,.12.01.18.03.06.02.11.05.16.1s.08.09.11.15.04.13.04.2v2.76c0,.16-.05.29-.14.37-.09.08-.21.12-.33.12-.07,0-.14-.01-.21-.04-.07-.03-.14-.07-.2-.12l-2.39-2.15Z"/>
        <path class="cls-6" d="m125.2,38.14c-.06,0-.11-.01-.17-.03-.06-.02-.11-.05-.16-.09-.05-.04-.08-.09-.11-.15s-.04-.13-.04-.21v-2.63c0-.08.01-.15.04-.21.03-.06.07-.11.11-.15.05-.04.1-.07.16-.1.06-.02.12-.03.17-.03h1.19c.35,0,.67.02.99.07.31.05.58.14.82.26.23.13.42.31.56.54.14.23.21.53.21.9,0,.26-.04.49-.12.69-.08.2-.18.36-.31.5-.13.13-.28.25-.45.33s-.35.15-.54.2-.38.08-.57.09-.38.03-.55.03h-1.22Zm1.27-.67c.21,0,.41-.02.59-.06.18-.04.33-.1.46-.2.12-.09.22-.21.29-.35s.1-.33.1-.54c0-.27-.05-.49-.15-.63-.1-.15-.22-.26-.37-.33-.15-.07-.31-.11-.48-.12s-.33-.02-.48-.02h-.73v2.26h.77Z"/>
        <path class="cls-6" d="m134.95,36.33c0,.23-.05.46-.15.69s-.24.42-.43.6-.44.32-.73.42c-.29.11-.63.16-1.02.16s-.73-.05-1.02-.16c-.29-.11-.53-.25-.73-.42s-.34-.37-.44-.6-.14-.45-.14-.69.05-.46.14-.68.24-.42.44-.6.44-.32.73-.42c.29-.11.63-.16,1.02-.16s.73.05,1.02.16c.29.11.53.25.73.42s.34.37.43.6.15.45.15.68Zm-1.05,0c0-.15-.03-.29-.08-.43-.05-.14-.13-.27-.24-.38-.11-.11-.24-.2-.4-.27s-.34-.1-.55-.1-.4.03-.56.1c-.16.07-.29.16-.4.27s-.19.24-.24.38-.08.29-.08.43.03.29.08.43.13.27.24.38.24.2.4.27c.16.07.35.1.56.1s.39-.03.55-.1.29-.16.4-.27c.11-.11.19-.24.24-.38.05-.14.08-.29.08-.43Z"/>
        <path class="cls-6" d="m139.13,35.9l-.82,2c-.04.1-.1.17-.19.22-.08.05-.17.07-.26.07s-.18-.02-.26-.07c-.08-.05-.15-.12-.19-.22l-1.25-2.82s-.03-.06-.04-.09-.01-.07-.01-.11c0-.07.01-.13.04-.18.03-.05.06-.09.1-.13s.08-.06.13-.08c.05-.02.1-.03.15-.03.08,0,.15.02.22.06s.12.1.16.18l.96,2.12.85-2.08c.04-.1.09-.17.17-.21s.16-.07.24-.07.16.02.24.07c.08.04.13.12.17.21l.86,2.08.95-2.12c.04-.08.09-.14.16-.18.07-.04.14-.06.22-.06.05,0,.1,0,.15.03.05.02.09.04.13.08s.07.08.1.13c.03.05.04.11.04.18,0,.04,0,.08-.02.11s-.02.07-.04.09l-1.25,2.82c-.04.1-.11.17-.19.22s-.17.07-.26.07-.18-.02-.27-.07-.15-.12-.18-.22l-.82-2Z"/>
        <path class="cls-6" d="m149.27,37.81c-.2.14-.41.24-.62.3-.21.06-.45.09-.73.09-.38,0-.71-.05-.99-.16-.28-.11-.52-.25-.71-.42s-.33-.37-.42-.6c-.1-.22-.14-.45-.14-.69s.05-.46.14-.69c.09-.22.24-.42.42-.6s.42-.32.71-.42c.28-.11.61-.16.99-.16.27,0,.52.03.73.09.21.06.42.16.62.3.05.04.09.08.12.12.03.05.05.1.05.17,0,.1-.04.18-.11.24-.07.06-.15.09-.23.09-.06,0-.12-.01-.17-.04-.1-.06-.19-.11-.28-.15s-.16-.07-.24-.09c-.08-.02-.15-.03-.22-.04-.07,0-.15,0-.23,0-.21,0-.4.03-.56.1-.16.07-.29.15-.4.26-.11.11-.19.24-.24.38-.05.14-.08.29-.08.44s.03.29.08.43.13.27.24.38c.11.11.24.2.4.26.16.07.34.1.56.1.08,0,.16,0,.23-.01.07,0,.14-.02.22-.04.08-.02.15-.05.24-.09s.17-.09.28-.15c.05-.03.1-.04.17-.04.08,0,.16.03.23.09.07.06.11.14.11.24,0,.07-.02.12-.05.17-.03.05-.08.09-.12.12Z"/>
        <path class="cls-6" d="m155.53,36.33c0,.23-.05.46-.15.69s-.24.42-.43.6-.44.32-.73.42c-.29.11-.63.16-1.02.16s-.73-.05-1.02-.16c-.29-.11-.53-.25-.73-.42s-.34-.37-.44-.6-.14-.45-.14-.69.05-.46.14-.68.24-.42.44-.6.44-.32.73-.42c.29-.11.63-.16,1.02-.16s.73.05,1.02.16c.29.11.53.25.73.42s.34.37.43.6.15.45.15.68Zm-1.05,0c0-.15-.03-.29-.08-.43-.05-.14-.13-.27-.24-.38-.11-.11-.24-.2-.4-.27s-.34-.1-.55-.1-.4.03-.56.1c-.16.07-.29.16-.4.27s-.19.24-.24.38-.08.29-.08.43.03.29.08.43.13.27.24.38.24.2.4.27c.16.07.35.1.56.1s.39-.03.55-.1.29-.16.4-.27c.11-.11.19-.24.24-.38.05-.14.08-.29.08-.43Z"/>
        <path class="cls-6" d="m156.75,35.12c-.04-.06-.06-.14-.06-.22,0-.07.01-.13.04-.18.03-.05.06-.1.1-.14.04-.04.09-.06.14-.08.05-.02.1-.03.15-.03.07,0,.13.02.2.04.07.03.12.08.16.14l1.54,2.44,1.55-2.44c.04-.06.09-.11.16-.14.07-.03.13-.04.2-.04.05,0,.1,0,.15.03.05.02.1.05.14.08.04.04.08.08.1.14.03.05.04.11.04.18,0,.09-.02.16-.06.22l-1.79,2.82c-.06.09-.13.15-.22.2-.09.04-.18.07-.27.07s-.18-.02-.27-.07-.16-.11-.21-.2l-1.78-2.82Z"/>
        <path class="cls-6" d="m163.2,38.14c-.06,0-.11-.01-.17-.03-.06-.02-.11-.05-.16-.09-.05-.04-.08-.09-.11-.15s-.04-.13-.04-.21v-2.63c0-.08.01-.15.04-.21.03-.06.07-.11.11-.15.05-.04.1-.07.16-.1.06-.02.12-.03.17-.03h2.72c.09,0,.17.03.23.09.07.06.11.15.11.24s-.04.19-.11.25c-.07.06-.15.09-.23.09h-2.22v.71h1.9c.09,0,.17.03.24.1.07.06.1.15.1.25s-.04.19-.1.25c-.07.06-.15.09-.24.09h-1.9v.87h2.33c.08,0,.16.03.23.09.07.06.1.14.1.24s-.04.19-.1.25c-.07.06-.15.09-.23.09h-2.82Z"/>
        <path class="cls-6" d="m169.95,36.71h-1.07v1c0,.08-.01.14-.04.2-.03.06-.07.11-.11.15-.05.04-.1.07-.16.09-.06.02-.12.03-.18.03s-.11-.01-.17-.03-.11-.05-.16-.09c-.05-.04-.08-.09-.12-.15-.03-.06-.04-.13-.04-.2v-2.7c0-.08.01-.15.04-.21.03-.06.07-.11.12-.15.05-.04.1-.07.16-.1.06-.02.12-.03.17-.03h1.53c.21,0,.42,0,.65.03.22.02.42.06.6.14s.33.18.44.32c.12.14.17.34.17.58,0,.26-.07.47-.2.62-.13.16-.3.27-.51.35l.62.79s.07.1.1.16c.03.06.05.12.05.2,0,.06-.01.12-.04.18-.02.06-.06.11-.1.16s-.1.08-.16.11c-.06.03-.12.04-.19.04-.08,0-.15-.02-.22-.06-.07-.04-.13-.09-.18-.16l-1-1.27Zm-1.07-1.51v.83h1.36c.06,0,.13,0,.2-.02.07-.01.12-.04.18-.07s.09-.08.13-.13c.03-.05.05-.12.05-.19,0-.1-.03-.18-.08-.23-.05-.06-.12-.1-.21-.12-.08-.02-.17-.04-.27-.04-.1,0-.19,0-.28,0h-1.07Z"/>
        <path class="cls-6" d="m173.29,34.95c0-.08.02-.14.04-.2.03-.06.07-.11.12-.15s.1-.07.16-.1c.06-.02.12-.03.17-.03.06,0,.12.01.18.03.06.02.11.05.16.1s.08.09.11.15.04.13.04.2v2.76c0,.08-.01.14-.04.2-.03.06-.07.11-.11.15-.05.04-.1.07-.16.09-.06.02-.12.03-.18.03s-.11-.01-.17-.03c-.06-.02-.11-.05-.16-.09-.05-.04-.08-.09-.12-.15-.03-.06-.04-.13-.04-.2v-2.76Z"/>
        <path class="cls-6" d="m176.97,35.88v1.83c0,.08-.01.14-.04.2-.03.06-.07.11-.11.15-.05.04-.1.07-.16.09-.06.02-.12.03-.18.03s-.11-.01-.17-.03-.11-.05-.16-.09c-.05-.04-.08-.09-.12-.15-.03-.06-.04-.13-.04-.2v-2.76c0-.08.01-.14.04-.2s.07-.11.12-.15c.05-.04.1-.07.16-.1.06-.02.12-.03.17-.03.08,0,.16.03.23.08s.15.11.21.17l2.33,2.12v-1.89c0-.08.02-.14.04-.2.03-.06.07-.11.12-.15s.1-.07.16-.1c.06-.02.12-.03.17-.03.06,0,.12.01.18.03.06.02.11.05.16.1s.08.09.11.15.04.13.04.2v2.76c0,.16-.05.29-.14.37-.09.08-.21.12-.33.12-.07,0-.14-.01-.21-.04-.07-.03-.14-.07-.2-.12l-2.39-2.15Z"/>
        <path class="cls-6" d="m184.39,36.88c-.09,0-.16-.03-.23-.09s-.1-.14-.1-.24.03-.18.1-.24.15-.09.23-.09h1.42c.17,0,.29.03.37.1s.11.16.11.27c0,.2-.05.39-.16.58s-.26.37-.45.52-.42.28-.69.37c-.26.1-.55.14-.86.14-.39,0-.73-.05-1.02-.16-.29-.11-.53-.25-.73-.42s-.34-.37-.44-.6-.14-.45-.14-.69.05-.46.14-.68.24-.42.44-.6.44-.32.73-.42c.29-.11.63-.16,1.02-.16.19,0,.37.01.52.04.15.02.29.06.42.11s.24.11.34.18c.1.07.2.15.3.25.07.07.1.16.1.25,0,.11-.04.2-.11.27s-.15.09-.25.09c-.04,0-.09,0-.13-.02s-.09-.04-.13-.08c-.08-.07-.15-.12-.22-.17-.07-.05-.15-.09-.23-.12-.08-.03-.17-.06-.27-.08-.1-.02-.21-.03-.35-.03-.21,0-.4.03-.56.1-.16.07-.29.16-.4.27s-.19.24-.24.38-.08.29-.08.43.03.29.08.43.13.27.24.38.24.2.4.27c.16.07.35.1.56.1.29,0,.54-.06.73-.18.2-.12.35-.27.44-.45h-.9Z"/>
        <path class="cls-6" d="m188.2,37.13c.11.06.23.11.35.15s.25.08.38.11.25.05.37.07c.12.02.23.02.33.02.09,0,.19,0,.3-.02s.21-.03.29-.06c.09-.03.16-.07.22-.12.06-.05.09-.12.09-.21s-.04-.15-.12-.19c-.08-.05-.18-.08-.3-.12s-.27-.05-.43-.08c-.16-.02-.33-.04-.49-.07-.17-.03-.33-.07-.49-.11-.16-.04-.3-.11-.43-.19s-.23-.18-.3-.3c-.08-.12-.12-.27-.12-.46s.05-.35.16-.5c.11-.14.25-.25.42-.34s.36-.16.57-.2c.21-.04.41-.06.61-.06.08,0,.17,0,.27,0s.22.02.33.04c.12.02.23.05.35.08s.22.07.31.12c.09.05.17.11.23.19.06.07.08.16.08.25,0,.11-.04.19-.11.25-.07.06-.16.1-.25.1-.07,0-.14-.02-.21-.07-.09-.06-.18-.1-.28-.14-.1-.04-.19-.07-.27-.08-.09-.02-.17-.03-.23-.04-.07,0-.12-.01-.16-.01-.05,0-.12,0-.21.01-.09,0-.19.02-.28.04-.09.02-.18.06-.25.1-.07.05-.11.11-.11.19,0,.07.04.12.12.15.08.04.18.06.3.09.12.02.27.04.43.06.16.02.32.04.49.08.17.03.33.07.49.12.16.05.3.12.43.21s.23.2.3.34c.08.14.12.3.12.5,0,.23-.07.41-.2.56-.13.15-.29.27-.49.35-.2.09-.4.15-.62.19s-.42.05-.61.05c-.31,0-.62-.04-.92-.11-.3-.07-.57-.19-.82-.35-.05-.03-.09-.07-.12-.12-.03-.05-.05-.11-.05-.19,0-.12.04-.21.11-.26.08-.06.15-.09.24-.09.06,0,.12.01.19.04Z"/>
      </g>
    </g>
  </g>
</svg>