<?xml version="1.0" encoding="UTF-8"?>
<svg id="Layer_2" data-name="Layer 2" xmlns="http://www.w3.org/2000/svg" viewBox="0 0 396.58 35.03">
  <defs>
    <style>
      .cls-1 {
        fill: #fbfcfe;
        stroke-width: 0px;
      }
    </style>
  </defs>
  <g id="Layer_1-2" data-name="Layer 1">
    <g>
      <g>
        <path class="cls-1" d="m161.09,21.91s.06-.16.13-.3c.31-.65.51-1.75.95-1.85,1.22-.28,2.53-.21,3.8-.11.23.02.63.92.55,1.33-.22,1.07-.66,2.1-1.01,3.14.1.06.2.11.29.17.7-.87,1.36-1.78,2.1-2.62,1.29-1.45,2.58-2.91,3.96-4.27,1.14-1.13,2.62-1.36,4.17-1.17,1.12.14,1.24.43.75,1.48-.88,1.87-1.86,3.71-2.53,5.65-.32.92-.47,1.47-1.58,1.57-2.35.22-2.63.04-2.66-2.37,0-.11-.07-.21-.18-.55-2.39,2.73-5.25,4.89-6.01,8.59-.42,2.03-1.9,2.77-3.74,1.85-.37-.18-.55-.73-.86-1.19-4.07,2.7-8.29,4.16-12.82.32-1.18,1.18-2.83,1.8-4.7,2.06-2.54.35-3.72-.37-4.31-2.88-.06-.23-.11-.47-.21-.92-.35.38-.63.6-.81.88-1.58,2.46-4.11,2.93-6.72,3.05-1.35.06-2.3-.87-2.57-2.14-.43-1.98-.65-4-.95-6-.06-.4-.08-.8-.13-1.23-.71,1.76-1.25,3.53-2.09,5.14-1.98,3.77-4.81,4.52-8.75,4.26-.8-.05-1.59-1.01-2.29-1.66-.33-.31-.42-.88-.71-1.15-7.78-1.02-15.11-3.04-20.91-9.12-.8,1.02-.91,2.3-1.07,3.53-.14,1.07-.14,2.16-.13,3.24,0,.69-.29,1.03-.94,1.03-.79,0-1.68.14-2.33-.18-.53-.25-1.1-1.11-1.08-1.67.1-2.31.28-4.64.68-6.92.49-2.73,1.2-5.42,1.88-8.1.22-.87.65-1.69,1.12-2.87-.7.38-1.22.57-1.63.89-1.76,1.35-3.52,2.72-5.22,4.14-.65.54-.84,1.2-.27,2.07.67,1.02.43,1.45-.75,1.77-1.13.3-2.2.17-2.97-.77-.86-1.05-1.12-2.4-.42-3.5.8-1.25,1.86-2.44,3.06-3.31,4.44-3.26,9.5-5.24,14.83-6.48,3.34-.77,6.7-.41,10.01.37.44.1.89.2,1.34.29,2.08.42,2.77,1.71,1.93,3.66-1.38,3.21-3.79,5.54-6.68,7.33-2.38,1.47-4.96,2.64-7.46,3.94-.24.13-.48.25-.72.38,1.35,2.63,14.15,6.86,17.5,7,.44-4.91,2.56-8.77,7.23-10.86,1.5-.67,3.11-.67,5.07,0-1.08.62-1.86,1.07-2.69,1.55q3.41,1.69,4.48,3.55c0-.53,0-1.07,0-1.6.06-3.37.42-6.7,1.46-9.93.35-1.08,1.01-1.74,2.15-1.99,4.98-1.06,5.63-.2,5.64,4.27,0,4.22-.85,8.37-3.57,11.67-1.55,1.88-1.37,3.56-.83,5.49.48,1.73,1.43,2,2.61.66,1.09-1.23,2.02-2.61,2.91-3.99.28-.44.25-1.11.23-1.68-.15-4.79.03-9.54,1.41-14.19.35-1.18.96-2.01,2.23-2.21.98-.16,1.97-.38,2.95-.41,1.61-.04,2.43.65,2.57,2.27.47,5.6-.58,10.8-4.3,15.26-.34.41-.46,1.15-.39,1.7.14,1.09.37,2.2.76,3.23.39,1.05,1.07,1.13,1.92.4,1.71-1.47,2.66-3.41,3.54-5.44,1.11-2.58,2.85-4.73,5.66-5.59,2.42-.74,4.88-.42,7.18.58.45.2.64,1,.93,1.47Zm-69.55-2.38c.38-.02.55.02.69-.04,4-1.62,7.66-3.74,10.35-7.21.99-1.27,1.89-2.61,1.82-4.38-.04-1.03-.42-1.5-1.46-1.57-2.88-.19-5.6.5-8.28,1.41-.27.09-.46.68-.52,1.06-.29,1.74-.38,3.53-.8,5.24-.43,1.8-1.14,3.53-1.79,5.48Zm24.35,8.22c.37,1.23.57,2.29,1,3.26.58,1.28,1.5,1.38,2.39.3,1.8-2.2,2.3-4.81,2.13-7.58-.01-.16-.08-.32-.13-.48-.28-.97-.97-1.33-1.94-1.44-.96-.11-1.61.09-1.91,1.09-.5,1.65-1.04,3.28-1.54,4.86Zm44.92-4.39c-1.43,1.18-2.79,2.51-4.35,3.53-1.51.99-3.21,1.72-4.86,2.49-.72.34-.86.78-.7,1.49.32,1.42,1.1,1.81,2.76.94,2.01-1.05,3.9-2.33,5.83-3.53.23-.14.48-.39.53-.64.3-1.46.55-2.92.8-4.29Zm-29.26-12.43c-1.01,4.43-1.35,8.62-1.4,13.15,2.58-2.52,3.01-10.72,1.4-13.15Zm9.42,12.81c2.28-2.43,3.03-10.94,1.18-12.53-1,4.15-1.26,8.32-1.18,12.53Zm15.96-2.35c-2.69.62-5.55,4.11-5.58,6.66,2.33-1.84,5.03-3.18,5.58-6.66Z"/>
        <path class="cls-1" d="m259.7,30.54c2.93-1.4,4.44-4.31,7.08-6.4-.09.64-.14,1.06-.2,1.55.54.21,1.1.42,1.67.64-.26.99-.55,1.91-.74,2.85-.09.43-.04.92.05,1.36.24,1.13,1.16,1.55,2.02.81.9-.78,1.66-1.72,2.38-2.67.58-.77.22-1.5-.41-2.09-1.55-1.44-3.11-2.88-4.66-4.31-.66.48-1.53,1.12-2.73,2,.15-.7.26-1.03.29-1.37.17-1.5.45-3.01.44-4.51-.01-1.11.31-1.66,1.39-1.73.79-.05,1.58-.06,2.37-.07,1.2-.02,1.69.52,1.92,1.76.17.93.89,1.83,1.54,2.59.8.94,1.78,1.74,2.7,2.57,1.87,1.7,2.04,3.38.44,5.32-2.13,2.59-4.77,4.35-8.19,4.7-2.81.29-2.92.2-4.07-2.49-1.49,1.3-3.28,1.11-5.04,1-1.89-.11-2.59-.67-3.19-2.67-.55,1.01-1.02,1.85-1.47,2.7-1.45,2.74-3.2,3.43-6.15,2.6-1.68-.48-1.95-1.87-2.35-3.16-1.49,0-2.95.2-4.34-.05-2.01-.37-2.66-1.44-2.52-3.5.06-.86.22-1.71.08-2.71-1.17,1.51-2.36,3-3.5,4.53-1.11,1.49-2.17,3.03-3.25,4.54-.54.75-3.22.96-3.75.23-.2-.28-.17-.77-.15-1.16.04-.81.15-1.61.26-2.73-1.97,1.54-4.01,1.75-5.9,1.03-1.48-.56-2.22-.04-3.42.63-1.49.83-3.33,1.2-5.07,1.38-1.48.16-2.74-1.45-2.92-3.47-.29-3.35-.46-6.7-.68-10.06-.03-.4,0-.8,0-1.4-2.11,1.58-4.04,3.02-6.06,4.52,1.04.27,2.02.49,2.97.78,1.72.53,2.27,1.75,1.47,3.39-1.04,2.13-2.96,3.34-4.95,4.37-3,1.56-6.2,2.71-9.58,2.89-2.08.11-4.21-.2-6.28-.52-1-.15-1.7-.94-1.69-2.24,1.42.47,2.77.92,4.12,1.37.11-.11.23-.22.34-.32-1.75-1.77-.87-3.73-.51-5.57.7-3.53,1.61-7.02,2.43-10.52.15-.64.24-1.29.15-2.22-1.28.82-2.62,1.56-3.8,2.5-.82.64-2.05,1.1-1.85,2.55.02.13-.39.39-.65.48-.31.11-.65.15-.98.14-.66-.01-1.31-.08-1.97-.13.12-.79.03-1.69.38-2.36,1.16-2.23,3.27-3.48,5.41-4.61,3.99-2.09,8.18-3.64,12.68-4.22,2.98-.38,5.9.09,8.77.78.74.18,1.17.18,1.65-.51.8-1.16,4.91-1.87,6.05-1.01.5.38.93,1.14.99,1.77.6,5.7-.46,10.97-4.29,15.46-.2.23-.41.59-.38.85.18,1.3.31,2.64.72,3.88.41,1.27,1.13,1.29,2.16.44,2.01-1.67,2.73-3.94,3.27-6.36.33-1.48.93-2.92,1.49-4.34.52-1.31,4.02-1.8,4.76-.64.25.4.05,1.19-.14,1.73-.81,2.3-1.69,4.58-2.54,6.87-.09.23-.2.49-.17.72.08.47.24.92.37,1.38.4-.13.86-.18,1.2-.4,2.13-1.38,3.7-3.14,3.86-5.84.07-1.14.72-1.82,1.93-1.84.7-.01,1.42-.12,2.11-.02,1.43.21,1.6.56,1.12,1.94-.66,1.9-1.32,3.8-1.99,5.7.11.06.22.12.32.18.92-1.28,1.82-2.57,2.75-3.83,1.61-2.16,3.22-4.32,4.87-6.45.81-1.05,3.29-1.53,4.46-.93.75.38.65.95.37,1.59-.76,1.74-1.61,3.45-2.21,5.25-.36,1.07-.45,2.28-.42,3.42.03,1.05.73,1.32,1.52.61.64-.57,1.21-1.33,1.56-2.12,1.36-3.14,3.3-5.68,6.8-6.51,1.06-.25,2.24-.14,3.33.03,1.01.16,1.5.08,1.72-1.07.46-2.48,1.06-4.94,1.67-7.38.09-.35.56-.82.9-.87,3.25-.51,4.29.51,3.44,3.67-.98,3.59-2.28,7.09-3.31,10.66-.38,1.32-.42,2.73-.59,4.11-.02.13.14.28.28.53Zm-64.73-6.81c1.84-.33,3.54-.2,4.67-.94,2.23-1.45,4.29-3.24,6.11-5.18,1.04-1.11,1.67-2.73,2.12-4.24.43-1.44-.29-2.37-1.52-2.47-3.22-.26-6.21.71-9.33,1.75,1.4,1.47.81,2.9.27,4.37-.76,2.09-1.46,4.2-2.33,6.71Zm-1.07,9.17c3.34-.69,6.34-1.78,8.6-4.26.59-.64,1.13-1.69,1.05-2.49-.12-1.13-1.38-1.28-2.37-1.39-.55-.06-1.15,0-1.68.15-1.54.46-3.08.94-4.57,1.53-.43.17-.96.76-.99,1.19-.11,1.68-.05,3.37-.05,5.27Zm55.68.36c3.02-3.29,5.38-6.65,6.99-10.6-4.11-.67-8.55,5.83-6.99,10.6Zm-34.38-22.23c-.94,4.35-1.43,8.5-1.16,12.94,2.43-2.81,2.73-10.95,1.16-12.94Z"/>
        <path class="cls-1" d="m361.9,14.05c.17-.07.69-.27,1.29-.08.25.08.44.21.56.31.26-.1.51-.19.77-.29,2.16.03,4.32.06,6.48.1.23.06.66.2,1.05.56.9.83.88,2.19.88,2.77-.02,2.08.04,7.78.02,15.54l-4.82.1-.12-14.88c-.02-.73-.35-1.23-.62-1.24-.27,0-.65.5-.68,1.27,0,4.94-.01,9.87-.02,14.81-1.55.01-3.11.02-4.66.03-.04-6.33-.09-12.67-.13-19Z"/>
        <path class="cls-1" d="m335.04,23.66c0,1.95,0,3.9,0,5.85-.01,1.92-.69,2.95-2.51,3.52-2.12.67-4.28.64-6.34-.25-1.43-.62-2.12-1.84-2.14-3.36-.04-3.86-.05-7.71,0-11.57.02-2.04,1.39-3.48,3.41-3.81,2.04-.33,4.05-.43,5.92.69,1.08.64,1.69,1.53,1.67,2.83-.02,2.03,0,4.06,0,6.1Zm-4.81-5.59c0-.64-.31-1.11-.59-1.14-.3-.03-.76.44-.79,1.19,0,3.76,0,7.52,0,11.28-.04.53.38.92.77.88.31-.03.59-.32.63-.71,0-3.84-.02-7.67-.03-11.51Z"/>
        <path class="cls-1" d="m360.15,23.66c0,1.95,0,3.9,0,5.85-.01,1.92-.69,2.95-2.51,3.52-2.12.67-4.28.64-6.34-.25-1.43-.62-2.12-1.84-2.14-3.36-.04-3.86-.05-7.71,0-11.57.02-2.04,1.39-3.48,3.41-3.81,2.04-.33,4.05-.43,5.92.69,1.08.64,1.69,1.53,1.67,2.83-.02,2.03,0,4.06,0,6.1Zm-4.81-5.59c0-.64-.31-1.11-.59-1.14-.3-.03-.76.44-.79,1.19,0,3.76,0,7.52,0,11.28-.04.53.38.92.77.88.31-.03.59-.32.63-.71,0-3.84-.02-7.67-.03-11.51Z"/>
        <path class="cls-1" d="m396.57,23.66c0,1.95,0,3.9,0,5.85-.01,1.92-.69,2.95-2.51,3.52-2.12.67-4.28.64-6.34-.25-1.43-.62-2.12-1.84-2.14-3.36-.04-3.86-.05-7.71,0-11.57.02-2.04,1.39-3.48,3.41-3.81,2.04-.33,4.05-.43,5.92.69,1.08.64,1.69,1.53,1.67,2.83-.02,2.03,0,4.06,0,6.1Zm-4.81-5.59c0-.64-.31-1.11-.59-1.14-.3-.03-.76.44-.79,1.19,0,3.76,0,7.52,0,11.28-.04.53.38.92.77.88.31-.03.59-.32.63-.71,0-3.84-.02-7.67-.03-11.51Z"/>
        <path class="cls-1" d="m314.35,12.8h-2.57c-.04-1.05.04-2.1,0-3.15h10.54c.02,1.05-.02,2.1,0,3.15h-2.74v20.22c-1.74-.01-3.49-.03-5.23-.04V12.8Z"/>
        <path class="cls-1" d="m336.7,14.09c.26-.07.68-.14,1.18-.09.4.04.73.16.95.25.13-.09.31-.2.54-.29.35-.13.66-.14.86-.13,1.63.01,3.26.02,4.88.03.48.09,1.24.32,1.81.96.5.57.83,1.24.75,2.66-.07,1.4-.01,2.8-.01,4.27h-4.78c0-1.04.04-2.07-.02-3.09-.04-.63.34-1.67-.69-1.7-1.08-.03-.73,1.01-.74,1.64-.03,4.31-.05,8.63,0,12.94.02,1.17-.39,1.48-1.5,1.47-3.3-.03-3.3.01-3.31-3.23,0-4.68,0-9.37,0-14.05,0-.53.05-1.06.08-1.67Z"/>
        <path class="cls-1" d="m376.47,17.14h-1.67c-.02-.97-.05-1.89-.07-2.85h1.89v-3.96c1.47,0,3.12,0,4.6,0,.06,1.3-.06,2.6,0,3.9h2.39v3.06c-.76,0-1.51,0-2.27,0,0,3.71,0,7.4,0,11.11-.07.62.19,1.21.66,1.48.35.2.71.18.87.15.33.01.66.03.99.04.02.98.05,1.97.07,2.95-1.79-.01-3.57-.02-5.36-.03-.17,0-.83-.05-1.37-.57-.68-.65-.65-1.53-.64-1.66-.03-4.53-.06-9.08-.09-13.61Z"/>
        <path class="cls-1" d="m295.92,32.71c-1.38-.04-2.76-.08-4.14-.12-.05-7.6-.09-15.19-.14-22.79,1.37.04,2.74.08,4.12.12.05,7.59.11,15.19.16,22.78Z"/>
        <path class="cls-1" d="m224.64,16.5c-.11-.03-.38-.03-.4-.11-.35-1.08-.83-2.17-.92-3.28-.03-.37.89-1.04,1.47-1.19.98-.25,2.06-.33,3.08-.24,1.18.1,1.49.83.9,1.83-.92,1.57-2.2,2.67-4.13,2.98Z"/>
      </g>
      <g>
        <g>
          <path class="cls-1" d="m9.29,29c.23-1.57.58-2.92.95-4.03-1.34.18-2.8.44-4.35.81-2.23.54-4.2,1.21-5.89,1.9,1.34,1.1,3.03,2.31,5.08,3.43,1.41.77,2.76,1.36,3.98,1.82-.03-1.12.02-2.45.23-3.93h0Z"/>
          <path class="cls-1" d="m14.86,16.57c1.04-1.19,2.07-2.14,2.98-2.88-1.22-.58-2.59-1.15-4.1-1.67-2.17-.75-4.19-1.25-5.98-1.59.53,1.65,1.29,3.58,2.42,5.64.77,1.41,1.59,2.64,2.36,3.68.58-.96,1.34-2.05,2.32-3.18h0Z"/>
          <path class="cls-1" d="m26.26,9.12c1.52-.45,2.9-.69,4.06-.81-.72-1.15-1.56-2.36-2.55-3.62-1.42-1.81-2.85-3.32-4.17-4.57-.45,1.67-.85,3.71-1.01,6.05-.11,1.61-.09,3.08,0,4.38,1.01-.49,2.24-1,3.67-1.42Z"/>
          <path class="cls-1" d="m39.88,9.01c1.52.45,2.81.99,3.86,1.51.02-1.35-.03-2.83-.18-4.42-.22-2.29-.6-4.33-1.04-6.1-1.28,1.17-2.72,2.66-4.12,4.54-.96,1.29-1.74,2.54-2.37,3.68,1.11.13,2.43.37,3.86.79h0Z"/>
          <path class="cls-1" d="m51.39,16.29c1.04,1.19,1.83,2.35,2.43,3.35.74-1.13,1.5-2.4,2.24-3.82,1.05-2.04,1.83-3.97,2.42-5.69-1.71.29-3.73.77-5.92,1.59-1.51.56-2.84,1.19-3.98,1.81.86.71,1.84,1.62,2.82,2.75Z"/>
          <path class="cls-1" d="m57.14,28.63c.23,1.56.27,2.97.23,4.13,1.23-.55,2.56-1.21,3.95-2.01,1.99-1.15,3.69-2.35,5.12-3.48-1.59-.68-3.55-1.37-5.84-1.86-1.58-.34-3.03-.53-4.33-.63.34,1.07.67,2.36.88,3.84h0Z"/>
        </g>
        <path class="cls-1" d="m11.46,29.27h20.03v3.25H11.21c0-1.1.08-2.18.25-3.25Z"/>
        <path class="cls-1" d="m31.49,11.04v2.78h-9.4c2.8-1.6,6-2.6,9.4-2.78Z"/>
        <path class="cls-1" d="m31.49,15.12v2.21h-14.01c.81-.82,1.67-1.55,2.6-2.21h11.41Z"/>
        <path class="cls-1" d="m16.02,18.97h15.47v2.52H14.25c.52-.89,1.11-1.72,1.76-2.52Z"/>
        <path class="cls-1" d="m43.37,13.82h-9.66v-2.79c3.5.15,6.79,1.15,9.66,2.79Z"/>
        <path class="cls-1" d="m47.98,17.33h-14.26v-2.21h11.67c.92.66,1.79,1.4,2.6,2.21Z"/>
        <path class="cls-1" d="m51.2,21.49h-17.49v-2.52h15.73c.65.8,1.24,1.63,1.76,2.52Z"/>
        <path class="cls-1" d="m13.1,23.7h18.39v2.51H12.15c.27-.87.58-1.7.95-2.51Z"/>
        <path class="cls-1" d="m53.31,26.21h-19.6v-2.51h18.64c.37.81.69,1.64.95,2.51Z"/>
        <path class="cls-1" d="m54.24,32.51h-20.53v-3.25h20.29c.17,1.06.25,2.14.25,3.25Z"/>
      </g>
    </g>
  </g>
</svg>