<?xml version="1.0" encoding="UTF-8"?>
<svg id="Layer_2" data-name="Layer 2" xmlns="http://www.w3.org/2000/svg" viewBox="0 0 120.41 47.96">
  <defs>
    <style>
      .cls-1 {
        fill: #fbfcfe;
        stroke-width: 0px;
      }
    </style>
  </defs>
  <g id="Layer_1-2" data-name="Layer 1">
    <g id="Layer_1-2" data-name="Layer 1-2">
      <g>
        <g>
          <path class="cls-1" d="m105.05,3.7c-1.08,1.09-2.16,2.18-3.41,3.45,3.01.36,5.63.67,8.26.98-.01.13-.02.26-.03.39-1.39-.09-2.79-.24-4.18-.27-5.71-.15-4.14-.93-7.18,3.49-1.83,2.66-3.46,5.45-5.16,8.19-.3.48-.48,1.04-.72,1.56.08.09.17.17.25.26.78-.56,1.6-1.06,2.32-1.69,1.93-1.67,3.71-3.54,5.76-5.06,1.52-1.13,3.34-1.87,5.08-2.68.93-.43,1.9.03,2.24.85.22.51-.1,1.5-.51,1.98-1.83,2.09-4.08,3.58-6.83,4.24-.42.1-.95.31-1.13.63-.3.55-.37,1.23-.53,1.85.57-.02,1.23.12,1.71-.1,3.68-1.72,7.04-3.9,9.59-7.14.34-.43.66-.87,1.02-1.28,1.24-1.42,2.08-1.3,2.99.32-1.06,1.15-2.1,2.28-3.13,3.41l.16.18c2.37-1.76,4.74-3.51,7.14-5.29.62.68,1.02,1.11,1.44,1.57-1.23,1.5-2.43,2.97-3.63,4.43.12.15.25.29.37.44l3.29-1.72c.06.11.12.22.18.32-1.2.74-2.35,1.58-3.61,2.15-.47.21-1.43-.01-1.78-.39-.34-.38-.27-1.21-.2-1.83.05-.42.4-.81.62-1.23-1.83.26-3.92,2.37-7.89,7.99-1.16-.45-1.53-1.16-1.08-2.34.35-.93.83-1.81,1.36-2.95-1.88,1.33-3.48,2.59-5.2,3.63-1.01.61-2.21,1.08-3.38,1.26-2.01.31-2.94-.86-2.44-2.82.06-.23.14-.46.33-1.05-1.22,1.06-2.18,1.9-3.14,2.73-.35.3-.68.75-1.08.84-.65.14-1.53.28-1.98-.04-.43-.31-.54-1.21-.57-1.85-.02-.55.28-1.11.5-1.87-1.49,1.28-2.82,2.39-4.11,3.54-.73.65-1.56.77-2.31.26-.79-.53-.86-1.39-.5-2.26.27-.64.54-1.28.9-2.14-1.72,1.45-3.25,2.77-4.83,4.05-.37.3-.87.54-1.34.62-1.2.22-2.1-.73-1.76-1.9.31-1.08.8-2.11,1.34-3.48-1.12,1.04-2.03,1.9-2.96,2.73-.83.75-1.31,1.53-2.41,2.01-.52.23-1.46.64-2.08.21-.71-.49-.61-1.77-.59-1.98.03-.36.11-.65.19-.85-1.22.98-2.21,1.79-3.22,2.59-.75.59-1.62,1.16-2.5.44-.92-.74-.83-1.81-.29-2.77.94-1.68,1.93-3.33,3.1-5.33-3.55,2.36-6.66,4.66-8.48,8.36-1.24-.6-1.66-.36-.43-4.17-.85.95-1.45,1.76-2.18,2.41-2.99,2.68-6.49,4.47-10.25,5.77-2.99,1.04-6.03,1.86-9.26,1.52-2.64-.28-3.62-2.26-2.14-4.45,1.79-2.65,4.45-4.3,7.11-5.91,1.33-.8,2.76-1.44,4.16-2.11.48-.23,1.01-.34,1.55-.37-1.85,1.08-3.83,1.99-5.53,3.27-1.96,1.48-3.74,3.22-5.48,4.97-.45.45-.46,1.33-.67,2.02.78.21,1.61.69,2.34.58,1.86-.28,3.74-.66,5.52-1.28,4.43-1.55,8.59-3.61,11.98-6.98,2.62-2.6,2.11-4.65-1.47-5.67-1.98-.56-4.01-.96-6-1.5-4.01-1.09-3.53-3.71-1.72-5.73C49.66,2.17,53.75.29,58.51.02c1.2-.07,2.4,0,3.1,1.2.75,1.29.33,2.53-.34,3.68-1.22,2.12-3.07,3.53-5.36,4.36-.9.32-2.03.78-2.62-.29-.52-.96.19-1.82,1-2.56-.05.5-.04,1.13.3,1.31.3.17.74-.07,2.39-1.4,1.96-1.58,2.67-2.32,3.26-3.3.66-1.09.56-1.45.47-1.61-.12-.22-.49-.73-1.9-.49-3.31.56-6.16,2.19-8.74,4.27-.93.75-1.76,1.68-2.45,2.66-.79,1.1-.52,2.01.73,2.51,1.47.59,3.03.98,4.54,1.48,1.35.44,2.73.81,4.02,1.39,1.99.9,2.39,2.65,2.26,4.72,1.03-1.65,1.95-3.37,3.1-4.92,2.34-3.16,4.74-6.28,7.24-9.31,1.05-1.28,2.27-1.08,3.39.21-3.23,2.07-5.08,5.37-7.32,8.31-1.04,1.36-1.9,2.86-2.83,4.31-.21.32-.36.68-.33,1.17,1.57-1.23,3.12-2.49,4.71-3.68.7-.53,1.45-1.07,2.26-1.34.47-.16,1.29.04,1.64.38.49.48.36,1.13-.14,1.78-1.62,2.12-3.13,4.32-4.68,6.48.11.12.23.24.34.35.34-.17.7-.31,1.02-.52,2.38-1.57,4.34-3.55,5.88-5.96.45-.7,1.04-1.32,1.61-1.93,1.25-1.35,2.06-1.18,2.84.55-2.38,2.04-4.09,4.54-5.36,7.34.1.1.19.2.29.29.81-.61,1.68-1.14,2.4-1.83,2.26-2.13,4.48-4.33,6.7-6.5,1.36-1.33,2.32-1.14,2.97.58-2.45,2.16-4.27,4.76-5.65,7.79,2.7-.36,8.52-6.66,10.99-11.94-1.03.48-1.92.71-2.58,1.24-.64.51-.96.47-1.41-.11-.5-.64-.41-1.26.23-1.61,1.06-.57,2.22-.86,2.58-.93.57-.12,1.42-.31,2.46-.61,1.06-.84,1.75-1.64,2.2-2.22.45-.59.85-1.1,1.58-1.77,1.17-1.07,2.2-.98,3.35.18-.6.52-1.24,1.01-1.8,1.57-.56.55-1.04,1.17-1.59,1.79,1.3-.04,2.6-.07,3.9-.11.55-.72.98-1.31,1.26-1.71.74-1.06.92-1.42,1.47-1.79.29-.2.84-.57,1.61-.53.83.05,1.37.55,1.54.71v.04Zm-7.29,4.76c-.67.02-1.45.1-2.3.27-.63.13-1.19.29-1.69.45-4.1,6.4-5.69,8.84-6.22,9.62-.02.03-.21.29-.43.67-1.02,1.78-1.3,2.21-1.17,2.33.41.37,4.09-2.74,6.84-5.92,2.47-2.86,4.03-5.57,4.96-7.41h.01Zm9.49,5.01c-2.56,1.01-4.6,2.64-6.08,4.96,2.62-.91,4.52-2.73,6.08-4.96Z"/>
          <path class="cls-1" d="m18.33,27.66c-6.34-.66-10.62,3.39-15.46,6.7V10.84c-.96.01-1.91.03-2.87.04.02-2.48.04-4.96.06-7.44,6.59.04,13.17.09,19.76.13,1.94.85,3.89,1.7,5.83,2.54-5.48.97-10.02,3.4-13.45,7.63-.92,1.13-1.56,2.61-1.96,4.03-.7,2.51,1.25,4.68,4.44,5.51,2.39.62,4.79,1.3,7.08,2.21,2.78,1.11,3.28,3.02,1.58,5.51-2.18,3.18-5.27,5.37-8.49,7.36-3.3,2.04-6.77,3.74-10.59,4.59-.81.18-1.66.27-2.5.29-1.58.04-2.06-.62-1.24-2.01.87-1.47,1.89-2.88,3.06-4.13,3.03-3.25,6.51-5.93,10.58-7.77,1.36-.61,2.77-1.11,4.16-1.66h.01Z"/>
          <path class="cls-1" d="m23.93,12.79c-2.06,1.34-3.77,2.46-4.4,4.65-.32,1.11-.19,1.98.31,2.5.62.64,1.69.51,2.27.44,2.31-.29,3.97-1.92,5.57-3.55.87-.89,1.54-1.7,2.01-2.33-.03,2-.06,4-.1,6l-4.14,2.4c1.71.99,3.41,1.99,5.12,2.98-.07,3.79-.13,7.57-.2,11.36-1.33,1.78-2.65,3.56-3.98,5.34l-7.49,1.99c-1.93-.02-3.87-.03-5.8-.05,1.26-.68,2.54-1.33,3.76-2.06,3.82-2.29,7.38-4.88,9.49-8.94,2.51-4.83.48-8.61-4.4-10.25-2.22-.75-4.5-1.35-6.66-2.23-2-.82-2.37-2.02-1.09-3.77,1.38-1.89,2.77-3.23,3.95-4.18,1.94-1.57,2.94-2.37,4.53-3.23,0,0,1.79-.96,4.48-1.22.37-.04,1-.08,1.27.28.2.27.14.72-.14,1.38-.88,2.03-2.43,3.5-4.13,4.82-.14.11-.34.4-.48.35-.28-.11-.04-1.45.24-2.67h.01Z"/>
        </g>
        <g>
          <path class="cls-1" d="m64.11,25.29c.85.44,1.7.88,2.55,1.32.66.77,1.33,1.55,1.99,2.32v5.18l-1.38,1.35,1.38,1.38v6.71c-.59.75-1.18,1.5-1.76,2.25l-2.64,1.34c-4.07-.03-7.67-.05-11.74-.08v-5.65h1.45v-10.49h-1.45v-5.63s11.6,0,11.6,0Zm-11.12.45v4.73h1.44v11.39h-1.44v4.76c3.91.02,7.35.04,11.26.07.75-.41,1.49-.81,2.24-1.22.57-.68,1.14-1.35,1.71-2.03v-6.45l-1.51-1.53,1.51-1.53v-4.85c-.63-.73-1.26-1.46-1.9-2.19-.78-.38-1.57-.77-2.35-1.15h-10.97.01Zm13.09,1.58c.53.61,1.06,1.23,1.59,1.84l.07,4.58-1.7,1.71,1.7,1.75v6.03c-.53.65-1.06,1.31-1.59,1.96-.65.38-1.3.77-1.95,1.15-3.74-.07-7.02-.13-10.76-.2v-3.81h1.43v-12.33h-1.43v-3.79c3.68,0,6.83.05,10.51.04,0,0,2.13,1.07,2.13,1.07Zm-7.4,6.79h5.17c.06-.69.24-1.37.3-2.06-.06-.69-.24-1.37-.3-2.06h-5.17v4.11h0Zm5.21,3.6h-5.21v4.62h5.21c.07-.77.21-1.54.28-2.31-.07-.77-.21-1.54-.28-2.31Zm-4.75-7.24h4.31c.08.53.16,1.05.24,1.58l-.27,1.56c-1.42,0-2.85.02-4.27.02v-3.17h-.01Zm4.25,11.39h-4.25v-3.71h4.3c.09.62.18,1.25.26,1.87l-.32,1.84h.01Zm-3.81-8.67h3.47c.06-.38.12-.76.18-1.14-.06-.38-.12-.76-.18-1.14h-3.47v2.27h0Zm3.47,5.43h-3.47v2.8h3.47c.07-.46.13-.93.2-1.39-.07-.47-.13-.94-.2-1.41Z"/>
          <path class="cls-1" d="m81.55,25.22l-3.75-.81h-.11l-3.79.81-3.41,2.84v16.11l3.41,2.91,3.8.88h0s3.85-.89,3.85-.89l3.41-2.9v-16.11c-1.14-.95-2.27-1.89-3.41-2.84Zm2.96,18.76l-3.13,2.64-3.69.85h0s-3.68-.84-3.68-.84l-3.07-2.64v-15.75l3.07-2.57,3.68-.78h.01l3.68.77,3.13,2.57v15.75Z"/>
          <path class="cls-1" d="m81.21,26.11l-3.51-.74-3.46.74-2.84,2.31v15.39l2.84,2.32,3.46.81,3.51-.81,2.85-2.32v-15.39l-2.85-2.31Zm-.9,16.18l-2.61.51-2.56-.51v-12.34l2.56-.44,2.61.44v12.34Z"/>
          <path class="cls-1" d="m77.69,29.98l-2.11.41v11.46l2.11.47,2.15-.47v-11.46l-2.15-.41Zm1.75,11.42l-1.75.45-1.65-.45v-10.56l1.65-.38,1.75.38v10.56Z"/>
          <path class="cls-1" d="m96.46,26.18v3.82h1.19l-2.46,4.27-2.44-4.27h1.19v-3.82h-6.59v3.82h1.19l4.77,9.03v3.27h-1.93v3.82h7.61v-3.82h-1.93v-3.27l4.79-9.03h1.19v-3.82h-6.59,0Zm0,0v3.82h1.19l-2.46,4.27-2.44-4.27h1.19v-3.82h-6.59v3.82h1.19l4.77,9.03v3.27h-1.93v3.82h7.61v-3.82h-1.93v-3.27l4.79-9.03h1.19v-3.82h-6.59,0Zm-.85-.89v5.59h.57l-.99,1.33-.96-1.33h.63v-5.59h-8.41v5.59h1.53l4.37,8.36v2.16h-1.87v5.65h9.43v-5.65h-1.87v-2.16l4.4-8.36h1.59v-5.59h-8.42Zm7.9,5.15h-1.36l-4.62,8.7v2.71h1.93v4.76h-8.52v-4.76h1.87v-2.71l-4.54-8.7h-1.36v-4.71h7.5v4.71h-.97l1.76,2.77,1.73-2.77h-.85v-4.71h7.44v4.71h-.01Zm-8.31,3.82l-2.44-4.27h1.19v-3.82h-6.59v3.82h1.19l4.77,9.03v3.27h-1.93v3.82h7.61v-3.82h-1.93v-3.27l4.79-9.03h1.19v-3.82h-6.59v3.82h1.19l-2.46,4.27h0Zm1.27-8.09v3.82h1.19l-2.46,4.27-2.44-4.27h1.19v-3.82h-6.59v3.82h1.19l4.77,9.03v3.27h-1.93v3.82h7.61v-3.82h-1.93v-3.27l4.79-9.03h1.19v-3.82h-6.59,0Zm0,0v3.82h1.19l-2.46,4.27-2.44-4.27h1.19v-3.82h-6.59v3.82h1.19l4.77,9.03v3.27h-1.93v3.82h7.61v-3.82h-1.93v-3.27l4.79-9.03h1.19v-3.82h-6.59,0Z"/>
          <path class="cls-1" d="m112.85,29.68l2.46.33v2.32h3.74v-3.27l-2.85-2.88-3.35-.54h0s-3.64.54-3.64.54l-2.83,2.88v5.87c.74.72,1.48,1.44,2.16,2.22,2.27.72,4.54,1.44,6.76,2.16v2.99l-2.45.49-2.72-.49v-2.32h-3.75v3.26l2.85,2.88,3.62.6,3.36-.6,2.84-2.88v-6.32c-.74-.55-1.48-1.05-2.22-1.55-2.22-.72-4.43-1.44-6.65-2.16,0-1.11,0-2.16-.06-3.21l2.73-.32Z"/>
          <path class="cls-1" d="m119.93,36.57c-.87-.65-1.74-1.3-2.61-1.94-.98-.34-1.93-.67-2.91-1-1.08-.34-2.1-.67-3.12-1v-1.66l1.55-.29,1.59.22v2.27c1.84.01,3.68.03,5.51.05v-4.49h.02l-3.41-3.43-3.69-.6-3.99.6-3.41,3.43v6.54c.79.94,1.64,1.82,2.44,2.71,2.16.66,4.37,1.33,6.53,1.99v1.44l-1.59.34-1.82-.33c-.06-.72-.06-1.44-.06-2.22-1.82,0-3.69,0-5.51-.06v4.43l3.41,3.49,3.98.65h0s3.69-.64,3.69-.64l3.41-3.49c0-2.32,0-4.69-.01-7.01Zm-7.09-6.42l-2.11.32v2.49c2.16.72,4.32,1.38,6.48,2.1.74.55,1.53,1.11,2.27,1.66v6.7l-3.12,3.21-3.52.62h0s-3.8-.63-3.8-.63l-3.13-3.21v-3.88h4.67v2.33h-.01s2.27.36,2.27.36l1.99-.36v-2.27h.01c-2.15-.73-4.36-1.39-6.52-2.11-.81-.77-1.59-1.55-2.39-2.38v-6.2l3.12-3.16,3.81-.57,3.51.57,3.13,3.16v3.88h-4.67v-2.33l-1.99-.3Z"/>
        </g>
      </g>
    </g>
  </g>
</svg>