<svg width="1133" height="1121" viewBox="0 0 1133 1121" fill="none" xmlns="http://www.w3.org/2000/svg">
<path d="M566.651 961.033C539.707 960.895 515.941 957.994 496.32 954.402C502.4 976.643 510.138 1000.68 520.086 1025.96C534.318 1062.43 550.346 1094.06 565.822 1121C581.297 1095.86 597.878 1064.64 612.11 1027.2C621.92 1001.51 628.69 977.472 633.665 955.784C614.735 958.823 592.213 961.033 566.651 960.895V961.033Z" fill="#FFB621"/>
<path d="M343.777 895.832C321.255 881.051 302.74 865.855 288.232 852.18C281.323 874.144 274.829 898.595 269.578 925.255C261.84 963.658 258.11 999.022 256.59 1029.96C283.257 1017.26 314.07 999.851 346.126 976.091C368.234 959.79 387.026 943.214 402.915 927.742C385.367 920.144 365.194 909.784 343.777 895.832Z" fill="#FFB621"/>
<path d="M191.647 720.534C180.593 695.945 173.408 673.152 168.434 653.812C150.748 668.593 132.094 685.584 113.164 705.2C85.9443 733.381 63.6984 761.009 45.5977 786.288C74.8904 790.018 110.263 792.09 150.195 789.327C177.553 787.531 202.424 783.801 224.118 779.381C213.478 763.495 202.01 743.879 191.647 720.534Z" fill="#FFB621"/>
<path d="M158.347 490.671C162.354 464.01 168.572 440.941 174.928 422.016C151.991 424.917 127.12 429.199 100.59 435.415C62.4544 444.394 28.7401 455.583 0 467.049C22.6604 485.974 51.2623 506.833 86.2202 526.173C110.262 539.434 133.061 549.794 153.787 557.668C153.511 538.605 154.478 515.812 158.209 490.671H158.347Z" fill="#FFB621"/>
<path d="M254.654 279.455C272.478 259.148 290.164 243.124 305.778 230.692C285.052 220.746 261.701 210.938 236.138 201.821C199.246 188.697 164.841 179.995 134.305 174.055C143.148 202.235 155.998 235.25 174.928 270.476C187.916 294.65 201.733 315.647 214.722 333.467C224.808 317.167 237.935 298.656 254.654 279.455Z" fill="#FFB621"/>
<path d="M449.756 153.749C475.733 146.289 499.222 142.422 519.119 140.349C506.96 120.734 492.728 99.8747 476.147 78.325C452.105 47.3818 427.925 21.4116 405.541 0C397.665 28.4567 390.618 63.1296 387.578 103.052C385.506 130.403 385.644 155.545 386.887 177.647C404.159 169.359 425.161 160.932 449.756 153.887V153.749Z" fill="#FFB621"/>
<path d="M682.025 153.61C707.864 161.346 729.833 170.877 747.658 179.856C748.072 156.787 747.381 131.508 745.032 104.432C741.578 65.4771 735.222 30.5279 728.037 0.275391C706.068 20.0293 681.335 45.3088 657.292 77.219C640.712 99.1831 627.309 120.318 616.531 139.658C635.461 142.006 657.845 146.289 682.302 153.61H682.025Z" fill="#FFB621"/>
<path d="M877.541 278.903C895.089 299.347 908.492 319.239 918.578 336.368C931.429 317.167 944.555 295.617 957.129 271.443C975.368 236.77 988.909 203.893 999.133 174.607C969.979 179.304 935.436 187.316 897.991 201.13C872.152 210.524 849.492 221.16 829.871 231.521C844.517 243.815 860.96 259.425 877.541 278.764V278.903Z" fill="#FFB621"/>
<path d="M974.123 489.979C977.854 516.64 978.268 540.538 977.577 560.43C998.718 551.175 1021.38 540.124 1045.14 526.724C1079.27 507.385 1108.43 487.079 1132.75 468.015C1105.66 456.273 1072.36 444.255 1033.26 435.553C1006.46 429.613 981.584 426.159 959.477 424.363C965.142 442.598 970.669 464.7 974.123 489.979Z" fill="#FFB621"/>
<path d="M941.238 719.843C929.908 744.294 917.472 764.738 906.004 781.039C928.803 784.769 953.812 787.669 981.032 789.189C1020.14 791.261 1055.65 790.018 1086.6 787.117C1070.15 762.528 1048.6 734.486 1020.55 706.167C1001.21 686.69 982.137 670.389 964.589 656.852C959.477 675.362 952.154 696.774 941.376 719.843H941.238Z" fill="#FFB621"/>
<path d="M789.383 895.42C766.584 909.787 745.168 920.285 726.652 927.883C743.786 943.354 763.268 959.379 785.376 975.265C817.156 998.196 847.692 1016.29 875.189 1030.52C874.636 1000.96 871.596 965.733 863.306 926.64C857.641 899.841 850.456 875.804 842.856 854.945C828.624 867.792 810.8 881.882 789.245 895.42H789.383Z" fill="#FFB621"/>
<path d="M200.629 536.673H931.842C930.875 509.735 927.144 483.489 920.65 458.348H211.821C205.465 483.489 201.596 509.735 200.767 536.673H200.629Z" fill="#FFB621"/>
<path d="M566.235 914.758C638.914 914.758 706.757 893.623 763.685 857.016H368.785C425.713 893.623 493.556 914.758 566.235 914.758Z" fill="#FFB621"/>
<path d="M566.236 183.172C493.695 183.172 425.99 204.307 369.062 240.776H763.409C706.482 204.307 638.915 183.172 566.236 183.172Z" fill="#FFB621"/>
<path d="M288.644 787.115H843.963C862.478 765.566 878.644 741.806 891.771 716.25H240.836C253.962 741.806 270.129 765.566 288.644 787.115Z" fill="#FFB621"/>
<path d="M787.726 257.906H344.881C319.457 277.246 296.796 299.762 277.176 324.904H855.293C835.811 299.762 813.012 277.246 787.588 257.906H787.726Z" fill="#FFB621"/>
<path d="M259.352 349.77C244.844 372.148 232.685 396.046 223.289 421.326H909.182C899.786 396.046 887.627 372.01 873.118 349.77H259.352Z" fill="#FFB621"/>
<path d="M229.506 658.507H927.834C935.434 634.471 940.546 609.33 942.895 583.359H214.445C216.794 609.33 222.045 634.471 229.506 658.507Z" fill="#FFB621"/>
</svg>
