<svg width="187" height="33" viewBox="0 0 187 33" fill="none" xmlns="http://www.w3.org/2000/svg">
<path d="M16.4688 0.167969L20.061 11.2237H31.6857L22.2811 18.0565L25.8733 29.1122L16.4688 22.2794L7.06419 29.1122L10.6564 18.0565L1.25185 11.2237H12.8765L16.4688 0.167969Z" fill="#FFB621"/>
<path d="M93.2695 0.167969L96.8618 11.2237H108.486L99.0819 18.0565L102.674 29.1122L93.2695 22.2794L83.865 29.1122L87.4572 18.0565L78.0526 11.2237H89.6773L93.2695 0.167969Z" fill="#FFB621"/>
<path d="M54.8672 0.167969L58.4594 11.2237H70.0841L60.6795 18.0565L64.2718 29.1122L54.8672 22.2794L45.4626 29.1122L49.0548 18.0565L39.6503 11.2237H51.275L54.8672 0.167969Z" fill="#FFB621"/>
<path d="M131.668 0.167969L135.26 11.2237H146.885L137.48 18.0565L141.073 29.1122L131.668 22.2794L122.263 29.1122L125.856 18.0565L116.451 11.2237H128.076L131.668 0.167969Z" fill="#FFB621"/>
<path d="M170.07 0.167969L173.663 11.2237H185.287L175.883 18.0565L179.475 29.1122L170.07 22.2794L160.666 29.1122L164.258 18.0565L154.853 11.2237H166.478L170.07 0.167969Z" fill="#FFB621"/>
</svg>
