<svg width="103" height="92" viewBox="0 0 103 92" fill="none" xmlns="http://www.w3.org/2000/svg">
<path d="M24.1883 60.1511C25.7047 59.9194 27.1417 59.6331 28.5945 59.4915C35.7728 58.7997 42.7636 59.6105 49.4587 62.4226C52.2022 63.5745 54.8472 64.9677 57.6162 66.0423C61.2657 67.4612 63.3226 69.9515 63.4116 74.1568C66.8577 73.4554 70.2625 72.9374 73.5687 72.0461C78.652 70.6755 83.6877 69.1118 88.701 67.503C93.2821 66.0326 97.4784 69.0346 97.1319 73.7224C96.9603 76.0551 95.7045 77.725 93.7303 78.9187C86.5997 83.2236 78.9699 86.2867 70.9301 88.3234C63.9298 90.093 56.8278 90.9939 49.6081 90.6978C42.0769 90.389 34.87 88.7609 28.1176 85.2314C26.9827 84.6393 25.5903 84.5557 24.2614 84.2243C24.1057 85.3407 24.0643 86.1419 23.8704 86.9044C23.1329 89.8484 20.6468 91.9076 17.6681 91.9527C13.9422 92.0106 10.21 92.017 6.48411 91.9527C2.91084 91.8915 0.0560406 89.0215 0.0369662 85.4083C-0.0138988 77.0557 -0.0107197 68.7031 0.0369662 60.3506C0.0560406 56.821 2.74553 53.951 6.2425 53.8255C10.0447 53.6904 13.8564 53.7033 17.6617 53.8062C21.146 53.9027 23.349 56.1067 24.1851 60.1479L24.1883 60.1511ZM24.112 80.8234C27.2593 80.4084 29.7294 81.9302 32.3204 83.1239C37.2066 85.3729 42.3821 86.483 47.7166 86.8723C58.0453 87.6284 68.0022 85.8105 77.7237 82.4032C82.6767 80.6657 87.4199 78.4553 91.9087 75.7044C93.1994 74.9129 93.7113 73.8865 93.4474 72.7443C93.05 71.0197 91.648 70.3634 89.7056 71.0937C81.0554 74.3434 72.1222 76.4283 63.0365 77.9341C62.3625 78.0467 61.6568 78.4586 61.1322 78.9219C59.1962 80.6336 56.9931 81.7146 54.488 80.8878C51.6777 79.9611 48.985 78.658 46.2828 77.4225C45.399 77.0203 45.0907 76.1452 45.4817 75.1735C45.8695 74.2115 46.6261 73.8833 47.6021 74.086C47.9455 74.1568 48.2729 74.3209 48.6003 74.4657C50.5936 75.3505 52.5615 76.3061 54.5865 77.1137C56.5258 77.8858 58.5476 76.9689 59.3074 75.1124C60.1626 73.0307 59.46 70.9811 57.4858 70.0738C54.205 68.5648 50.937 67.0204 47.5958 65.6626C40.2044 62.6607 32.5651 62.3583 24.8082 63.8094C24.5412 63.8576 24.1438 64.2855 24.1438 64.5397C24.1057 69.8775 24.1152 75.2153 24.1152 80.8266L24.112 80.8234ZM3.64202 72.8344C3.64202 76.8498 3.62931 80.8652 3.6452 84.8806C3.65474 87.0106 4.87868 88.288 6.94825 88.3008C10.3594 88.3266 13.7705 88.3266 17.1785 88.3008C19.1908 88.2847 20.4338 87.0235 20.4783 84.99C20.507 83.6837 20.4847 82.3774 20.4847 81.0711C20.4847 74.3273 20.4974 67.5803 20.4783 60.8364C20.472 58.7129 19.2226 57.4774 17.1371 57.4709C13.8055 57.4581 10.4738 57.4645 7.14217 57.4709C4.82464 57.4741 3.6452 58.671 3.64202 61.0327C3.63249 64.9677 3.64202 68.9026 3.64202 72.8376V72.8344Z" fill="#182D38"/>
<path d="M66.908 62.2965C66.7202 62.2965 66.5292 62.2615 66.3414 62.1915L61.0091 60.1573L55.505 58.1708C54.7218 57.8875 54.2889 57.0534 54.5117 56.2512L56.043 50.6865C55.5845 50.3109 55.1357 49.9193 54.7027 49.5182C54.2507 49.1012 53.8114 48.665 53.3848 48.2194L47.9507 50.1613C47.1675 50.4414 46.3016 50.0721 45.961 49.3145L43.6275 44.1064L41.1381 38.8091C40.7847 38.0578 41.0712 37.1601 41.7907 36.7494L46.8078 33.8971C46.7505 33.3081 46.7091 32.7128 46.6868 32.1239C46.6614 31.5095 46.6582 30.8919 46.6709 30.2743L41.4533 27.8072C40.702 27.4506 40.3518 26.5784 40.6479 25.8016L42.6789 20.4693L44.6653 14.962C44.9487 14.1789 45.7827 13.7491 46.585 13.9688L52.1496 15.5C52.5253 15.0416 52.9168 14.5927 53.3179 14.1598C53.735 13.7077 54.1679 13.2684 54.6168 12.8418L52.6749 7.40769C52.3947 6.62456 52.764 5.75867 53.5217 5.41804L58.7298 3.08458L64.027 0.595131C64.7783 0.24177 65.676 0.525096 66.0867 1.24774L68.9391 6.26483C69.528 6.20753 70.1233 6.16615 70.7122 6.14386C71.3266 6.12158 71.9442 6.11521 72.5618 6.12795L75.029 0.910291C75.3855 0.159 76.2578 -0.191178 77.0345 0.104882L82.3668 2.13592L87.8742 4.12238C88.6573 4.40571 89.0902 5.23977 88.8674 6.04199L87.3362 11.6066C87.7946 11.9823 88.2434 12.3739 88.6764 12.775C89.1284 13.192 89.5677 13.6249 89.9943 14.0738L95.4284 12.1319C96.2116 11.8518 97.0775 12.221 97.4181 12.9787L99.7516 18.1868L102.241 23.4841C102.594 24.2353 102.308 25.1331 101.588 25.5437L96.5713 28.3961C96.6286 28.9882 96.67 29.5803 96.6923 30.1693C96.7177 30.7837 96.7209 31.4013 96.7082 32.0188L101.926 34.486C102.677 34.8426 103.027 35.7148 102.731 36.4916L100.7 41.8238L98.7138 47.3312C98.4304 48.1143 97.5964 48.5473 96.7941 48.3244L91.2295 46.7932C90.8538 47.2516 90.4623 47.7005 90.0612 48.1334C89.6441 48.5855 89.2112 49.0248 88.7623 49.4514L90.7042 54.8855C90.9844 55.6686 90.6151 56.5345 89.8574 56.8751L84.6366 59.215L79.3521 61.6949C78.6008 62.0482 77.7031 61.7649 77.2924 61.0423L74.44 56.0252C73.8511 56.0825 73.2558 56.1238 72.6669 56.1461C72.0525 56.1716 71.4349 56.1748 70.8173 56.162L68.3501 61.3797C68.0795 61.9495 67.5097 62.2902 66.9112 62.2902L66.908 62.2965ZM57.9689 55.6782L62.117 57.1744L66.0994 58.6929L68.3883 53.854C68.6653 53.2683 69.2733 52.9086 69.9196 52.9468C70.7886 52.9977 71.6705 53.0073 72.5427 52.9722C73.3927 52.9404 74.249 52.864 75.0895 52.7526C75.7325 52.6666 76.3628 52.9786 76.6844 53.5421L79.3298 58.1931L83.325 56.3148L87.2088 54.5735L85.407 49.5341C85.1873 48.9229 85.3624 48.2416 85.8463 47.8087C86.4957 47.2293 87.126 46.6117 87.7182 45.9719C88.2944 45.3479 88.8483 44.6921 89.364 44.014C89.7587 43.4983 90.4241 43.2723 91.0512 43.4442L96.2116 44.864L97.7078 40.716L99.2263 36.7335L94.3875 34.4446C93.8017 34.1677 93.442 33.5628 93.4802 32.9134C93.5311 32.0443 93.5407 31.1593 93.5057 30.2902C93.4738 29.4434 93.3974 28.5839 93.286 27.7435C93.2 27.1004 93.512 26.4701 94.0755 26.1486L98.7265 23.5032L96.8514 19.5111L95.1069 15.621L90.0675 17.4228C89.4563 17.6424 88.7751 17.4674 88.3421 16.9835C87.7627 16.334 87.1451 15.7037 86.5053 15.1116C85.8813 14.5354 85.2255 13.9815 84.5475 13.4658C84.0317 13.071 83.8057 12.4057 83.9776 11.7785L85.3974 6.6182L81.2494 5.12198L77.2669 3.60348L74.978 8.44231C74.7011 9.02806 74.0962 9.39097 73.4468 9.34959C72.5777 9.29865 71.6959 9.2891 70.8237 9.32412C69.9737 9.35595 69.1173 9.43235 68.2769 9.54377C67.6339 9.62973 67.0035 9.31775 66.682 8.75428L64.0366 4.10328L60.0445 5.97832L56.1544 7.72285L57.9562 12.7622C58.1759 13.3735 58.0008 14.0547 57.5169 14.4877C56.8643 15.067 56.2371 15.6846 55.645 16.3245C55.0688 16.9485 54.5149 17.6074 53.9992 18.2823C53.6044 18.798 52.9359 19.0241 52.312 18.8521L47.1516 17.4323L45.6554 21.5804L44.1369 25.5628L48.9757 27.8517C49.5615 28.1287 49.9212 28.7367 49.883 29.383C49.8321 30.252 49.8225 31.1339 49.8575 32.0061C49.8894 32.8561 49.9658 33.7124 50.0772 34.5529C50.1631 35.1959 49.8512 35.8262 49.2877 36.1478L44.6367 38.7932L46.5117 42.7852L48.2531 46.6754L53.2925 44.8736C53.9037 44.6539 54.5849 44.829 55.0179 45.3129C55.5973 45.9623 56.2149 46.5926 56.8547 47.1847C57.4787 47.7609 58.1377 48.3149 58.8125 48.8306C59.3283 49.2253 59.5543 49.8907 59.3824 50.5178L57.9626 55.6782H57.9689Z" fill="#182D38"/>
<circle cx="71.418" cy="30" r="10.5" stroke="#182D38" stroke-width="3"/>
</svg>
