<svg width="53" height="53" viewBox="0 0 53 53" fill="none" xmlns="http://www.w3.org/2000/svg">
<g clip-path="url(#clip0_1232_231)">
<path fill-rule="evenodd" clip-rule="evenodd" d="M26 51.9983H26.9142L26.6207 40.3193L27.4606 39.6238C31.2553 40.0595 34.6557 40.4535 38.4451 40.8997L37.485 37.7063C37.3294 37.145 37.5486 36.5332 37.9783 36.1915L49 27.1604L46.7154 26.0761C45.7145 25.7136 45.9957 25.147 46.3529 23.7787L48.0327 17.6063L41.6369 18.9642C41.0092 19.06 40.5954 18.6591 40.5034 18.2791L39.6759 15.375L34.6151 21.0943C33.8954 22.0112 32.4401 22.0112 32.8945 19.8915L35.0571 8.30665L32.1589 9.82492C31.342 10.2816 30.5321 10.3566 30.0706 9.53905L26 2L21.9277 9.5373C21.475 10.3548 20.658 10.2816 19.8464 9.82492L16.9482 8.30665L19.1108 19.8898C19.5599 22.0094 18.1029 22.0094 17.3849 21.0943L12.3241 15.375L11.5001 18.2791C11.4029 18.6591 10.9944 19.06 10.3666 18.9659L3.96548 17.608L5.64534 23.7787C6.00784 25.1488 6.289 25.7171 5.28815 26.0796L3 27.1621L14.0199 36.1915C14.4567 36.5332 14.6795 37.1468 14.5256 37.7081L13.5584 40.9015C17.3478 40.4552 20.7482 40.063 24.5429 39.6255L25.3829 40.321L25.0911 52H26V51.9983Z" stroke="#FBFCFE" stroke-width="2"/>
</g>
<defs>
<clipPath id="clip0_1232_231">
<rect width="53" height="53" fill="white"/>
</clipPath>
</defs>
</svg>
