<svg width="108" height="97" viewBox="0 0 108 97" fill="none" xmlns="http://www.w3.org/2000/svg">
<path d="M94.6201 49.7331C94.7253 50.0679 95.2335 50.5095 95.5286 50.4864C95.8265 50.446 96.1215 49.9437 96.3552 49.6089C96.4808 49.4415 96.4808 49.1904 96.4808 48.9826C96.4603 47.7271 95.254 46.2205 93.6445 45.9492C93.9629 47.2249 94.2375 48.5006 94.6201 49.7331Z" fill="#182D38"/>
<path d="M105.84 36.4768C104.849 35.4447 103.451 34.8756 101.905 34.8756C101.826 34.8756 101.749 34.8785 101.675 34.8815C100.269 34.9287 98.8293 35.0938 97.3959 35.368C95.3313 35.7485 92.3495 36.5388 89.987 38.9834C89.0874 39.0807 88.2469 39.2606 87.4712 39.5201C84.4156 33.3982 80.3277 28.5325 76.6852 26.7219C76.641 26.7012 76.5968 26.6806 76.5525 26.66C79.4016 20.6471 79.2542 14.6019 75.5202 8.83681C71.5651 2.7267 65.7754 -0.201557 59.6407 0.010764C47.908 0.927871 39.9476 10.7624 41.4282 21.234C41.3103 21.231 41.1923 21.2281 41.0714 21.2281C39.4964 21.2281 37.6678 21.523 36.0544 22.0331C35.3436 22.2572 34.7774 22.4489 34.1137 22.676L34.0223 22.7084C33.2673 22.965 32.4857 23.2304 31.3089 23.5872C31.1614 23.6344 30.9697 23.6639 30.8104 23.6639H30.8016C30.25 23.6255 29.669 23.5548 29.0437 23.481C28.0144 23.3572 26.9467 23.2274 25.7729 23.2127C25.5369 23.2097 25.301 23.2068 25.065 23.2068C19.3461 23.2068 14.4944 24.1681 10.2325 26.1439C7.32443 27.5063 5.60788 29.255 4.98556 31.4902C4.36324 33.7226 4.92362 36.0994 6.69326 38.7504C6.94101 39.1397 7.28313 39.6705 7.74029 40.1954L7.81697 40.2809L8.68115 41.2187C9.31526 41.9087 10.0821 42.7462 10.8725 43.5719C10.439 44.8252 10.0585 46.0313 9.74883 47.0339C7.50434 47.5706 5.64327 48.3845 4.0801 49.5139C1.83561 51.1122 0.520182 53.3475 0.272433 55.9926C0.14266 57.4317 -0.0048097 59.0624 0.0718745 60.7522C0.298978 65.3111 1.37551 69.0828 3.36339 72.2853C5.43977 75.5851 8.50418 77.5048 12.2352 77.8322C13.0934 77.9029 13.9547 77.956 14.7156 78.0032L14.8041 78.0091C15.6476 78.0592 16.4498 78.1094 17.2403 78.1772C18.0101 78.8141 18.7946 79.4836 19.5349 80.1205L19.6234 80.1942C20.2723 80.7516 20.9418 81.3237 21.6172 81.8899C20.9919 84.4849 20.402 87.0947 19.8298 89.6219L19.7591 89.9433C19.2016 92.3525 19.9537 93.9508 20.6852 94.8679C21.4078 95.7762 22.7822 96.8614 25.2095 96.8614C30.7426 96.8614 36.4644 96.8614 42.0918 96.882C44.705 96.882 46.7725 95.4135 47.6161 92.9688C47.7871 92.4941 47.97 92.0223 48.1617 91.5239C48.1617 91.5239 48.4094 90.8722 48.4773 90.6982C49.3857 90.6805 50.2882 90.6451 51.1612 90.6097C51.1612 90.6097 51.5328 90.595 51.6833 90.5891C51.7069 90.8781 51.7393 91.1848 51.7894 91.5003C52.279 94.5082 54.2138 96.6491 56.7208 96.9617C56.942 96.9882 57.1573 97 57.3667 97C57.8888 97 58.3518 96.9204 58.6674 96.8673C58.6674 96.8673 58.806 96.8437 58.8237 96.8378H61.0269C62.422 96.8378 63.8554 96.8614 65.2416 96.885H65.4717C67.0968 96.9174 68.5626 96.9381 70.0344 96.9381C70.7452 96.9381 71.3999 96.9381 72.0223 96.9233C74.1694 96.8909 75.7503 96.8408 76.7236 96.7759C77.1837 96.7464 77.5553 96.7051 77.8768 96.655C77.9476 96.6402 78.0184 96.6284 78.0862 96.6107C79.3308 96.5164 80.1921 95.9856 80.6994 95.5521C81.7464 94.6527 82.2773 93.367 82.2773 91.7244V91.6183L82.2714 91.5033C82.1859 90.1025 81.6874 88.5042 81.2067 86.959L81.189 86.903C81.0327 86.3928 80.8321 85.7411 80.7053 85.2575C80.8291 85.1218 80.9619 84.9803 81.0562 84.8771C81.7995 84.0838 83.0471 82.7539 84.5749 80.613C86.0496 78.5281 87.3031 76.4816 88.2999 74.5235C89.3706 72.3915 90.8128 68.9648 91.6151 64.742L91.6239 64.6919C92.0781 62.1263 92.2374 59.4487 92.1017 56.7092C93.016 57.1633 94.0247 57.3993 95.0806 57.3993C95.5378 57.3993 96.0038 57.355 96.4668 57.2695L96.5022 57.2607C99.5784 56.6561 101.699 54.7777 102.472 51.9674L102.478 51.932C103.091 49.6201 102.932 47.3789 102.023 45.3648C103.787 45.3294 104.935 44.6423 105.589 44.0643C106.648 43.1295 107.241 41.7819 107.259 40.2898C107.303 38.8301 106.799 37.4765 105.84 36.4768ZM45.3509 12.405C47.268 7.89612 51.1937 4.61104 56.1221 3.39315C57.3874 3.08057 58.6822 2.92133 59.974 2.92133C65.4569 2.92133 70.3942 5.66675 73.1814 10.2611C74.7062 12.7824 75.5114 15.6783 75.5114 18.6389C75.5114 20.1134 75.2961 22.2012 74.3877 24.4748C73.494 26.713 72.3968 27.9575 70.6124 29.9804C70.2438 30.3992 69.7512 30.9241 68.9637 31.157C68.0789 31.4195 67.2442 31.1895 66.4361 30.9565C65.2593 30.6174 64.4453 30.1426 64.289 30.0541C61.5136 28.4647 55.9481 27.9929 53.1078 29.0368C52.7893 29.1547 51.8396 29.5351 50.6215 29.4142C50.3737 29.3906 49.6983 29.3022 48.9285 28.9277C47.8255 28.391 47.2208 27.5948 46.7194 26.9312C45.9909 25.9699 45.6695 25.1413 45.2388 24.0325C44.9763 23.3631 44.5811 22.3251 44.3363 20.889C44.2537 20.3935 44.0679 19.096 44.1712 17.4093C44.2773 15.6901 44.6785 13.9915 45.3539 12.405H45.3509ZM101.737 41.7023C100.006 41.6404 98.3397 41.8114 96.7352 42.4513C96.222 42.643 95.7531 42.9644 95.175 43.2622C96.0097 43.9051 96.7588 44.374 97.3782 44.9932C99.0446 46.683 99.5342 48.7324 98.9384 50.9972C98.5107 52.5572 97.3133 53.3711 95.7943 53.6689C94.299 53.9461 93.1458 53.3711 92.3111 52.1089C91.2434 50.4635 90.8364 48.6056 90.7303 46.6594C90.7096 46.3409 90.7096 46.0401 90.689 45.6567C89.3853 45.7629 88.53 46.3822 88.0375 47.5146C87.6953 48.3285 87.5774 49.163 87.5774 50.0034C87.5774 50.2718 87.5891 50.5372 87.6098 50.8055C87.6098 50.891 87.6334 50.9559 87.654 51.0414C89.1081 57.644 88.2528 62.7279 88.0168 64.052C87.7809 65.2935 87.0553 68.838 85.0261 72.878C83.7225 75.4406 82.2036 77.6228 81.5842 78.4986C78.3369 83.0488 76.7531 83.2611 76.9477 85.1012C77.0952 86.6376 78.508 89.9492 78.6142 91.7244C78.6142 92.0223 78.6142 92.5147 78.3133 92.7713C78.0154 93.0278 77.5878 92.963 77.3754 92.9423C77.4432 92.9571 77.517 92.9924 77.3076 93.0337C77.1837 93.0573 76.9595 93.0868 76.5732 93.1134C75.8152 93.1694 74.4319 93.2254 71.9662 93.2608C68.3119 93.3257 64.6812 93.1753 61.0269 93.1753H58.7176C58.225 93.1753 57.6499 93.3905 57.178 93.3257C56.0896 93.1989 55.5558 91.8306 55.4054 90.9105C55.2137 89.7162 55.3847 88.2418 54.8067 87.1507C54.379 86.3397 53.2051 86.8735 52.4973 86.8941C50.6185 86.959 48.7368 87.0652 46.8581 87.0445C46.1738 87.0445 45.8317 87.1713 45.6164 87.8348C45.1681 89.1589 44.6342 90.4417 44.1653 91.7451C43.8231 92.7506 43.1802 93.2195 42.0918 93.2195C36.4703 93.1989 30.8281 93.1989 25.2095 93.1989C23.6257 93.1989 22.965 92.3437 23.3278 90.7631C24.0327 87.6432 24.7376 84.5232 25.5074 81.4033C25.6785 80.7191 25.5487 80.3564 24.9736 79.9082C23.0506 78.3482 21.1895 76.6821 19.2665 75.1015C18.9244 74.8213 18.4112 74.609 17.9629 74.5648C16.1696 74.3938 14.3528 74.3318 12.536 74.1814C9.86385 73.9455 7.87596 72.5802 6.46615 70.3361C4.60804 67.3429 3.90018 64.0107 3.72912 60.5693C3.66718 59.1597 3.79401 57.7295 3.92378 56.317C4.07125 54.6951 4.88528 53.433 6.20956 52.4923C7.89661 51.2744 9.84321 50.6994 11.8517 50.3366C12.5154 50.2069 12.7071 49.9091 12.8781 49.3311C13.4769 47.3435 14.0962 45.3796 14.8011 43.4539C15.0135 42.8582 14.9722 42.5162 14.5239 42.065C13.1347 40.6761 11.8311 39.2252 10.5039 37.792C10.2266 37.4736 9.99362 37.1079 9.75767 36.7452C7.46895 33.3274 8.04703 31.213 11.7869 29.4585C16.2109 27.409 20.9329 26.8103 25.7434 26.8752C27.3891 26.8959 29.0113 27.2173 30.6364 27.3235C31.2145 27.3441 31.8339 27.2586 32.3883 27.0875C34.6328 26.4034 35.5737 26.02 37.1546 25.5276C38.6145 25.0646 40.7056 24.7107 42.3219 24.9879C42.3366 25.0322 42.3514 25.0793 42.3661 25.1236C42.3691 25.1295 42.372 25.1324 42.372 25.1383C42.372 25.5836 42.8262 26.2707 43.0209 26.6688C43.2598 27.1554 43.5193 27.636 43.7877 28.1079C44.6667 29.656 47.9346 32.4457 51.8779 32.195C52.1994 32.1744 52.0077 32.1655 52.9574 32.0505C55.8507 31.6937 57.9891 31.4313 60.1421 31.7999C61.6198 32.0535 63.0797 32.5342 65.9052 33.7285C67.4478 34.3802 69.064 34.4273 70.6213 33.7226C71.5002 33.3657 72.2789 32.8055 72.9543 32.1478C73.1489 31.9591 74.8212 29.8919 74.8094 29.886C78.0154 31.2986 82.9085 37.217 85.9021 45.0375C86.9255 43.4982 88.5949 42.7079 90.9662 42.5781C91.5443 42.5368 91.9071 42.3451 92.2905 41.8969C93.7858 40.1217 95.8592 39.3726 98.0624 38.9686C99.3012 38.7327 100.561 38.5823 101.802 38.5411C102.955 38.4968 103.64 39.1603 103.595 40.2072C103.595 41.2128 102.976 41.7465 101.737 41.7023Z" fill="#182D38"/>
<path d="M26.6801 46.5158C25.0366 46.5362 23.2884 48.328 23.3088 49.9715C23.3291 51.6586 25.0366 53.3457 26.7441 53.3224C28.4515 53.302 30.1386 51.5946 30.1154 49.9104C30.095 48.2669 28.3032 46.4954 26.6801 46.5158Z" fill="#182D38"/>
<path d="M54.0282 16.1925C54.6351 16.6936 55.368 17.0494 56.1409 17.429C56.5675 17.6365 57.0083 17.85 57.4492 18.1021C58.1535 18.5409 58.4827 18.9294 58.5142 19.3653C58.58 20.2756 58.5714 21.2007 58.5629 22.0992C58.56 22.3957 58.5571 22.6952 58.5571 22.9947C58.5571 23.2289 58.5972 23.475 58.5543 23.7063C58.5285 23.8368 58.4168 24.0206 58.2937 24.0711C58.1706 24.1215 58.0275 24.0651 57.9044 24.0444C57.8042 24.0295 57.7069 23.9999 57.6153 23.9584C57.5151 23.9109 57.4521 23.8309 57.3605 23.7716C57.1658 23.6381 56.9597 23.5106 56.7421 23.3772C56.2068 23.051 55.6542 22.716 55.2219 22.2178C54.7324 21.6663 54.2686 21.3757 53.8821 21.3757C53.6617 21.3757 53.4527 21.4676 53.2437 21.6603C52.9546 21.9213 52.8029 22.2623 52.8172 22.6181C52.8315 23.0006 53.0433 23.3742 53.4212 23.6648C54.1598 24.2519 54.9757 24.7234 55.7888 25.186C56.6591 25.6812 57.5093 26.2179 58.3653 26.7338C58.4856 26.808 58.6087 26.8821 58.7089 26.9829C58.9264 27.2023 58.8921 27.4811 58.9694 27.7568C59.0238 27.9555 59.1841 28.1512 59.3902 28.2639C59.3931 28.2728 59.3959 28.2817 59.4017 28.2876L59.4217 28.2787C59.4875 28.3113 59.5563 28.338 59.6278 28.3499C60.1345 28.4448 60.5038 27.9496 60.5182 27.9258C60.7644 27.5819 60.6413 27.2854 60.7529 26.9592C60.7644 26.9295 60.7787 26.8999 60.793 26.8732C60.9905 26.4847 61.3856 26.5559 62.5364 26.0607C62.5364 26.0607 62.7626 25.9984 63.2951 25.699C64.3658 25.0941 65.1359 24.5336 65.7027 23.9436C66.7219 22.8257 67.1656 21.4142 66.9194 20.0739C66.6675 18.7218 65.7371 17.5624 64.3629 16.8952C63.7446 16.5957 63.0689 16.3911 62.3532 16.1747C61.9954 16.065 61.6289 15.9553 61.2539 15.8277L60.8588 15.6943V10.2353L61.5345 10.3599C62.6624 10.5704 64.0652 10.8343 64.7866 12.3555C64.9784 12.7558 65.3277 12.9841 65.7428 12.9841C65.9203 12.9841 66.0978 12.9426 66.2696 12.8596C66.8507 12.5719 67.0797 11.9759 66.8622 11.3028C66.5014 10.1612 65.7285 9.32799 64.5748 8.82983C63.8533 8.52145 63.109 8.29016 62.3246 8.04108C61.9954 7.94027 61.6661 7.83648 61.3398 7.72677L61.0134 7.62002L60.9504 7.27013C60.6985 5.832 60.229 5.69263 59.7681 5.67188C59.7452 5.67188 59.7223 5.67188 59.6994 5.67188C59.6994 5.67188 59.6908 5.67188 59.6822 5.67188C59.5648 5.67188 59.4417 5.6867 59.3215 5.74007C58.7232 6.00101 58.5199 6.89058 58.4827 7.47769C58.477 7.56665 58.4913 7.67636 58.4254 7.7327C58.331 7.81573 58.1191 7.76532 58.0017 7.78904C57.8042 7.82759 57.6095 7.89282 57.4177 7.96102C56.9282 8.13301 56.4501 8.38208 55.9892 8.62523C55.806 8.72308 55.6285 8.8328 55.4596 8.95437C54.9443 9.32206 54.512 9.7876 54.1054 10.2769C54.0596 10.3302 54.0196 10.3866 53.9766 10.4429C53.9566 10.4696 53.9337 10.4993 53.9108 10.5259C53.802 10.6712 53.6989 10.8254 53.6045 10.9826C53.5844 11.0152 53.5644 11.0478 53.5472 11.0804C53.4499 11.2465 53.3583 11.4155 53.2724 11.5934C52.4422 13.3577 52.7313 15.122 54.0282 16.1984V16.1925ZM60.919 18.6862L61.3999 18.6062C61.7263 18.5528 62.0326 18.5231 62.3074 18.5231C64.0766 18.5231 64.4975 19.644 64.5891 20.3082C64.7036 21.1118 64.5204 21.859 64.0652 22.4698C63.527 23.1904 62.6338 23.6559 61.5516 23.7775L60.919 23.8487V18.6862ZM57.8042 10.5912L58.4541 10.4993V15.6291L57.7985 15.638C55.6657 15.638 55.2134 14.4074 55.1332 13.6631C54.9786 12.0234 56.0006 10.8462 57.8042 10.5912Z" fill="#182D38"/>
</svg>
