<svg width="82" height="102" viewBox="0 0 82 102" fill="none" xmlns="http://www.w3.org/2000/svg">
<path d="M32.6489 80.3088C30.5398 80.3088 29.1788 78.7152 27.777 76.8009C25.8847 74.277 23.7474 73.2397 20.6482 73.3403C18.4605 73.4346 16.9486 73.3403 15.7448 72.5891C14.0915 71.5518 13.6231 69.5684 13.2554 67.4531C12.7462 64.4922 11.3223 62.6943 8.49342 61.4401C3.70633 59.3279 2.95825 57.7814 4.29411 52.724C5.06733 49.7883 4.53928 47.5692 2.52448 45.2966C-0.823023 41.4525 -0.835597 39.5917 2.45219 35.801C4.56128 33.4279 5.10819 31.1365 4.29411 28.1316C2.95196 23.1905 3.7189 21.5906 8.38655 19.579C11.272 18.3437 12.7462 16.4892 13.3151 13.3775C14.1858 8.58408 15.8139 7.27965 20.5665 7.56568C23.8479 7.71656 26.1582 6.56614 28.0504 3.8347C28.7262 2.84774 29.6157 2.13738 30.4801 1.44902C30.8196 1.1787 31.137 0.924101 31.4356 0.660072L32.1774 0L33.0921 0.386614C33.5793 0.594065 34.0319 0.77637 34.4594 0.949246C35.4369 1.34529 36.2793 1.68476 37.1343 2.13423C39.63 3.50781 41.9999 3.52038 44.6182 2.18452C49.5845 -0.402329 50.9518 -0.0848662 54.3716 4.44763C56.0343 6.66673 58.0491 7.60654 60.9031 7.50282C66.3094 7.36137 67.6861 8.45521 68.6605 13.6729C69.2075 16.5144 70.6156 18.2463 73.3628 19.4627C78.1593 21.5781 78.9042 23.1151 77.5652 28.1253C76.7983 31.0454 77.3263 33.2865 79.3411 35.6124C82.8458 39.5477 82.8332 41.3739 79.272 45.3595C77.3326 47.5975 76.8203 49.848 77.5715 52.8623C78.8634 57.882 78.1467 59.397 73.5325 61.3835C70.6785 62.578 69.1635 64.467 68.604 67.5254C68.1042 70.1468 67.4913 72.369 65.005 73.0888C64.1406 73.3403 63.0908 73.4126 61.3778 73.3371C58.1277 73.18 55.9337 74.2329 54.029 76.8544C52.0519 79.5041 50.3828 81.2517 46.7524 79.743C46.2715 79.5544 45.712 79.2872 44.9608 78.8912C42.0942 77.3793 39.6457 77.3793 36.7759 78.8912C35.4621 79.5921 34.6071 79.9599 33.8308 80.1547C33.4127 80.2585 33.0198 80.3088 32.6489 80.3088ZM40.8715 74.6133C42.704 74.6133 44.5333 75.113 46.4287 76.1126C47.0668 76.4489 47.5414 76.6784 47.9311 76.8324C49.3204 77.4107 49.6065 77.5302 51.4955 74.9967C54.0164 71.5235 57.2004 69.9928 61.5192 70.2034C62.393 70.2411 63.4868 70.2631 64.1249 70.0776C64.6467 69.9268 64.9987 69.6407 65.5111 66.9533C66.2623 62.864 68.4814 60.0948 72.3004 58.4981C73.5136 57.9732 74.6861 57.4137 74.9249 56.8919C75.1701 56.3607 74.8746 55.0154 74.5226 53.6418C73.5168 49.6154 74.2743 46.3308 76.9083 43.2913C77.845 42.2415 78.7911 41.0973 78.7942 40.4561C78.7974 39.8306 77.9267 38.7619 76.9837 37.7027L76.9712 37.687C74.2649 34.5658 73.4885 31.2748 74.5258 27.327C75.1502 24.9968 74.3393 23.3372 72.0929 22.3481C68.3934 20.7105 66.322 18.1457 65.5739 14.2701C65.3036 12.8148 64.983 11.4224 64.4769 11.0263C64.0023 10.6554 62.745 10.6114 61.0069 10.6586C57.1376 10.8 54.1453 9.38874 51.8633 6.34926C50.8795 5.04484 49.9459 3.85671 49.3707 3.72469C48.8081 3.59582 47.4848 4.24961 46.0609 4.9914C42.4651 6.82389 39.0642 6.7956 35.6475 4.91282C34.9592 4.55135 34.1859 4.23703 33.287 3.87557C33.1172 3.80642 32.9444 3.73726 32.7652 3.66497C32.6583 3.74984 32.5515 3.83785 32.4446 3.91957C31.7311 4.48849 31.0585 5.02598 30.6435 5.62947C28.1321 9.25672 24.7846 10.9195 20.403 10.7152C17.2221 10.5234 17.0021 10.7057 16.4111 13.9527C15.6473 18.1143 13.4943 20.8206 9.63126 22.477C8.37712 23.0176 7.18271 23.5897 6.92811 24.1146C6.66408 24.6584 6.98468 26.0383 7.33044 27.3175C8.42741 31.3628 7.62904 34.7198 4.81588 37.885C3.98922 38.8374 3.13426 39.9061 3.13741 40.519C3.14055 41.1445 4.02379 42.2415 4.88503 43.2316C7.59446 46.2899 8.37398 49.5651 7.33044 53.5318C6.70599 55.9018 7.51693 57.5824 9.76327 58.5735C13.5163 60.2426 15.6693 62.9709 16.3483 66.925C16.6752 68.7921 16.9801 69.6659 17.4075 69.9331C17.945 70.2694 19.284 70.2599 20.5224 70.2065C24.6683 70.0714 27.7738 71.5738 30.2947 74.937C32.0706 77.3604 32.4415 77.2661 33.0607 77.1121C33.5573 76.9895 34.2457 76.6815 35.2955 76.122C37.1971 75.1193 39.0327 74.6196 40.8652 74.6196L40.8715 74.6133ZM40.9972 66.4032C34.0162 66.4032 27.4752 63.7127 22.5592 58.8187C17.6338 53.9153 14.9213 47.3712 14.9213 40.3933C14.9213 33.4154 17.6401 26.9907 22.5781 22.0684C27.5098 17.1524 34.0288 14.4461 40.9281 14.4461C55.3019 14.4461 66.9978 26.0603 66.9978 40.3335C66.9978 47.2863 64.3104 53.821 59.429 58.7338C54.5507 63.6467 48.0474 66.3687 41.1167 66.4001C41.0758 66.4001 41.035 66.4001 40.9972 66.4001V66.4032ZM40.9312 17.5893C28.3239 17.5893 18.0676 27.8205 18.0676 40.3933C18.0676 46.5288 20.4502 52.2808 24.7783 56.5902C29.1254 60.9184 34.9309 63.2946 41.1041 63.2569C53.6486 63.2003 63.8546 52.9158 63.8546 40.3304C63.8546 27.745 53.57 17.5862 40.9281 17.5862L40.9312 17.5893Z" fill="#182D38"/>
<path d="M54.0274 101.879L53.0184 99.053C50.5039 92.0122 48.2313 85.5812 45.8708 78.8108L44.7109 75.4916L47.9579 76.8431C49.322 77.412 49.6049 77.5284 51.494 74.9949C54.0148 71.5217 57.1989 69.991 61.5176 70.2016C62.3914 70.2393 63.4853 70.2613 64.1233 70.0758L65.5378 69.6641L66.0375 71.0502C68.2284 77.126 70.3657 83.3087 72.4277 89.2839L72.7074 90.0949C72.852 90.5601 72.786 90.9592 72.7294 91.3113C72.7043 91.4747 72.6728 91.6602 72.6508 91.9022L72.4905 93.7284L70.7115 93.2946C69.9603 93.1123 69.2122 92.9395 68.4735 92.7666C66.6913 92.3548 64.8494 91.9305 63.0892 91.3773C61.964 91.0535 61.5113 91.2296 60.8921 92.2197L60.8733 92.248C59.8266 93.8478 58.7076 95.3849 57.4158 97.1639C56.894 97.8806 56.3471 98.6349 55.7687 99.4427L54.0211 101.879H54.0274ZM49.7118 80.2724C51.45 85.2355 53.1599 90.0791 54.9766 95.1868C56.2025 93.5021 57.268 92.0342 58.2424 90.5412C59.616 88.3535 61.4925 87.6432 63.985 88.363L64.0196 88.3724C65.6698 88.891 67.3765 89.2871 69.187 89.7051C69.209 89.7114 69.2342 89.7145 69.2562 89.7208C67.3986 84.3397 65.4812 78.8013 63.523 73.3385C62.9352 73.3793 62.2374 73.3793 61.373 73.3385C58.123 73.1813 55.929 74.2343 54.0242 76.8557C52.6821 78.6568 51.4782 80.0398 49.7086 80.2692L49.7118 80.2724Z" fill="#182D38"/>
<path d="M26.9216 101.995L25.1614 99.4931C24.5674 98.6507 24.0047 97.8712 23.4672 97.1294C22.2917 95.5044 21.2733 94.0994 20.3429 92.5875C19.5728 91.3145 18.9505 91.0693 17.5737 91.4905C15.9896 92.0155 14.3865 92.3612 12.6892 92.7321C11.8091 92.9238 10.8976 93.1219 9.92319 93.3576L7.40234 93.9674L8.02784 91.4497C8.13785 91.0033 8.23215 90.6167 8.31701 90.2741C8.51189 89.4726 8.65334 88.8943 8.82936 88.2908L8.84822 88.2279C10.6304 82.9945 12.5446 77.4153 14.6568 71.8173C14.8203 71.3709 14.9837 70.9686 15.1472 70.6071L15.889 68.9727L17.4103 69.925C17.9509 70.2614 19.2899 70.2551 20.5283 70.2016C24.6742 70.0665 27.7797 71.5689 30.3006 74.9322C32.0765 77.3556 32.4474 77.2613 33.0666 77.1073L35.8923 76.4032L34.9305 79.1503C33.9152 82.0484 32.9188 84.8835 31.9162 87.7344C30.6117 91.4434 29.2979 95.1744 27.9274 99.1097L26.9216 101.998V101.995ZM18.6016 88.1745C20.4215 88.1745 21.9051 89.1049 23.024 90.9531C23.8759 92.3298 24.844 93.6719 25.9598 95.2152C26.9782 92.3078 27.9683 89.4915 28.9553 86.6909C29.7316 84.4844 30.5049 82.2904 31.2844 80.065C29.9045 79.5464 28.8547 78.2702 27.7797 76.8024C25.8875 74.2784 23.7501 73.2411 20.6509 73.3417C19.3968 73.3951 18.3658 73.3889 17.4857 73.2317C15.4364 78.682 13.5724 84.1103 11.8343 89.2149C11.784 89.3846 11.7368 89.5575 11.6897 89.7398C11.7997 89.7146 11.9097 89.6926 12.0197 89.6675C13.7107 89.2997 15.1692 88.9823 16.5993 88.5108L16.6308 88.5014C17.3254 88.2876 17.9855 88.1807 18.6016 88.1807V88.1745Z" fill="#182D38"/>
<path d="M47.6858 52.1601C43.2822 52.1601 38.9383 52.1601 34.5315 52.1003C33.5068 52.1601 32.6016 51.3145 32.6016 50.2899C32.6016 49.2652 33.4471 48.4196 34.5315 48.4196H36.9455C37.0649 48.4196 38.0927 48.3599 38.6334 47.5144C38.9948 46.9706 38.9351 46.43 38.9351 46.2477C38.9351 42.2653 38.9948 38.3426 38.9948 34.3601C39.1143 33.9389 38.8754 33.5743 38.5736 33.3952C38.3316 33.2757 37.9701 33.3354 37.7878 33.5775C37.1843 33.8195 36.5809 33.9986 35.9774 34.2407C35.3141 34.181 34.7704 33.7566 34.5283 33.0934C34.2863 32.4302 34.4686 31.6444 35.0721 31.1635C36.8826 30.3777 38.6931 29.6547 40.5036 28.8721C41.0473 28.6898 42.2543 28.2686 43.037 28.8721C43.8825 29.4756 43.7599 30.8617 43.7599 31.4652C43.5776 34.1212 43.5776 39.1284 43.5776 46.0654C43.5776 46.3074 43.5776 46.6689 43.7599 47.1498C44.0617 47.813 44.6054 48.1745 44.7846 48.2971C45.7496 48.2971 46.7145 48.3568 47.6795 48.3568C48.767 48.2971 49.6094 49.0797 49.732 50.0447C49.7917 51.1919 48.8865 52.2166 47.6795 52.1569L47.6858 52.1601Z" fill="#182D38"/>
</svg>
