<svg width="58" height="42" viewBox="0 0 58 42" fill="none" xmlns="http://www.w3.org/2000/svg">
<path d="M0.469663 0C8.39044 0.00367248 16.3112 0.00642684 24.2329 0.0100993C24.4703 0.0100993 24.7068 0.0100993 25.01 0.0100993V0.731741C25.01 8.52841 25.0137 16.3251 24.9991 24.1218C24.9991 24.4964 24.8986 24.904 24.7324 25.24C22.1911 30.3852 19.6278 35.5193 17.0847 40.6644C16.9011 41.0354 16.6966 41.1685 16.282 41.1666C12.5727 41.1492 8.86437 41.1565 5.1551 41.1565C4.99073 41.1565 4.82728 41.1565 4.55789 41.1565C7.29099 35.6579 9.98848 30.23 12.7106 24.7534C12.5079 24.7305 12.3846 24.7038 12.2613 24.7038C8.44066 24.702 4.61999 24.702 0.799315 24.7038C0.688822 24.7038 0.579243 24.7305 0.46875 24.7452C0.46875 16.4968 0.46875 8.24839 0.46875 0H0.469663Z" fill="#FFB621"/>
<path d="M37.0058 41.1198C39.7265 35.645 42.428 30.2097 45.1753 24.6825H32.9297V0H57.4712V0.576342C57.4712 8.4567 57.4731 16.3371 57.463 24.2165C57.463 24.5024 57.3898 24.814 57.2636 25.0695C54.6828 30.286 52.0883 35.4961 49.4983 40.7089C49.3721 40.9626 49.2752 41.1685 48.8993 41.1667C45.0363 41.1474 41.1724 41.1547 37.3094 41.1538C37.2381 41.1538 37.1658 41.1382 37.0067 41.1198H37.0058Z" fill="#FFB621"/>
</svg>
