<svg width="29" height="29" viewBox="0 0 29 29" fill="none" xmlns="http://www.w3.org/2000/svg">
<path fill-rule="evenodd" clip-rule="evenodd" d="M5.68831 12.0833C4.29151 12.0833 4 12.3615 4 13.6944V16.1111C4 17.4441 4.29151 17.7222 5.68831 17.7222H9.06493V27.3889C9.06493 28.7217 9.35644 29 10.7532 29H14.1299C15.5267 29 15.8181 28.7217 15.8181 27.3889V17.7222H19.6096C20.669 17.7222 20.942 17.5257 21.233 16.5538L21.9566 14.1371C22.455 12.472 22.1479 12.0833 20.3331 12.0833H15.8181V8.05556C15.8181 7.16577 16.574 6.44444 17.5064 6.44444H22.3117C23.7084 6.44444 24 6.16626 24 4.83333V1.61111C24 0.278182 23.7084 0 22.3117 0H17.5064C12.8443 0 9.06493 3.6066 9.06493 8.05556V12.0833H5.68831Z" fill="#FBFCFE"/>
</svg>
