<svg width="29" height="29" viewBox="0 0 29 29" fill="none" xmlns="http://www.w3.org/2000/svg">
<g clip-path="url(#clip0_1296_230)">
<path fill-rule="evenodd" clip-rule="evenodd" d="M20.7143 0H8.28571C3.70964 0 0 3.70964 0 8.28571V20.7143C0 25.2903 3.70964 29 8.28571 29H20.7143C25.2903 29 29 25.2903 29 20.7143V8.28571C29 3.70964 25.2903 0 20.7143 0ZM7.0303 14.5C7.0303 18.6255 10.3745 21.9697 14.5 21.9697C16.481 21.9697 18.381 21.1826 19.7818 19.7818C21.1826 18.381 21.9697 16.481 21.9697 14.5C21.9697 10.3745 18.6255 7.0303 14.5 7.0303C10.3745 7.0303 7.0303 10.3745 7.0303 14.5ZM22.8485 3.95455C21.6351 3.95455 20.6515 4.93816 20.6515 6.15152C20.6515 7.36487 21.6351 8.34848 22.8485 8.34848C24.0618 8.34848 25.0455 7.36487 25.0455 6.15152C25.0455 4.93816 24.0618 3.95455 22.8485 3.95455Z" fill="#FBFCFE"/>
<path fill-rule="evenodd" clip-rule="evenodd" d="M14.5 19C12.0146 19 10 16.9853 10 14.5C10 12.0146 12.0146 10 14.5 10C16.9853 10 19 12.0146 19 14.5C19 15.6934 18.5258 16.838 17.6819 17.6819C16.838 18.5258 15.6934 19 14.5 19Z" fill="#FBFCFE"/>
</g>
<defs>
<clipPath id="clip0_1296_230">
<rect width="29" height="29" fill="white"/>
</clipPath>
</defs>
</svg>
