<svg width="1133" height="1121" viewBox="0 0 1133 1121" fill="none" xmlns="http://www.w3.org/2000/svg">
<path d="M566.651 961.035C539.707 960.897 515.941 957.996 496.32 954.404C502.4 976.645 510.138 1000.68 520.086 1025.96C534.318 1062.43 550.346 1094.06 565.822 1121C581.297 1095.86 597.878 1064.64 612.11 1027.2C621.92 1001.51 628.69 977.474 633.665 955.786C614.735 958.825 592.213 961.035 566.651 960.897V961.035Z" fill="#182D38"/>
<path d="M343.777 895.833C321.255 881.052 302.74 865.856 288.232 852.181C281.323 874.145 274.829 898.596 269.578 925.256C261.84 963.659 258.11 999.023 256.59 1029.97C283.257 1017.26 314.07 999.852 346.126 976.092C368.234 959.791 387.026 943.214 402.915 927.743C385.367 920.145 365.194 909.785 343.777 895.833Z" fill="#182D38"/>
<path d="M191.647 720.535C180.593 695.946 173.408 673.153 168.434 653.813C150.748 668.594 132.094 685.585 113.164 705.201C85.9443 733.382 63.6984 761.009 45.5977 786.289C74.8904 790.019 110.263 792.091 150.195 789.328C177.553 787.532 202.424 783.802 224.118 779.382C213.478 763.496 202.01 743.88 191.647 720.535Z" fill="#182D38"/>
<path d="M158.347 490.671C162.354 464.01 168.572 440.941 174.928 422.016C151.991 424.917 127.12 429.199 100.59 435.415C62.4544 444.394 28.7401 455.583 0 467.049C22.6604 485.974 51.2623 506.833 86.2202 526.173C110.262 539.434 133.061 549.794 153.787 557.668C153.511 538.605 154.478 515.812 158.209 490.671H158.347Z" fill="#182D38"/>
<path d="M254.654 279.456C272.478 259.149 290.164 243.125 305.778 230.693C285.052 220.747 261.701 210.939 236.138 201.822C199.246 188.698 164.841 179.996 134.305 174.056C143.148 202.236 155.998 235.251 174.928 270.477C187.916 294.651 201.733 315.648 214.722 333.468C224.808 317.168 237.935 298.657 254.654 279.456Z" fill="#182D38"/>
<path d="M449.756 153.749C475.733 146.289 499.222 142.422 519.119 140.349C506.96 120.734 492.728 99.8747 476.147 78.325C452.105 47.3818 427.925 21.4116 405.541 0C397.665 28.4567 390.618 63.1296 387.578 103.052C385.506 130.403 385.644 155.545 386.887 177.647C404.159 169.359 425.161 160.932 449.756 153.887V153.749Z" fill="#182D38"/>
<path d="M682.025 153.611C707.864 161.347 729.833 170.878 747.658 179.857C748.072 156.788 747.381 131.509 745.032 104.433C741.578 65.4781 735.222 30.5289 728.037 0.276367C706.068 20.0303 681.335 45.3098 657.292 77.2199C640.712 99.1841 627.309 120.319 616.531 139.659C635.461 142.007 657.845 146.29 682.302 153.611H682.025Z" fill="#182D38"/>
<path d="M877.541 278.904C895.089 299.348 908.492 319.24 918.578 336.369C931.429 317.168 944.555 295.618 957.129 271.444C975.368 236.771 988.909 203.894 999.133 174.608C969.979 179.305 935.436 187.317 897.991 201.131C872.152 210.525 849.492 221.161 829.871 231.522C844.517 243.816 860.96 259.426 877.541 278.765V278.904Z" fill="#182D38"/>
<path d="M974.123 489.979C977.854 516.64 978.268 540.538 977.577 560.43C998.718 551.175 1021.38 540.124 1045.14 526.724C1079.27 507.385 1108.43 487.079 1132.75 468.015C1105.66 456.273 1072.36 444.255 1033.26 435.553C1006.46 429.613 981.584 426.159 959.477 424.363C965.142 442.598 970.669 464.7 974.123 489.979Z" fill="#182D38"/>
<path d="M941.238 719.844C929.908 744.295 917.472 764.739 906.004 781.04C928.803 784.77 953.812 787.67 981.032 789.19C1020.14 791.262 1055.65 790.019 1086.6 787.118C1070.15 762.529 1048.6 734.487 1020.55 706.168C1001.21 686.691 982.137 670.39 964.589 656.853C959.477 675.363 952.154 696.775 941.376 719.844H941.238Z" fill="#182D38"/>
<path d="M789.383 895.418C766.584 909.785 745.168 920.283 726.652 927.881C743.786 943.352 763.268 959.377 785.376 975.263C817.156 998.194 847.692 1016.29 875.189 1030.52C874.636 1000.96 871.596 965.731 863.306 926.638C857.641 899.839 850.456 875.802 842.856 854.943C828.624 867.79 810.8 881.881 789.245 895.418H789.383Z" fill="#182D38"/>
<path d="M200.629 536.671H931.842C930.875 509.733 927.144 483.487 920.65 458.346H211.821C205.465 483.487 201.596 509.733 200.767 536.671H200.629Z" fill="#182D38"/>
<path d="M566.235 914.758C638.914 914.758 706.757 893.623 763.685 857.016H368.785C425.713 893.623 493.556 914.758 566.235 914.758Z" fill="#182D38"/>
<path d="M566.236 183.173C493.695 183.173 425.99 204.308 369.062 240.777H763.409C706.482 204.308 638.915 183.173 566.236 183.173Z" fill="#182D38"/>
<path d="M288.644 787.117H843.963C862.478 765.568 878.644 741.808 891.771 716.252H240.836C253.962 741.808 270.129 765.568 288.644 787.117Z" fill="#182D38"/>
<path d="M787.726 257.906H344.881C319.457 277.246 296.796 299.762 277.176 324.904H855.293C835.811 299.762 813.012 277.246 787.588 257.906H787.726Z" fill="#182D38"/>
<path d="M259.352 349.769C244.844 372.147 232.685 396.045 223.289 421.325H909.182C899.786 396.045 887.627 372.009 873.118 349.769H259.352Z" fill="#182D38"/>
<path d="M229.506 658.509H927.834C935.434 634.473 940.546 609.332 942.895 583.361H214.445C216.794 609.332 222.045 634.473 229.506 658.509Z" fill="#182D38"/>
</svg>
