<svg width="204" height="53" viewBox="0 0 204 53" fill="none" xmlns="http://www.w3.org/2000/svg">
<path d="M75.2832 13.6402L78.8188 16.9544C82.4776 13.4846 83.8075 10.1509 84.3395 8.39978C84.7806 6.93401 84.9233 5.88981 84.6703 4.81318C84.1384 2.53021 82.1792 1.05147 81.1931 0.56504C76.6001 -1.71144 67.0378 4.64455 62.1463 12.7647C57.2419 20.9042 57.7479 29.6275 59.772 32.3385C60.8424 33.7784 62.2696 34.4918 62.2696 34.4918C64.1639 35.4452 65.9803 35.1987 66.5058 35.1209C67.1416 35.0236 68.6466 34.7188 71.5854 32.2477C72.9802 31.0738 74.855 29.2838 76.7169 26.7284C75.4259 25.7166 74.1414 24.7049 72.8504 23.6931C71.3 26.5728 69.5095 28.4212 68.212 29.5432C67.2129 30.4058 64.0536 33.1428 62.6329 32.2477C62.4642 32.1375 62.0231 31.7938 61.9128 30.0426C61.7247 27.0073 62.8145 24.5816 63.1259 23.9136C65.4419 18.9326 66.5902 16.4421 67.5438 14.639C67.7384 14.2758 69.9636 10.1055 73.1553 6.00007C73.4602 5.61093 74.3101 4.5343 75.7697 3.60035C76.0681 3.40578 79.3831 1.28495 80.6806 2.38753C81.8289 3.36038 80.7714 6.24653 80.5703 6.8043C80.0254 8.29601 79.1885 9.3013 77.5862 11.1627C76.6714 12.2328 75.8476 13.076 75.2702 13.6467L75.2832 13.6402Z" fill="#182D38"/>
<path d="M203.928 26.5853C203.72 26.4167 203.506 26.2416 203.299 26.073C203.214 26.0016 203.098 26.0081 203.026 26.0924C202.351 26.8318 201.385 27.8047 200.113 28.8164C198.868 29.8087 197.337 31.0345 196.805 30.6389C196.215 30.2109 197.051 28.116 197.188 27.7722C197.59 26.7669 198.122 26.0276 198.518 25.5606C198.556 25.5087 198.569 25.4439 198.55 25.379C198.453 25.0482 198.284 24.6331 198.005 24.1986C197.609 23.5825 197.142 23.1739 196.792 22.9144C196.708 22.8496 196.584 22.8755 196.519 22.9598C194.658 25.4439 192.783 26.9096 191.446 27.7722C190.668 28.2716 189.143 29.2575 188.741 28.8748C188.293 28.4403 189.442 26.4686 190.343 25.2882C191.245 24.1013 192.88 22.4085 195.819 21.1373C195.974 21.0725 195.994 20.8585 195.845 20.7741C195.183 20.385 194.521 19.9959 193.86 19.6002C193.801 19.5678 193.723 19.5613 193.665 19.5937C189.104 21.7211 187.003 23.9067 185.926 25.5606C185.725 25.8784 184.914 27.1561 183.441 28.4338C182.345 29.3807 180.217 30.8983 179.575 30.3665C179.062 29.9385 179.652 28.4273 180.515 26.2221C181.132 24.6461 181.761 23.3879 182.221 22.5318C182.26 22.4604 182.247 22.3761 182.195 22.3177C181.884 21.9351 181.475 21.5135 180.963 21.0919C180.366 20.599 179.782 20.2423 179.283 19.9894C179.166 19.931 179.036 19.9894 179.004 20.1191C178.666 21.4487 178.044 23.2776 176.817 25.1779C174.936 28.0771 171.783 30.9178 170.797 30.3081C170.11 29.8866 170.616 27.8825 170.907 26.7215C171.407 24.7499 172.322 23.2971 172.99 22.415C173.061 22.3242 173.035 22.1945 172.945 22.1297C171.842 21.3514 170.745 20.5731 169.642 19.7948C169.571 19.7429 169.48 19.7429 169.409 19.7883C167.554 20.9947 166.34 22.2075 165.549 23.1349C165.023 23.7511 164.511 24.458 164.284 24.3478C163.999 24.2181 164.316 22.9404 164.673 21.7535C164.706 21.6562 164.66 21.5589 164.569 21.5135C163.402 20.9363 162.24 20.3655 161.073 19.7883C160.943 19.7235 160.794 19.8078 160.781 19.9505C160.671 21.1827 160.34 22.9339 159.367 24.7888C158.536 26.3908 157.583 27.3831 156.94 28.0446C156.447 28.5505 154.209 30.8594 153.405 30.3665C153.139 30.1979 153.106 29.7763 153.126 29.3029C153.204 27.0393 154.384 24.6591 155.286 23.1349C155.357 23.0052 155.28 22.8496 155.13 22.8301C154.151 22.7328 151.238 22.2269 150.038 19.8207C149.629 19.0035 149.532 18.1928 149.538 17.5572C149.324 17.4145 148.987 17.2329 148.604 17.2848C148.215 17.3367 147.806 17.6156 147.054 19.0489C146.729 19.6716 146.314 20.5666 145.944 21.7146C145.918 21.7989 145.951 21.8962 146.022 21.9481C146.619 22.3437 147.216 22.7458 147.819 23.1544C147.884 23.4592 147.923 23.6343 147.988 23.9392C147.547 24.6331 146.911 25.4698 146.009 26.2805C145.828 26.4427 143.019 28.9202 142.032 28.2133C141.539 27.8565 141.591 26.7734 141.922 26.06C142.156 25.5541 142.525 25.2428 142.778 25.0742C142.882 25.0028 142.902 24.8666 142.824 24.7758C142.11 23.8743 141.39 22.9793 140.67 22.0778C140.599 21.987 140.469 21.974 140.378 22.0518C139.749 22.5642 138.523 23.7511 138.004 25.6709C137.705 26.7605 137.744 27.7139 137.822 28.3495C137.835 28.4078 137.822 28.4532 137.783 28.4986C137.439 28.9202 136.914 29.4715 136.181 29.9774C135.383 30.5287 134.922 30.8465 134.637 30.6973C133.962 30.3535 134.416 27.6166 135.409 25.5606C135.915 24.5034 137.031 22.6615 139.496 21.066C139.606 20.9947 139.619 20.8325 139.522 20.7417C139.178 20.4369 138.691 20.0996 138.056 19.931C135.759 19.3278 133.567 21.507 132.814 22.2529C130.913 24.1402 130.323 26.4037 130.122 27.5841C130.109 27.636 130.089 27.6749 130.044 27.7074C128.993 28.5181 127.708 29.3807 126.184 30.1979C124.29 31.2161 122.519 31.8907 121.007 32.3511C120.858 32.3965 120.715 32.2603 120.754 32.1112C121.104 30.6259 121.649 28.8943 122.486 27.0523C123.012 25.9043 123.57 24.8861 124.121 23.9975C124.134 23.9716 124.153 23.9521 124.179 23.9392C127.183 21.8313 130.816 18.8219 133.917 14.8527C135.467 12.8681 136.103 11.6812 137.342 9.28146C138.99 6.06455 139.022 4.97495 138.717 4.09289C138.322 2.93844 137.238 1.85532 135.96 1.66075C135.545 1.60238 134.579 1.42078 132.756 2.87358C127.708 6.90121 125.302 11.4866 125.302 11.4866C122.772 16.1823 121.403 19.7818 120.611 22.2529C120.417 22.8496 120.06 24.017 119.23 25.3985C117.309 28.6024 114.059 31.0086 113.157 30.4184C112.801 30.1914 112.93 29.4261 113.099 28.3754C113.475 26.1249 114.384 24.2764 115.344 22.8625C115.389 22.7912 115.389 22.7004 115.337 22.6355C115.058 22.2659 114.721 21.8637 114.319 21.4616C113.579 20.7352 112.833 20.2164 112.197 19.8467C112.068 19.7689 111.905 19.8597 111.899 20.0088C111.847 20.839 111.678 21.9286 111.224 23.1349C110.699 24.5099 110.018 25.4633 109.68 25.8914C109.323 26.3454 108.804 26.9356 107.397 28.0511C104.808 30.0941 103.517 31.1189 102.765 30.7362C101.798 30.2498 102.032 27.9538 102.142 26.8902C102.337 25.0028 103.005 23.5695 103.478 22.7199C103.491 22.7004 103.504 22.6874 103.517 22.668C107.994 18.3679 111.12 14.483 113.209 11.5969C113.209 11.5969 117.303 5.96078 115.973 4.09289C115.376 3.24975 114.429 2.60118 114.429 2.60118C114.429 2.60118 113.845 2.19907 113.32 1.99152C111.873 1.41429 107.02 5.35761 103.05 12.3687C101.467 15.177 99.3654 19.6262 98.1587 25.7227C98.1523 25.7487 98.1393 25.7746 98.1263 25.7941C97.6333 26.4816 96.8548 27.4479 95.7584 28.4597C94.6556 29.4715 93.0597 30.9308 92.3591 30.5222C91.7233 30.146 92.0153 28.3559 92.5083 27.2209C92.8651 26.3973 93.3646 25.82 93.7344 25.4633C93.7928 25.4114 93.8122 25.3336 93.7798 25.2623C93.6565 24.925 93.4295 24.4515 93.0208 23.9846C92.6834 23.5954 92.3266 23.3295 92.0477 23.1609C91.9634 23.109 91.8531 23.1349 91.7882 23.2063C91.0097 24.0754 90.3285 24.7953 89.8031 25.3401C87.7596 27.4544 86.8124 28.2068 85.6058 28.7062C85.009 28.9591 84.0164 29.3742 83.731 29.0369C83.2833 28.5181 84.7495 26.4945 85.7161 25.3985C86.6632 24.3218 87.6298 23.5825 89.1414 22.415C89.7771 21.9221 90.3415 21.5135 90.7697 21.2152C90.8865 21.1309 90.88 20.9493 90.7567 20.8714L88.8949 19.7105C88.843 19.6781 88.7781 19.6651 88.7197 19.691C86.9422 20.3266 83.705 21.8119 81.4085 25.1196C79.605 27.7203 78.1778 31.748 79.365 32.7403C80.8765 33.9985 86.3129 30.1525 86.9422 29.4131C87.2406 29.0629 87.6493 28.8164 87.9412 28.4597C88.045 28.33 88.1813 28.1549 88.3694 28.1549C88.564 28.1549 88.7392 28.3689 88.8105 28.544C88.9922 29.011 88.5121 29.4585 88.311 29.9514C87.8699 31.0281 88.577 32.7727 89.5825 33.2916C90.7113 33.8688 92.1774 32.8635 94.3118 31.4691C95.8622 30.4508 97.0235 29.4066 97.8019 28.6154C97.9122 28.5051 98.1068 28.557 98.1393 28.7127C98.7491 31.2875 100.047 33.11 101.616 33.3435C101.928 33.3889 102.635 33.4278 104.763 32.1306C105.969 31.3977 107.364 30.3989 108.791 29.0369C108.941 28.8943 109.174 29.0305 109.129 29.2315C108.766 30.8205 109.129 32.2798 110.011 32.8895C111.354 33.8039 113.475 32.4809 114.481 31.8517C115.337 31.3199 115.986 30.7038 116.459 30.146C116.602 29.9839 116.862 30.1201 116.81 30.3276C116.544 31.4821 116.278 32.6365 116.012 33.7975C115.986 33.8883 115.908 33.9531 115.811 33.9531H112.204C112.087 33.9531 111.996 34.0439 111.996 34.1542V35.5097C111.996 35.6264 112.093 35.7172 112.21 35.7107C113.255 35.6783 114.299 35.6459 115.35 35.6199C115.493 35.6199 115.597 35.7497 115.545 35.8859C115.35 36.4631 115.071 37.2414 114.688 38.1494C114.306 39.0574 113.962 39.7708 113.586 40.5167C113.346 40.9966 113.086 41.496 112.794 42.0732H114.727C115.681 42.0732 116.777 42.3002 117.167 43.2731C117.355 42.7218 117.549 42.0927 117.783 41.3728C117.958 40.8215 118.153 40.2183 118.373 39.5568C119.041 37.5462 119.716 35.8794 120.242 34.6406C120.268 34.5887 120.313 34.5498 120.365 34.5368C121.811 34.1153 123.518 33.4991 125.36 32.5717C127.189 31.6507 128.708 30.6454 129.908 29.7309C130.024 29.6466 130.187 29.705 130.219 29.8477C130.388 30.6713 130.913 32.4809 132.425 33.2916C134.604 34.4525 138.27 33.2267 140.313 29.6466C140.352 29.5817 140.424 29.5428 140.501 29.5493C141.267 29.6271 142.214 29.6207 143.246 29.3742C146.768 28.5181 148.591 25.5022 149.091 24.5748C149.13 24.5034 149.207 24.4645 149.292 24.471C149.726 24.5099 150.168 24.5553 150.609 24.5942C150.751 24.6072 150.836 24.7693 150.758 24.8991C148.838 28.2716 148.468 31.3459 149.707 32.4614C150.193 32.9024 150.927 33.0321 151.141 33.0711C152.698 33.3435 153.976 32.4938 155.169 31.6896C155.779 31.281 156.609 30.6454 157.446 29.6855C157.589 29.5234 157.836 29.6401 157.803 29.8477C157.725 30.3665 157.725 31.0281 158.043 31.6896C158.646 32.9543 160.152 33.7067 161.754 33.4797C161.845 33.4667 161.916 33.3953 161.929 33.3045C162.039 32.3706 162.286 31.1253 162.844 29.7569C164.498 25.7163 167.858 23.0766 168.364 23.4527C168.754 23.7381 167.106 25.6319 166.879 29.2056C166.808 30.3146 166.652 32.7468 167.813 33.3435C168.624 33.7585 169.701 33.1294 171.517 32.0204C173.094 31.0605 174.333 30.0682 175.248 29.251C175.377 29.1342 175.585 29.2315 175.585 29.4066C175.572 31.2356 176.214 32.7338 177.259 33.1229C178.264 33.4991 179.419 32.7662 180.846 31.8517C181.702 31.3069 182.377 30.7297 182.896 30.2238C183.032 30.0876 183.266 30.2044 183.233 30.3925C183.104 31.1837 183.259 31.9166 183.713 32.4095C184.375 33.1165 185.407 33.0451 185.926 33.0127C186.724 32.9608 187.723 32.6754 190.123 30.7492C192.205 29.0823 192.938 28.103 193.321 28.3235C193.983 28.6932 192.257 31.8193 193.431 32.9608C193.963 33.4732 194.833 33.3435 195.585 33.2332C196.344 33.1229 198.239 32.7079 202.326 28.5959C203.007 27.9084 203.565 27.3053 203.947 26.8772C204.025 26.7929 204.012 26.6632 203.928 26.5853ZM132.483 7.56924C133.573 5.73378 135.039 3.32109 136.181 3.59349C136.46 3.65835 136.635 3.87238 136.674 3.92427C137.686 5.18898 135.312 8.69775 133.307 11.6552C131.614 14.1587 130.362 15.5142 129.83 16.0655C128.279 17.6934 126.794 19.25 126.405 18.9971C125.957 18.6922 128.072 14.95 132.483 7.56924ZM106.398 14.6387C106.962 13.2313 107.513 12.0379 110.426 7.05686C110.426 7.05686 110.984 6.09698 112.865 4.53392C113.008 4.41718 113.281 4.19667 113.449 4.28098C113.683 4.40421 113.566 5.04629 113.527 5.27978C113.19 7.23198 110.88 10.7083 110.018 12.0444C109.116 13.4388 108.487 14.5284 107.196 16.1239C106.534 16.9346 105.736 17.9139 105.496 17.7777C105.21 17.6221 105.859 15.9877 106.398 14.6387Z" fill="#182D38"/>
<path d="M116.395 12.447C116.823 12.3238 117.205 12.4665 117.621 12.6222C118.12 12.8038 118.749 13.0372 118.976 13.5885C119.223 14.1917 118.834 14.8468 118.269 15.7677C117.867 16.4358 117.666 16.7665 117.238 16.9092C116.563 17.1362 115.869 16.7211 115.538 16.5266C115.188 16.3125 114.844 16.1115 114.682 15.7094C114.442 15.1062 114.779 14.4965 115.175 13.7831C115.545 13.1151 115.824 12.6092 116.388 12.4535L116.395 12.447Z" fill="#182D38"/>
<path d="M183.09 12.447C183.518 12.3238 183.901 12.4665 184.316 12.6222C184.815 12.8038 185.445 13.0372 185.672 13.5885C185.918 14.1917 185.529 14.8468 184.965 15.7677C184.562 16.4358 184.361 16.7665 183.933 16.9092C183.259 17.1362 182.564 16.7211 182.234 16.5266C181.883 16.3125 181.539 16.1115 181.377 15.7094C181.137 15.1062 181.475 14.4965 181.87 13.7831C182.24 13.1151 182.519 12.6092 183.083 12.4535L183.09 12.447Z" fill="#182D38"/>
<path d="M62.0621 44.8892C60.9722 44.5779 60.0316 44.3055 60.0316 43.3456C60.0316 42.4506 60.7127 41.9382 61.8999 41.9382C62.6589 41.9382 63.4374 42.2106 64.0926 42.71L64.2678 42.8462L64.7738 41.3999L64.683 41.3285C63.9823 40.7578 62.9379 40.4141 61.8934 40.4141C59.4153 40.4141 58.533 41.9577 58.533 43.404C58.533 45.5572 60.2197 46.0437 61.5755 46.4328C62.6589 46.7441 63.5931 47.01 63.5931 47.9764C63.5931 48.8455 62.899 49.3449 61.6858 49.3449C60.6998 49.3449 59.6683 48.9168 59.0455 48.2488L58.8703 48.0607L58.293 49.4941L58.3578 49.5719C59.0779 50.3631 60.3754 50.869 61.6793 50.869C64.1899 50.869 65.0787 49.2671 65.0787 47.8921C65.0787 45.7713 63.3985 45.2848 62.0426 44.8957L62.0621 44.8892Z" fill="#182D38"/>
<path d="M124.14 44.8892C123.05 44.5779 122.11 44.3055 122.11 43.3456C122.11 42.4506 122.791 41.9382 123.978 41.9382C124.737 41.9382 125.516 42.2106 126.171 42.71L126.346 42.8462L126.852 41.3999L126.761 41.3285C126.06 40.7578 125.016 40.4141 123.972 40.4141C121.493 40.4141 120.611 41.9577 120.611 43.404C120.611 45.5572 122.298 46.0437 123.654 46.4328C124.737 46.7441 125.671 47.01 125.671 47.9764C125.671 48.8455 124.977 49.3449 123.764 49.3449C122.784 49.3449 121.746 48.9168 121.124 48.2488L120.948 48.0607L120.371 49.4941L120.442 49.5719C121.163 50.3631 122.46 50.869 123.764 50.869C126.275 50.869 127.163 49.2671 127.163 47.8921C127.163 45.7713 125.483 45.2848 124.127 44.8957L124.14 44.8892Z" fill="#182D38"/>
<path d="M73.545 44.7767H68.18V40.5156H66.4414V50.7436H68.18V46.3268H73.545V50.7436H75.2836V40.5156H73.545V44.7767Z" fill="#182D38"/>
<path d="M83.6313 46.1963C83.6313 48.2263 82.7685 49.2186 80.991 49.2186C79.2134 49.2186 78.3636 48.2328 78.3636 46.1963V40.4629H76.625V46.2546C76.625 49.1473 78.2079 50.8011 80.9715 50.8011C83.7351 50.8011 85.318 49.1408 85.318 46.2546V40.4629H83.6183V46.1963H83.6313Z" fill="#182D38"/>
<path d="M86.6758 42.0722H89.1669V50.7436H90.8925V42.0722H93.3772V40.5156H86.6758V42.0722Z" fill="#182D38"/>
<path d="M94.7266 42.0722H97.2177V50.7436H98.9433V42.0722H101.434V40.5156H94.7266V42.0722Z" fill="#182D38"/>
<path d="M132.941 42.0599H135.426V50.7313H137.152V42.0599H139.643V40.5098H132.941V42.0599Z" fill="#182D38"/>
<path d="M185.141 42.0599H187.625V50.7313H189.351V42.0599H191.842V40.5098H185.141V42.0599Z" fill="#182D38"/>
<path d="M104.516 46.3139H108.596V44.7897H104.516V42.0722H109.2V40.5156H102.777V50.7436H109.401V49.187H104.516V46.3139Z" fill="#182D38"/>
<path d="M119.059 44.1347C119.072 43.6936 119.007 42.844 118.443 42.0527C118.261 41.7998 118.04 41.5728 117.781 41.3717C117.035 40.814 115.997 40.5156 114.764 40.5156H110.742V50.7371H112.481V47.7213L113.577 47.7083H114.343L116.477 50.7371H118.417L116.14 47.5137C116.607 47.4229 117.204 47.2154 117.761 46.7549C118.053 46.5084 119.02 45.6004 119.059 44.1347ZM115.854 46.0609C115.484 46.1647 115.095 46.1971 114.725 46.1971H112.481V42.0722H114.725C115.679 42.0722 116.775 42.2992 117.165 43.2721C117.268 43.512 117.32 43.7909 117.32 44.1282C117.32 45.3086 116.652 45.8404 115.854 46.0609Z" fill="#182D38"/>
<path d="M161.426 44.1229C161.439 43.6884 161.381 42.8388 160.81 42.041C160.09 41.0357 158.818 40.5039 157.138 40.5039H153.109V50.7319H154.848V47.716H156.736L158.851 50.7319H160.79L158.507 47.502C158.974 47.4112 159.571 47.2036 160.129 46.7432C160.421 46.5032 161.387 45.5952 161.426 44.1229ZM157.093 46.1919H154.848V42.0605H157.093C158.28 42.0605 159.688 42.4172 159.688 44.1164C159.688 45.8157 158.28 46.1919 157.093 46.1919Z" fill="#182D38"/>
<path d="M146.389 40.3926C143.289 40.3926 140.953 42.6366 140.953 45.6136C140.953 48.5905 143.289 50.8411 146.389 50.8411C149.49 50.8411 151.8 48.597 151.8 45.6136C151.8 42.6302 149.477 40.3926 146.389 40.3926ZM146.389 49.2585C144.249 49.2585 142.692 47.7279 142.692 45.6136C142.692 43.4992 144.249 41.9751 146.389 41.9751C148.53 41.9751 150.061 43.5057 150.061 45.6136C150.061 47.7214 148.517 49.2585 146.389 49.2585Z" fill="#182D38"/>
<path d="M168.182 40.3926C165.082 40.3926 162.746 42.6366 162.746 45.6136C162.746 48.5905 165.082 50.8411 168.182 50.8411C171.283 50.8411 173.593 48.597 173.593 45.6136C173.593 42.6302 171.27 40.3926 168.182 40.3926ZM168.182 49.2585C166.042 49.2585 164.485 47.7279 164.485 45.6136C164.485 43.4992 166.042 41.9751 168.182 41.9751C170.323 41.9751 171.854 43.5057 171.854 45.6136C171.854 47.7214 170.31 49.2585 168.182 49.2585Z" fill="#182D38"/>
<path d="M198.585 40.3926C195.484 40.3926 193.148 42.6366 193.148 45.6136C193.148 48.5905 195.484 50.8411 198.585 50.8411C201.686 50.8411 203.995 48.597 203.995 45.6136C203.995 42.6302 201.673 40.3926 198.585 40.3926ZM198.585 49.2585C196.444 49.2585 194.887 47.7279 194.887 45.6136C194.887 43.4992 196.444 41.9751 198.585 41.9751C200.726 41.9751 202.257 43.5057 202.257 45.6136C202.257 47.7214 200.713 49.2585 198.585 49.2585Z" fill="#182D38"/>
<path d="M182.007 40.6134V46.8267L174.917 40.127L174.91 50.8349H176.649L176.707 44.427L183.83 51.1137L183.746 40.6134H182.007Z" fill="#182D38"/>
<path d="M26.6028 45.1863C25.3378 45.1798 24.222 45.0436 23.3008 44.875C23.5862 45.9192 23.9495 47.0477 24.4166 48.2346C25.0848 49.9468 25.8373 51.4321 26.5639 52.6968C27.2905 51.5164 28.069 50.0506 28.7372 48.293C29.1978 47.0866 29.5156 45.9581 29.7492 44.9399C28.8604 45.0825 27.803 45.1863 26.6028 45.1798V45.1863Z" fill="#182D38"/>
<path d="M16.1404 42.1237C15.0829 41.4297 14.2136 40.7163 13.5325 40.0742C13.2081 41.1054 12.9032 42.2534 12.6567 43.5052C12.2934 45.3082 12.1182 46.9685 12.0469 48.4213C13.2989 47.8246 14.7456 47.0074 16.2507 45.8919C17.2886 45.1266 18.1709 44.3483 18.9169 43.6219C18.0931 43.2652 17.1459 42.7788 16.1404 42.1237Z" fill="#182D38"/>
<path d="M8.99772 33.8924C8.47873 32.7379 8.14139 31.6678 7.90785 30.7598C7.07747 31.4537 6.20168 32.2515 5.31292 33.1724C4.03492 34.4955 2.99046 35.7927 2.14062 36.9796C3.51594 37.1547 5.17669 37.252 7.05152 37.1222C8.33601 37.0379 9.50373 36.8628 10.5222 36.6553C10.0227 35.9094 9.48427 34.9884 8.99772 33.8924Z" fill="#182D38"/>
<path d="M7.43446 23.1004C7.6226 21.8486 7.91452 20.7655 8.21294 19.877C7.13605 20.0132 5.96833 20.2142 4.72277 20.5061C2.93227 20.9276 1.34936 21.453 0 21.9913C1.06392 22.8798 2.40679 23.8592 4.04808 24.7672C5.17688 25.3898 6.24728 25.8762 7.22038 26.2459C7.20741 25.3509 7.25282 24.2808 7.42798 23.1004H7.43446Z" fill="#182D38"/>
<path d="M11.9551 13.1849C12.792 12.2315 13.6224 11.4792 14.3554 10.8955C13.3823 10.4285 12.286 9.96801 11.0858 9.53996C9.35373 8.92381 7.73838 8.51521 6.30469 8.23633C6.71988 9.55941 7.3232 11.1095 8.21196 12.7634C8.82177 13.8984 9.4705 14.8842 10.0803 15.7208C10.5539 14.9555 11.1702 14.0864 11.9551 13.1849Z" fill="#182D38"/>
<path d="M21.1154 7.28305C22.335 6.93282 23.4379 6.75122 24.372 6.65394C23.8011 5.73297 23.133 4.75362 22.3545 3.74185C21.2257 2.28905 20.0904 1.06974 19.0395 0.0644531C18.6697 1.40051 18.3388 3.02842 18.1961 4.9028C18.0988 6.18697 18.1053 7.36737 18.1637 8.40508C18.9746 8.01594 19.9607 7.62031 21.1154 7.28954V7.28305Z" fill="#182D38"/>
<path d="M32.0203 7.27531C33.2334 7.63851 34.2649 8.08603 35.1018 8.5076C35.1212 7.42448 35.0888 6.2376 34.9785 4.9664C34.8163 3.13743 34.5179 1.49654 34.1806 0.0761719C33.1491 1.00363 31.9879 2.19051 30.8591 3.68871C30.0806 4.71994 29.4513 5.71226 28.9453 6.62026C29.8341 6.73051 30.885 6.93157 32.0333 7.27531H32.0203Z" fill="#182D38"/>
<path d="M41.203 13.1604C42.0269 14.1203 42.6561 15.0542 43.1297 15.8584C43.733 14.9569 44.3493 13.9452 44.9397 12.8102C45.796 11.1822 46.4317 9.63864 46.9118 8.26367C45.543 8.48419 43.9212 8.86036 42.1631 9.50893C40.95 9.94996 39.886 10.4494 38.9648 10.9358C39.6525 11.513 40.4245 12.2459 41.203 13.1539V13.1604Z" fill="#182D38"/>
<path d="M45.7345 23.069C45.9097 24.3207 45.9291 25.4428 45.8967 26.3767C46.8893 25.9422 47.9532 25.4233 49.069 24.7942C50.6714 23.8862 52.0402 22.9328 53.182 22.0378C51.9105 21.4865 50.347 20.9222 48.5111 20.5136C47.2526 20.2347 46.0848 20.0726 45.0469 19.9883C45.3129 20.8444 45.5723 21.8821 45.7345 23.069Z" fill="#182D38"/>
<path d="M44.1933 33.8618C43.6614 35.0098 43.0775 35.9696 42.5391 36.735C43.6095 36.9101 44.7837 37.0463 46.0617 37.1176C47.8976 37.2149 49.5648 37.1565 51.018 37.0203C50.246 35.8659 49.234 34.5493 47.917 33.2197C47.0088 32.3052 46.1136 31.5399 45.2897 30.9043C45.0497 31.7734 44.7058 32.7787 44.1998 33.8618H44.1933Z" fill="#182D38"/>
<path d="M37.0624 42.1034C35.992 42.778 34.9865 43.2709 34.1172 43.6276C34.9216 44.354 35.8363 45.1063 36.8743 45.8522C38.3664 46.9288 39.8001 47.7784 41.0911 48.4465C41.0651 47.0585 40.9224 45.4047 40.5331 43.5692C40.2672 42.311 39.9298 41.1825 39.573 40.2031C38.9048 40.8063 38.068 41.4678 37.0559 42.1034H37.0624Z" fill="#182D38"/>
<path d="M9.41797 25.2614H43.7488C43.7034 23.9967 43.5283 22.7644 43.2234 21.584H9.94344C9.64502 22.7644 9.46338 23.9967 9.42446 25.2614H9.41797Z" fill="#182D38"/>
<path d="M26.5829 43.0118C29.9952 43.0118 33.1805 42.0195 35.8532 40.3008H17.3125C19.9853 42.0195 23.1705 43.0118 26.5829 43.0118Z" fill="#182D38"/>
<path d="M26.5855 8.66406C23.1797 8.66406 20.0009 9.65638 17.3281 11.3686H35.8429C33.1702 9.65638 29.9979 8.66406 26.5855 8.66406Z" fill="#182D38"/>
<path d="M13.5532 37.0205H39.6257C40.495 36.0088 41.254 34.8932 41.8703 33.6934H11.3086C11.9249 34.8932 12.6839 36.0088 13.5532 37.0205Z" fill="#182D38"/>
<path d="M36.9863 12.1738H16.1944C15.0007 13.0818 13.9368 14.139 13.0156 15.3194H40.1586C39.2438 14.139 38.1734 13.0818 36.9798 12.1738H36.9863Z" fill="#182D38"/>
<path d="M12.1776 16.4883C11.4964 17.539 10.9255 18.661 10.4844 19.8479H42.6874C42.2463 18.661 41.6754 17.5325 40.9942 16.4883H12.1776Z" fill="#182D38"/>
<path d="M10.7735 30.9814H43.5604C43.9172 29.8528 44.1572 28.6724 44.2675 27.4531H10.0664C10.1767 28.6724 10.4232 29.8528 10.7735 30.9814Z" fill="#182D38"/>
<path d="M114.728 46.1988C115.098 46.1988 115.487 46.1664 115.857 46.0626C115.611 46.3869 115.319 46.6723 114.962 46.9447C114.54 47.2625 114.06 47.5219 113.58 47.71C113.21 47.8657 112.84 47.9759 112.484 48.0408C111.751 48.19 111.102 48.1446 110.745 47.8981C110.68 47.8592 110.635 47.8073 110.589 47.7554C110.479 47.6127 110.414 47.4052 110.745 46.4972C110.959 45.9135 111.342 45.0379 111.984 43.7019C112.159 43.3322 112.328 42.9949 112.484 42.6836V46.1988H114.728Z" fill="#182D38"/>
</svg>
