<svg width="204" height="53" viewBox="0 0 204 53" fill="none" xmlns="http://www.w3.org/2000/svg">
<path d="M114.728 46.4559C115.098 46.4559 115.487 46.4232 115.857 46.3187C115.611 46.6453 115.319 46.9327 114.962 47.207C114.54 47.527 114.06 47.7882 113.58 47.9776C113.21 48.1344 112.84 48.2454 112.484 48.3107C111.751 48.4609 111.102 48.4152 110.745 48.167C110.68 48.1278 110.635 48.0756 110.589 48.0233C110.479 47.8797 110.414 47.6707 110.745 46.7563C110.959 46.1685 111.342 45.2868 111.984 43.9414C112.159 43.5691 112.328 43.2295 112.484 42.916V46.4559H114.728Z" fill="#FBFCFE"/>
<path d="M75.2871 13.6706L78.8226 17.008C82.4815 13.5138 83.8114 10.1568 84.3433 8.39345C84.7845 6.91742 84.9272 5.86591 84.6742 4.78174C84.1422 2.48279 82.1831 0.993693 81.197 0.503859C76.604 -1.78856 67.0417 4.61193 62.1503 12.7889C57.2458 20.9854 57.7519 29.7698 59.7759 32.4998C60.8463 33.9497 62.2735 34.6681 62.2735 34.6681C64.1678 35.6282 65.9843 35.38 66.5097 35.3016C67.1455 35.2037 68.6505 34.8967 71.5893 32.4084C72.9841 31.2262 74.8589 29.4236 76.7208 26.8504C75.4298 25.8315 74.1453 24.8127 72.8543 23.7938C71.3039 26.6936 69.5134 28.555 68.2159 29.6849C67.2168 30.5535 64.0575 33.3097 62.6368 32.4084C62.4681 32.2973 62.027 31.9512 61.9167 30.1878C61.7286 27.1312 62.8184 24.6886 63.1298 24.0159C65.4458 19 66.5941 16.492 67.5477 14.6764C67.7423 14.3106 69.9675 10.1111 73.1592 5.97693C73.4641 5.58507 74.314 4.5009 75.7736 3.56042C76.072 3.36449 79.387 1.22881 80.6845 2.3391C81.8328 3.31877 80.7753 6.22512 80.5742 6.78679C80.0293 8.28895 79.1924 9.30127 77.5901 11.1757C76.6753 12.2533 75.8515 13.1024 75.2741 13.6771L75.2871 13.6706Z" fill="#FBFCFE"/>
<path d="M203.932 26.7074C203.724 26.5376 203.51 26.3612 203.303 26.1914C203.218 26.1196 203.101 26.1261 203.03 26.211C202.355 26.9556 201.389 27.9352 200.117 28.9541C198.872 29.9533 197.341 31.1877 196.809 30.7893C196.218 30.3583 197.055 28.2487 197.191 27.9026C197.594 26.8902 198.126 26.1457 198.521 25.6755C198.56 25.6232 198.573 25.5579 198.554 25.4926C198.456 25.1595 198.288 24.7415 198.009 24.3039C197.613 23.6835 197.146 23.272 196.796 23.0108C196.711 22.9454 196.588 22.9716 196.523 23.0565C194.661 25.5579 192.787 27.0339 191.45 27.9026C190.672 28.4055 189.147 29.3982 188.745 29.0129C188.297 28.5753 189.446 26.5898 190.347 25.4011C191.249 24.206 192.884 22.5013 195.823 21.2212C195.978 21.1559 195.998 20.9404 195.849 20.8555C195.187 20.4636 194.525 20.0718 193.863 19.6734C193.805 19.6407 193.727 19.6342 193.669 19.6668C189.108 21.809 187.006 24.01 185.929 25.6755C185.728 25.9955 184.917 27.2821 183.445 28.5687C182.348 29.5223 180.221 31.0506 179.578 30.515C179.066 30.084 179.656 28.5622 180.519 26.3416C181.135 24.7546 181.765 23.4875 182.225 22.6254C182.264 22.5536 182.251 22.4687 182.199 22.4099C181.888 22.0246 181.479 21.6 180.967 21.1755C180.37 20.6792 179.786 20.3199 179.286 20.0652C179.17 20.0064 179.04 20.0652 179.008 20.1958C178.67 21.5347 178.047 23.3765 176.821 25.2901C174.94 28.2095 171.787 31.0702 170.801 30.4562C170.113 30.0317 170.619 28.0136 170.911 26.8445C171.411 24.8591 172.326 23.3961 172.994 22.5079C173.065 22.4164 173.039 22.2858 172.948 22.2205C171.846 21.4368 170.749 20.653 169.646 19.8693C169.575 19.817 169.484 19.817 169.413 19.8628C167.557 21.0775 166.344 22.2989 165.553 23.2328C165.027 23.8533 164.515 24.5652 164.288 24.4541C164.002 24.3235 164.32 23.0369 164.677 21.8417C164.709 21.7437 164.664 21.6458 164.573 21.6C163.406 21.0188 162.244 20.444 161.077 19.8628C160.947 19.7975 160.798 19.8824 160.785 20.026C160.674 21.267 160.344 23.0304 159.37 24.8983C158.54 26.5114 157.586 27.5107 156.944 28.1769C156.451 28.6863 154.213 31.0114 153.409 30.515C153.143 30.3452 153.11 29.9207 153.13 29.4439C153.207 27.1645 154.388 24.7676 155.29 23.2328C155.361 23.1022 155.283 22.9454 155.134 22.9259C154.155 22.8279 151.242 22.3185 150.042 19.8954C149.633 19.0725 149.536 18.2561 149.542 17.6161C149.328 17.4724 148.991 17.2895 148.608 17.3418C148.219 17.394 147.81 17.6748 147.058 19.1182C146.733 19.7452 146.318 20.6465 145.948 21.8025C145.922 21.8874 145.955 21.9854 146.026 22.0376C146.623 22.436 147.22 22.8409 147.823 23.2524C147.888 23.5594 147.927 23.7357 147.992 24.0427C147.551 24.7415 146.915 25.584 146.013 26.4004C145.831 26.5637 143.022 29.0586 142.036 28.3467C141.543 27.9875 141.595 26.8968 141.926 26.1784C142.16 25.6689 142.529 25.3554 142.782 25.1856C142.886 25.1138 142.906 24.9766 142.828 24.8852C142.114 23.9774 141.394 23.0761 140.674 22.1682C140.603 22.0768 140.473 22.0637 140.382 22.1421C139.753 22.6581 138.527 23.8533 138.008 25.7865C137.709 26.8837 137.748 27.8438 137.826 28.4838C137.839 28.5426 137.826 28.5883 137.787 28.634C137.443 29.0586 136.918 29.6137 136.185 30.1231C135.387 30.6783 134.926 30.9983 134.641 30.8481C133.966 30.5019 134.42 27.7458 135.413 25.6755C135.919 24.6109 137.035 22.756 139.5 21.1494C139.61 21.0776 139.623 20.9143 139.526 20.8228C139.182 20.5159 138.695 20.1763 138.06 20.0064C135.763 19.3991 133.57 21.5935 132.818 22.3446C130.917 24.2451 130.327 26.5245 130.126 27.7132C130.113 27.7654 130.093 27.8046 130.048 27.8373C128.997 28.6536 127.712 29.5223 126.188 30.3452C124.294 31.3706 122.522 32.0498 121.011 32.5135C120.862 32.5592 120.719 32.4221 120.758 32.2719C121.108 30.7763 121.653 29.0324 122.49 27.1776C123.016 26.0216 123.573 24.9962 124.125 24.1015C124.138 24.0753 124.157 24.0557 124.183 24.0427C127.187 21.9201 130.82 18.8896 133.921 14.8926C135.471 12.8941 136.107 11.6989 137.346 9.28236C138.994 6.04292 139.026 4.94569 138.721 4.05746C138.326 2.89492 137.242 1.80423 135.964 1.60829C135.549 1.54951 134.582 1.36664 132.759 2.82961C127.712 6.88544 125.306 11.5029 125.306 11.5029C122.775 16.2315 121.407 19.8562 120.615 22.3446C120.421 22.9454 120.064 24.121 119.233 25.5122C117.313 28.7385 114.063 31.1616 113.161 30.5673C112.804 30.3387 112.934 29.568 113.103 28.51C113.479 26.2437 114.387 24.3823 115.348 22.9585C115.393 22.8867 115.393 22.7952 115.341 22.7299C115.062 22.3576 114.725 21.9527 114.323 21.5478C113.583 20.8163 112.837 20.2938 112.201 19.9215C112.071 19.8432 111.909 19.9346 111.903 20.0848C111.851 20.9208 111.682 22.018 111.228 23.2328C110.703 24.6174 110.021 25.5775 109.684 26.0085C109.327 26.4657 108.808 27.0601 107.401 28.1834C104.812 30.2407 103.521 31.2726 102.769 30.8873C101.802 30.3975 102.036 28.0854 102.146 27.0143C102.34 25.1138 103.009 23.6704 103.482 22.8148C103.495 22.7952 103.508 22.7822 103.521 22.7626C107.997 18.4324 111.124 14.5203 113.213 11.614C113.213 11.614 117.307 5.93842 115.977 4.05746C115.38 3.20842 114.433 2.55531 114.433 2.55531C114.433 2.55531 113.849 2.15038 113.323 1.94138C111.877 1.36011 107.024 5.33103 103.054 12.3912C101.471 15.2191 99.3693 19.6995 98.1626 25.8387C98.1562 25.8649 98.1432 25.891 98.1302 25.9106C97.6372 26.6029 96.8587 27.576 95.7623 28.5949C94.6595 29.6137 93.0636 31.0832 92.363 30.6718C91.7272 30.293 92.0192 28.4904 92.5122 27.3474C92.869 26.518 93.3685 25.9367 93.7383 25.5775C93.7967 25.5252 93.8161 25.4469 93.7837 25.375C93.6604 25.0354 93.4334 24.5586 93.0247 24.0884C92.6873 23.6965 92.3305 23.4288 92.0516 23.2589C91.9673 23.2067 91.857 23.2328 91.7921 23.3047C91.0136 24.1798 90.3324 24.9048 89.807 25.4534C87.7635 27.5825 86.8163 28.3401 85.6097 28.843C85.0129 29.0978 84.0203 29.5157 83.7349 29.1761C83.2872 28.6536 84.7534 26.6159 85.72 25.5122C86.6671 24.428 87.6337 23.6835 89.1453 22.5079C89.781 22.0115 90.3454 21.6 90.7736 21.2996C90.8904 21.2147 90.8839 21.0318 90.7606 20.9535L88.8988 19.7844C88.8469 19.7517 88.782 19.7387 88.7236 19.7648C86.9461 20.4048 83.7089 21.9005 81.4124 25.2313C79.6089 27.8503 78.1817 31.9061 79.3689 32.9054C80.8804 34.1724 86.3168 30.2995 86.9461 29.5549C87.2445 29.2023 87.6532 28.9541 87.9451 28.5949C88.0489 28.4642 88.1852 28.2879 88.3733 28.2879C88.5679 28.2879 88.7431 28.5034 88.8144 28.6798C88.9961 29.15 88.516 29.6007 88.3149 30.097C87.8738 31.1812 88.5809 32.9381 89.5864 33.4605C90.7152 34.0418 92.1813 33.0295 94.3157 31.6253C95.8661 30.5999 97.0274 29.5484 97.8058 28.7516C97.9161 28.6406 98.1107 28.6928 98.1432 28.8496C98.753 31.4424 100.05 33.2777 101.62 33.5128C101.932 33.5585 102.639 33.5977 104.767 32.2915C105.973 31.5535 107.368 30.5477 108.795 29.1761C108.945 29.0324 109.178 29.1696 109.133 29.3721C108.769 30.9722 109.133 32.4417 110.015 33.0556C111.358 33.9765 113.479 32.6442 114.485 32.0106C115.341 31.4751 115.99 30.8546 116.463 30.293C116.606 30.1297 116.866 30.2668 116.814 30.4758C116.548 31.6384 116.282 32.8009 116.016 33.97C115.99 34.0614 115.912 34.1267 115.815 34.1267H112.208C112.091 34.1267 112 34.2182 112 34.3292V35.6942C112 35.8117 112.097 35.9032 112.214 35.8966C113.259 35.864 114.303 35.8313 115.354 35.8052C115.497 35.8052 115.601 35.9358 115.549 36.073C115.354 36.6543 115.075 37.438 114.692 38.3523C114.31 39.2667 113.966 39.9851 113.589 40.7362C113.349 41.2195 113.09 41.7224 112.798 42.3037H114.731C115.685 42.3037 116.781 42.5323 117.17 43.5119C117.359 42.9568 117.553 42.3233 117.787 41.5983C117.962 41.0432 118.157 40.4358 118.377 39.7696C119.045 37.745 119.72 36.0665 120.245 34.819C120.271 34.7668 120.317 34.7276 120.369 34.7145C121.815 34.29 123.522 33.6695 125.364 32.7356C127.193 31.8082 128.711 30.7958 129.912 29.875C130.028 29.7901 130.19 29.8488 130.223 29.9925C130.392 30.822 130.917 32.6442 132.429 33.4605C134.608 34.6296 138.274 33.3952 140.317 29.7901C140.356 29.7247 140.427 29.6856 140.505 29.6921C141.271 29.7705 142.218 29.7639 143.249 29.5157C146.772 28.6536 148.595 25.6167 149.095 24.6827C149.133 24.6109 149.211 24.5717 149.296 24.5782C149.73 24.6174 150.171 24.6631 150.613 24.7023C150.755 24.7154 150.84 24.8787 150.762 25.0093C148.842 28.4055 148.472 31.5012 149.711 32.6246C150.197 33.0687 150.93 33.1993 151.145 33.2385C152.701 33.5128 153.979 32.6572 155.173 31.8474C155.783 31.4359 156.613 30.7958 157.45 29.8292C157.593 29.666 157.839 29.7835 157.807 29.9925C157.729 30.515 157.729 31.1812 158.047 31.8474C158.65 33.1209 160.155 33.8785 161.758 33.6499C161.849 33.6369 161.92 33.565 161.933 33.4736C162.043 32.5331 162.29 31.2792 162.848 29.9011C164.502 25.8322 167.862 23.174 168.368 23.5528C168.758 23.8402 167.11 25.7473 166.883 29.3459C166.811 30.4628 166.656 32.9119 167.817 33.5128C168.628 33.9308 169.705 33.2973 171.521 32.1804C173.098 31.2138 174.337 30.2146 175.251 29.3917C175.381 29.2741 175.589 29.3721 175.589 29.5484C175.576 31.3902 176.218 32.8989 177.262 33.2907C178.268 33.6695 179.423 32.9315 180.85 32.0106C181.706 31.462 182.381 30.8808 182.9 30.3713C183.036 30.2342 183.27 30.3517 183.237 30.5411C183.108 31.3379 183.263 32.0759 183.717 32.5723C184.379 33.2842 185.41 33.2124 185.929 33.1797C186.727 33.1275 187.726 32.8401 190.127 30.9003C192.209 29.2219 192.942 28.2357 193.325 28.4577C193.987 28.83 192.261 31.978 193.435 33.1275C193.967 33.6434 194.837 33.5128 195.589 33.4018C196.348 33.2907 198.242 32.8727 202.329 28.732C203.011 28.0397 203.568 27.4323 203.951 27.0013C204.029 26.9164 204.016 26.7857 203.932 26.7074ZM132.487 7.55814C133.577 5.70984 135.043 3.28026 136.185 3.55457C136.464 3.61988 136.639 3.8354 136.678 3.88765C137.69 5.16122 135.315 8.69456 133.311 11.6727C131.618 14.1938 130.366 15.5588 129.834 16.1139C128.283 17.7532 126.798 19.3207 126.408 19.066C125.961 18.759 128.076 14.9905 132.487 7.55814ZM106.402 14.6771C106.966 13.2598 107.517 12.0581 110.43 7.04218C110.43 7.04218 110.988 6.07558 112.869 4.50158C113.012 4.38402 113.285 4.16196 113.453 4.24687C113.687 4.37096 113.57 5.01754 113.531 5.25266C113.194 7.21852 110.884 10.7192 110.021 12.0646C109.12 13.4688 108.49 14.566 107.199 16.1727C106.538 16.9891 105.74 17.9753 105.5 17.8381C105.214 17.6814 105.863 16.0355 106.402 14.6771Z" fill="#FBFCFE"/>
<path d="M116.398 12.4689C116.827 12.3448 117.209 12.4884 117.625 12.6452C118.124 12.8281 118.753 13.0632 118.98 13.6183C119.227 14.2257 118.838 14.8854 118.273 15.8128C117.871 16.4855 117.67 16.8186 117.242 16.9623C116.567 17.1908 115.873 16.7729 115.542 16.5769C115.192 16.3614 114.848 16.1589 114.686 15.754C114.446 15.1466 114.783 14.5327 115.179 13.8143C115.549 13.1416 115.828 12.6321 116.392 12.4754L116.398 12.4689Z" fill="#FBFCFE"/>
<path d="M183.094 12.4689C183.522 12.3448 183.905 12.4884 184.32 12.6452C184.819 12.8281 185.449 13.0632 185.676 13.6183C185.922 14.2257 185.533 14.8854 184.969 15.8128C184.566 16.4855 184.365 16.8186 183.937 16.9623C183.262 17.1908 182.568 16.7729 182.237 16.5769C181.887 16.3614 181.543 16.1589 181.381 15.754C181.141 15.1466 181.478 14.5327 181.874 13.8143C182.244 13.1416 182.523 12.6321 183.087 12.4754L183.094 12.4689Z" fill="#FBFCFE"/>
<path d="M62.066 45.1354C60.9761 44.8219 60.0355 44.5476 60.0355 43.581C60.0355 42.6797 60.7166 42.1637 61.9038 42.1637C62.6628 42.1637 63.4413 42.438 64.0965 42.9409L64.2717 43.0781L64.7777 41.6216L64.6869 41.5498C63.9862 40.9751 62.9418 40.6289 61.8973 40.6289C59.4192 40.6289 58.5369 42.1833 58.5369 43.6398C58.5369 45.8081 60.2236 46.2979 61.5795 46.6898C62.6628 47.0033 63.597 47.2711 63.597 48.2442C63.597 49.1194 62.9029 49.6223 61.6897 49.6223C60.7037 49.6223 59.6722 49.1912 59.0494 48.5185L58.8742 48.3291L58.2969 49.7725L58.3617 49.8508C59.0818 50.6476 60.3793 51.1571 61.6833 51.1571C64.1938 51.1571 65.0826 49.5439 65.0826 48.1593C65.0826 46.0236 63.4024 45.5338 62.0465 45.1419L62.066 45.1354Z" fill="#FBFCFE"/>
<path d="M124.144 45.1354C123.054 44.8219 122.114 44.5476 122.114 43.581C122.114 42.6797 122.795 42.1637 123.982 42.1637C124.741 42.1637 125.519 42.438 126.175 42.9409L126.35 43.0781L126.856 41.6216L126.765 41.5498C126.064 40.9751 125.02 40.6289 123.975 40.6289C121.497 40.6289 120.615 42.1833 120.615 43.6398C120.615 45.8081 122.302 46.2979 123.658 46.6898C124.741 47.0033 125.675 47.2711 125.675 48.2442C125.675 49.1194 124.981 49.6223 123.768 49.6223C122.788 49.6223 121.75 49.1912 121.128 48.5185L120.952 48.3291L120.375 49.7725L120.446 49.8508C121.166 50.6476 122.464 51.1571 123.768 51.1571C126.278 51.1571 127.167 49.5439 127.167 48.1593C127.167 46.0236 125.487 45.5338 124.131 45.1419L124.144 45.1354Z" fill="#FBFCFE"/>
<path d="M73.5489 45.0253H68.1839V40.7344H66.4453V51.0339H68.1839V46.5863H73.5489V51.0339H75.2875V40.7344H73.5489V45.0253Z" fill="#FBFCFE"/>
<path d="M83.6352 46.4551C83.6352 48.4994 82.7724 49.4986 80.9949 49.4986C79.2173 49.4986 78.3675 48.5059 78.3675 46.4551V40.6816H76.6289V46.5139C76.6289 49.4268 78.2118 51.0922 80.9754 51.0922C83.739 51.0922 85.3219 49.4203 85.3219 46.5139V40.6816H83.6222V46.4551H83.6352Z" fill="#FBFCFE"/>
<path d="M86.6797 42.3018H89.1708V51.0339H90.8964V42.3018H93.3811V40.7344H86.6797V42.3018Z" fill="#FBFCFE"/>
<path d="M94.7305 42.3018H97.2216V51.0339H98.9472V42.3018H101.438V40.7344H94.7305V42.3018Z" fill="#FBFCFE"/>
<path d="M132.945 42.2875H135.43V51.0196H137.156V42.2875H139.647V40.7266H132.945V42.2875Z" fill="#FBFCFE"/>
<path d="M185.145 42.2875H187.629V51.0196H189.355V42.2875H191.846V40.7266H185.145V42.2875Z" fill="#FBFCFE"/>
<path d="M104.52 46.5732H108.6V45.0384H104.52V42.3018H109.204V40.7344H102.781V51.0339H109.405V49.4665H104.52V46.5732Z" fill="#FBFCFE"/>
<path d="M119.063 44.3787C119.076 43.9346 119.011 43.079 118.447 42.2822C118.265 42.0275 118.044 41.7989 117.785 41.5965C117.039 41.0348 116.001 40.7344 114.768 40.7344H110.746V51.0274H112.485V47.9904L113.581 47.9774H114.347L116.481 51.0274H118.421L116.144 47.7815C116.611 47.69 117.207 47.481 117.765 47.0173C118.057 46.7691 119.024 45.8548 119.063 44.3787ZM115.858 46.3185C115.488 46.423 115.099 46.4556 114.729 46.4556H112.485V42.3018H114.729C115.683 42.3018 116.779 42.5304 117.169 43.5101C117.272 43.7518 117.324 44.0326 117.324 44.3722C117.324 45.5609 116.656 46.0964 115.858 46.3185Z" fill="#FBFCFE"/>
<path d="M161.434 44.3651C161.447 43.9275 161.389 43.0719 160.818 42.2686C160.098 41.2563 158.826 40.7207 157.146 40.7207H153.117V51.0203H154.856V47.9833H156.744L158.858 51.0203H160.798L158.515 47.7678C158.982 47.6763 159.579 47.4673 160.136 47.0036C160.428 46.762 161.395 45.8476 161.434 44.3651ZM157.1 46.4485H154.856V42.2882H157.1C158.288 42.2882 159.695 42.6474 159.695 44.3585C159.695 46.0697 158.288 46.4485 157.1 46.4485Z" fill="#FBFCFE"/>
<path d="M146.393 40.6094C143.292 40.6094 140.957 42.8691 140.957 45.8669C140.957 48.8647 143.292 51.131 146.393 51.131C149.494 51.131 151.804 48.8712 151.804 45.8669C151.804 42.8626 149.481 40.6094 146.393 40.6094ZM146.393 49.5374C144.253 49.5374 142.696 47.9961 142.696 45.8669C142.696 43.7378 144.253 42.203 146.393 42.203C148.534 42.203 150.065 43.7443 150.065 45.8669C150.065 47.9895 148.521 49.5374 146.393 49.5374Z" fill="#FBFCFE"/>
<path d="M168.186 40.6094C165.085 40.6094 162.75 42.8691 162.75 45.8669C162.75 48.8647 165.085 51.131 168.186 51.131C171.287 51.131 173.597 48.8712 173.597 45.8669C173.597 42.8626 171.274 40.6094 168.186 40.6094ZM168.186 49.5374C166.046 49.5374 164.489 47.9961 164.489 45.8669C164.489 43.7378 166.046 42.203 168.186 42.203C170.327 42.203 171.858 43.7443 171.858 45.8669C171.858 47.9895 170.314 49.5374 168.186 49.5374Z" fill="#FBFCFE"/>
<path d="M198.593 40.6094C195.492 40.6094 193.156 42.8691 193.156 45.8669C193.156 48.8647 195.492 51.131 198.593 51.131C201.694 51.131 204.003 48.8712 204.003 45.8669C204.003 42.8626 201.681 40.6094 198.593 40.6094ZM198.593 49.5374C196.452 49.5374 194.895 47.9961 194.895 45.8669C194.895 43.7378 196.452 42.203 198.593 42.203C200.733 42.203 202.264 43.7443 202.264 45.8669C202.264 47.9895 200.72 49.5374 198.593 49.5374Z" fill="#FBFCFE"/>
<path d="M182.011 40.8316V47.0884L174.921 40.3418L174.914 51.1247H176.653L176.711 44.6719L183.834 51.4055L183.75 40.8316H182.011Z" fill="#FBFCFE"/>
<path d="M26.6028 45.4365C25.3378 45.43 24.222 45.2929 23.3008 45.123C23.5862 46.1746 23.9495 47.311 24.4166 48.5062C25.0848 50.2304 25.8373 51.726 26.5639 52.9996C27.2905 51.8109 28.069 50.3349 28.7371 48.5649C29.1977 47.3502 29.5156 46.2137 29.7492 45.1884C28.8604 45.332 27.803 45.4365 26.6028 45.43V45.4365Z" fill="#FBFCFE"/>
<path d="M16.1404 42.3548C15.0829 41.656 14.2136 40.9376 13.5325 40.291C13.2081 41.3295 12.9032 42.4855 12.6567 43.746C12.2934 45.5616 12.1182 47.2336 12.0469 48.6966C13.2989 48.0957 14.7456 47.2728 16.2507 46.1494C17.2886 45.3788 18.1709 44.595 18.9169 43.8635C18.093 43.5043 17.1459 43.0145 16.1404 42.3548Z" fill="#FBFCFE"/>
<path d="M8.99771 34.0666C8.47873 32.9041 8.14139 31.8265 7.90784 30.9121C7.07747 31.6109 6.20168 32.4143 5.31292 33.3417C4.03492 34.674 2.99046 35.9803 2.14062 37.1754C3.51594 37.3518 5.17669 37.4498 7.05152 37.3191C8.33601 37.2342 9.50372 37.0579 10.5222 36.8489C10.0227 36.0978 9.48426 35.1704 8.99771 34.0666Z" fill="#FBFCFE"/>
<path d="M7.43446 23.1991C7.62259 21.9386 7.91452 20.8479 8.21294 19.9531C7.13604 20.0903 5.96833 20.2927 4.72276 20.5866C2.93227 21.0112 1.34936 21.5402 0 22.0823C1.06392 22.977 2.40679 23.9632 4.04808 24.8776C5.17687 25.5046 6.24728 25.9944 7.22038 26.3667C7.2074 25.4654 7.25281 24.3878 7.42797 23.1991H7.43446Z" fill="#FBFCFE"/>
<path d="M11.9551 13.2118C12.792 12.2517 13.6224 11.4941 14.3554 10.9063C13.3823 10.436 12.286 9.97232 11.0858 9.54127C9.35372 8.92081 7.73838 8.50935 6.30469 8.22852C6.71988 9.56086 7.3232 11.1218 8.21196 12.7872C8.82176 13.9302 9.4705 14.9229 10.0803 15.7654C10.5539 14.9948 11.1702 14.1196 11.9551 13.2118Z" fill="#FBFCFE"/>
<path d="M21.1154 7.26913C22.335 6.91645 23.4379 6.73358 24.372 6.63561C23.8011 5.70819 23.133 4.722 22.3545 3.70314C21.2257 2.24017 20.0904 1.01232 19.0395 0C18.6697 1.34541 18.3388 2.98472 18.1961 4.87221C18.0988 6.16537 18.1053 7.35404 18.1637 8.39901C18.9746 8.00715 19.9607 7.60875 21.1154 7.27566V7.26913Z" fill="#FBFCFE"/>
<path d="M32.0203 7.26321C33.2334 7.62895 34.2649 8.0796 35.1018 8.50412C35.1212 7.41343 35.0888 6.21823 34.9785 4.93813C34.8163 3.09636 34.5179 1.44399 34.1806 0.0136719C33.1491 0.947621 31.9879 2.14282 30.8591 3.6515C30.0806 4.68995 29.4513 5.68921 28.9453 6.60357C29.8341 6.7146 30.885 6.91706 32.0333 7.26321H32.0203Z" fill="#FBFCFE"/>
<path d="M41.1991 13.1869C42.0229 14.1535 42.6522 15.0939 43.1258 15.9038C43.7291 14.996 44.3454 13.9771 44.9357 12.8342C45.7921 11.1949 46.4278 9.64046 46.9079 8.25586C45.5391 8.47792 43.9172 8.85672 42.1592 9.50983C40.9461 9.95395 39.8821 10.4568 38.9609 10.9467C39.6486 11.5279 40.4206 12.266 41.1991 13.1803V13.1869Z" fill="#FBFCFE"/>
<path d="M45.7345 23.1667C45.9097 24.4272 45.9291 25.5571 45.8967 26.4976C46.8893 26.06 47.9532 25.5375 49.069 24.904C50.6714 23.9897 52.0402 23.0296 53.182 22.1283C51.9105 21.5731 50.347 21.0049 48.5111 20.5935C47.2526 20.3126 46.0848 20.1494 45.0469 20.0645C45.3129 20.9266 45.5723 21.9715 45.7345 23.1667Z" fill="#FBFCFE"/>
<path d="M44.1933 34.0329C43.6614 35.1889 43.0775 36.1555 42.5391 36.9262C43.6095 37.1025 44.7837 37.2397 46.0617 37.3115C47.8976 37.4095 49.5648 37.3507 51.018 37.2135C50.246 36.051 49.234 34.7252 47.917 33.3863C47.0088 32.4654 46.1136 31.6947 45.2897 31.0547C45.0497 31.9299 44.7058 32.9422 44.1998 34.0329H44.1933Z" fill="#FBFCFE"/>
<path d="M37.0624 42.3355C35.992 43.0147 34.9865 43.5111 34.1172 43.8703C34.9216 44.6018 35.8363 45.3594 36.8743 46.1105C38.3664 47.1946 39.8001 48.0502 41.091 48.7229C41.0651 47.3253 40.9224 45.6598 40.5331 43.8115C40.2672 42.5445 39.9298 41.4081 39.573 40.4219C38.9048 41.0293 38.068 41.6954 37.0559 42.3355H37.0624Z" fill="#FBFCFE"/>
<path d="M9.41797 25.3731H43.7488C43.7034 24.0995 43.5283 22.8586 43.2233 21.6699H9.94344C9.64502 22.8586 9.46338 24.0995 9.42446 25.3731H9.41797Z" fill="#FBFCFE"/>
<path d="M26.5868 43.2495C29.9991 43.2495 33.1844 42.2503 35.8571 40.5195H17.3164C19.9892 42.2503 23.1744 43.2495 26.5868 43.2495Z" fill="#FBFCFE"/>
<path d="M26.5855 8.66016C23.1797 8.66016 20.0009 9.65942 17.3281 11.3836H35.8429C33.1701 9.65942 29.9978 8.66016 26.5855 8.66016Z" fill="#FBFCFE"/>
<path d="M13.5532 37.2137H39.6257C40.495 36.1949 41.254 35.0715 41.8703 33.8633H11.3086C11.9249 35.0715 12.6839 36.1949 13.5532 37.2137Z" fill="#FBFCFE"/>
<path d="M36.9823 12.1934H16.1905C14.9968 13.1077 13.9329 14.1723 13.0117 15.361H40.1546C39.2399 14.1723 38.1695 13.1077 36.9758 12.1934H36.9823Z" fill="#FBFCFE"/>
<path d="M12.1776 16.5371C11.4964 17.5952 10.9255 18.725 10.4844 19.9202H42.6874C42.2463 18.725 41.6754 17.5886 40.9942 16.5371H12.1776Z" fill="#FBFCFE"/>
<path d="M10.7735 31.133H43.5604C43.9172 29.9966 44.1572 28.8079 44.2675 27.5801H10.0664C10.1767 28.8079 10.4232 29.9966 10.7735 31.133Z" fill="#FBFCFE"/>
</svg>
