<svg width="176" height="179" viewBox="0 0 176 179" fill="none" xmlns="http://www.w3.org/2000/svg">
<path d="M68.027 173.048C68.4686 173.048 68.9335 173.009 69.3752 172.885C69.0808 173.273 68.7321 173.614 68.3059 173.94C67.8022 174.32 67.2288 174.63 66.6554 174.855C66.2138 175.041 65.7721 175.173 65.3459 175.251C64.4703 175.429 63.6955 175.375 63.2693 175.08C63.1918 175.033 63.1376 174.971 63.0833 174.909C62.9516 174.739 62.8741 174.49 63.2693 173.405C63.525 172.706 63.9822 171.659 64.7493 170.062C64.9585 169.619 65.16 169.216 65.3459 168.844V173.048H68.027Z" fill="#FBFCFE"/>
<path d="M20.7413 134.041L24.9802 138.015C29.3669 133.855 30.9614 129.858 31.5992 127.758C32.1281 126.001 32.2992 124.749 31.9958 123.458C31.3581 120.721 29.0091 118.948 27.8269 118.365C22.3202 115.636 10.8556 123.256 4.99107 132.992C-0.889002 142.75 -0.282331 153.209 2.14436 156.459C3.42771 158.186 5.13884 159.041 5.13884 159.041C7.40998 160.184 9.58778 159.889 10.2178 159.795C10.98 159.679 12.7845 159.313 16.3079 156.351C17.9801 154.943 20.2279 152.797 22.4602 149.733C20.9124 148.52 19.3724 147.307 17.8246 146.094C15.9656 149.547 13.819 151.763 12.2634 153.108C11.0656 154.142 7.27776 157.424 5.57441 156.351C5.37218 156.218 4.84329 155.806 4.71106 153.707C4.48551 150.068 5.79218 147.159 6.16552 146.358C8.94222 140.387 10.3189 137.401 11.4623 135.239C11.6956 134.803 14.3634 129.803 18.1901 124.881C18.5557 124.415 19.5746 123.124 21.3246 122.004C21.6824 121.771 25.6569 119.228 27.2124 120.55C28.5891 121.716 27.3213 125.177 27.0802 125.846C26.4269 127.634 25.4235 128.839 23.5024 131.071C22.4057 132.354 21.4179 133.365 20.7257 134.049L20.7413 134.041Z" fill="#FBFCFE"/>
<path d="M174.978 149.559C174.729 149.357 174.473 149.147 174.224 148.945C174.123 148.86 173.982 148.867 173.897 148.968C173.088 149.855 171.929 151.021 170.405 152.234C168.911 153.424 167.076 154.894 166.438 154.419C165.73 153.906 166.734 151.395 166.897 150.982C167.379 149.777 168.017 148.891 168.491 148.331C168.538 148.269 168.554 148.191 168.53 148.113C168.414 147.717 168.211 147.219 167.877 146.698C167.402 145.959 166.842 145.469 166.422 145.158C166.321 145.08 166.174 145.112 166.096 145.213C163.863 148.191 161.616 149.948 160.013 150.982C159.08 151.581 157.252 152.763 156.77 152.304C156.233 151.783 157.61 149.419 158.691 148.004C159.772 146.581 161.732 144.552 165.256 143.028C165.442 142.95 165.466 142.693 165.287 142.592C164.494 142.126 163.7 141.659 162.907 141.185C162.837 141.146 162.743 141.138 162.673 141.177C157.206 143.727 154.686 146.348 153.394 148.331C153.153 148.712 152.181 150.244 150.416 151.776C149.101 152.911 146.55 154.73 145.78 154.093C145.165 153.58 145.873 151.768 146.908 149.124C147.647 147.234 148.401 145.726 148.953 144.699C149 144.614 148.984 144.513 148.922 144.443C148.549 143.984 148.059 143.479 147.444 142.973C146.729 142.382 146.029 141.955 145.43 141.651C145.29 141.581 145.134 141.651 145.095 141.807C144.691 143.401 143.944 145.594 142.474 147.872C140.219 151.348 136.439 154.754 135.256 154.023C134.432 153.517 135.039 151.115 135.389 149.723C135.988 147.359 137.084 145.617 137.885 144.559C137.971 144.451 137.94 144.295 137.831 144.217C136.509 143.284 135.194 142.351 133.872 141.418C133.786 141.356 133.678 141.356 133.592 141.41C131.368 142.857 129.913 144.311 128.964 145.423C128.334 146.161 127.72 147.009 127.448 146.877C127.105 146.721 127.486 145.189 127.914 143.766C127.953 143.65 127.899 143.533 127.79 143.479C126.39 142.787 124.997 142.102 123.597 141.41C123.442 141.332 123.263 141.434 123.247 141.605C123.115 143.082 122.719 145.182 121.552 147.405C120.556 149.326 119.413 150.516 118.643 151.309C118.052 151.916 115.368 154.684 114.404 154.093C114.085 153.891 114.046 153.385 114.07 152.818C114.163 150.104 115.578 147.25 116.66 145.423C116.745 145.267 116.652 145.08 116.473 145.057C115.298 144.941 111.806 144.334 110.367 141.449C109.877 140.469 109.761 139.497 109.768 138.735C109.512 138.564 109.107 138.347 108.648 138.409C108.182 138.471 107.692 138.805 106.789 140.524C106.401 141.27 105.903 142.343 105.459 143.72C105.428 143.821 105.467 143.937 105.553 144C106.268 144.474 106.984 144.956 107.707 145.446C107.785 145.811 107.832 146.021 107.909 146.387C107.381 147.219 106.618 148.222 105.537 149.194C105.319 149.388 101.952 152.359 100.769 151.511C100.178 151.084 100.241 149.785 100.637 148.93C100.917 148.323 101.361 147.95 101.664 147.748C101.788 147.662 101.812 147.499 101.718 147.39C100.863 146.309 99.9994 145.236 99.1361 144.155C99.0505 144.046 98.8949 144.031 98.7861 144.124C98.0316 144.738 96.5616 146.161 95.9393 148.463C95.5816 149.769 95.6282 150.912 95.7216 151.674C95.7371 151.744 95.7216 151.799 95.6749 151.853C95.2627 152.359 94.6327 153.02 93.7538 153.626C92.7971 154.287 92.2449 154.668 91.9026 154.489C91.0937 154.077 91.6382 150.796 92.8282 148.331C93.4349 147.063 94.7727 144.855 97.7283 142.942C97.8605 142.857 97.876 142.662 97.7594 142.553C97.3472 142.188 96.7638 141.783 96.0016 141.581C93.2482 140.858 90.6193 143.471 89.7171 144.365C87.4381 146.628 86.7304 149.342 86.4892 150.757C86.4737 150.819 86.4504 150.866 86.3959 150.905C85.1359 151.877 83.5959 152.911 81.7681 153.891C79.4969 155.111 77.3736 155.92 75.5613 156.472C75.3824 156.527 75.2113 156.363 75.258 156.185C75.678 154.404 76.3313 152.328 77.3347 150.119C77.9647 148.743 78.6336 147.522 79.2947 146.457C79.3103 146.426 79.3336 146.402 79.3647 146.387C82.9659 143.86 87.3215 140.252 91.0393 135.493C92.8982 133.113 93.6604 131.69 95.146 128.813C97.1216 124.956 97.1605 123.65 96.7949 122.592C96.3205 121.208 95.0216 119.91 93.4893 119.676C92.9915 119.606 91.8326 119.389 89.6471 121.131C83.5959 125.959 80.7103 131.457 80.7103 131.457C77.6769 137.087 76.0358 141.402 75.0869 144.365C74.8535 145.08 74.4258 146.48 73.4302 148.136C71.1279 151.978 67.2312 154.863 66.1501 154.155C65.7223 153.883 65.8779 152.965 66.0801 151.706C66.5312 149.007 67.6201 146.791 68.7713 145.096C68.8257 145.01 68.8257 144.902 68.7635 144.824C68.429 144.381 68.0246 143.899 67.5423 143.416C66.6557 142.546 65.7612 141.923 64.999 141.48C64.8434 141.387 64.649 141.496 64.6412 141.675C64.579 142.67 64.3768 143.976 63.8323 145.423C63.2023 147.071 62.3856 148.214 61.9812 148.727C61.5534 149.272 60.9312 149.979 59.2434 151.317C56.14 153.766 54.5922 154.995 53.69 154.536C52.5311 153.953 52.8111 151.2 52.9433 149.925C53.1766 147.662 53.9777 145.944 54.5455 144.925C54.5611 144.902 54.5766 144.886 54.5922 144.863C59.9589 139.707 63.7079 135.05 66.2123 131.589C66.2123 131.589 71.1202 124.832 69.5257 122.592C68.8101 121.582 67.6746 120.804 67.6746 120.804C67.6746 120.804 66.9746 120.322 66.3446 120.073C64.6101 119.381 58.7922 124.109 54.0322 132.515C52.1344 135.882 49.6144 141.216 48.1677 148.525C48.1599 148.556 48.1443 148.587 48.1288 148.611C47.5377 149.435 46.6043 150.594 45.2899 151.807C43.9676 153.02 42.0543 154.769 41.2143 154.279C40.452 153.828 40.802 151.682 41.3932 150.321C41.8209 149.334 42.4198 148.642 42.8632 148.214C42.9332 148.152 42.9565 148.059 42.9176 147.973C42.7698 147.569 42.4976 147.001 42.0076 146.441C41.6031 145.975 41.1754 145.656 40.8409 145.454C40.7398 145.392 40.6076 145.423 40.5298 145.508C39.5965 146.55 38.7798 147.413 38.1498 148.066C35.6997 150.601 34.5642 151.503 33.1175 152.102C32.4019 152.405 31.2119 152.903 30.8697 152.499C30.333 151.877 32.0908 149.451 33.2497 148.136C34.3853 146.846 35.5442 145.959 37.3564 144.559C38.1187 143.969 38.7953 143.479 39.3087 143.121C39.4487 143.02 39.4409 142.802 39.2931 142.709L37.0609 141.317C36.9986 141.278 36.9209 141.262 36.8509 141.294C34.7197 142.056 30.8386 143.836 28.0852 147.802C25.923 150.92 24.2118 155.749 25.6352 156.939C27.4474 158.447 33.9653 153.836 34.7197 152.95C35.0775 152.53 35.5675 152.234 35.9175 151.807C36.042 151.651 36.2053 151.441 36.4309 151.441C36.6642 151.441 36.8742 151.698 36.9598 151.908C37.1775 152.468 36.602 153.004 36.3609 153.595C35.832 154.886 36.6798 156.978 37.8853 157.6C39.2387 158.292 40.9965 157.087 43.5554 155.415C45.4143 154.194 46.8065 152.942 47.7399 151.993C47.8721 151.861 48.1054 151.923 48.1443 152.11C48.8755 155.197 50.431 157.382 52.3133 157.662C52.6866 157.716 53.5344 157.763 56.0855 156.208C57.5322 155.329 59.2045 154.132 60.9156 152.499C61.0945 152.328 61.3745 152.491 61.3201 152.732C60.8845 154.637 61.3201 156.387 62.3778 157.118C63.9879 158.214 66.5312 156.628 67.7368 155.873C68.7635 155.236 69.5413 154.497 70.109 153.828C70.2802 153.634 70.5913 153.797 70.529 154.046C70.2102 155.43 69.8913 156.814 69.5724 158.206C69.5413 158.315 69.4479 158.393 69.3313 158.393H65.0068C64.8668 158.393 64.7579 158.502 64.7579 158.634V160.259C64.7579 160.399 64.8745 160.508 65.0145 160.5C66.2668 160.461 67.519 160.422 68.779 160.391C68.9501 160.391 69.0746 160.547 69.0124 160.71C68.779 161.402 68.4446 162.335 67.9857 163.424C67.5268 164.513 67.1146 165.368 66.6634 166.262C66.3757 166.838 66.0645 167.436 65.7145 168.128H68.0324C69.1757 168.128 70.4902 168.401 70.9568 169.567C71.1824 168.906 71.4157 168.152 71.6957 167.289C71.9057 166.628 72.1391 165.904 72.4035 165.111C73.2046 162.701 74.0135 160.702 74.6435 159.217C74.6747 159.155 74.7291 159.108 74.7913 159.093C76.5258 158.587 78.5714 157.849 80.7803 156.737C82.9736 155.632 84.7937 154.427 86.2326 153.331C86.3726 153.23 86.567 153.3 86.6059 153.471C86.8081 154.458 87.4381 156.628 89.2504 157.6C91.8638 158.992 96.2582 157.522 98.7083 153.23C98.7549 153.152 98.8405 153.105 98.9338 153.113C99.8516 153.206 100.987 153.199 102.224 152.903C106.447 151.877 108.633 148.261 109.232 147.149C109.278 147.063 109.372 147.017 109.473 147.024C109.994 147.071 110.523 147.126 111.052 147.172C111.223 147.188 111.324 147.382 111.231 147.538C108.928 151.581 108.485 155.267 109.971 156.604C110.554 157.133 111.433 157.289 111.69 157.335C113.556 157.662 115.088 156.643 116.52 155.679C117.251 155.189 118.246 154.427 119.25 153.276C119.421 153.082 119.716 153.222 119.677 153.471C119.584 154.093 119.584 154.886 119.965 155.679C120.689 157.195 122.493 158.097 124.414 157.825C124.523 157.81 124.609 157.724 124.624 157.615C124.756 156.496 125.052 155.003 125.721 153.362C127.704 148.517 131.733 145.353 132.34 145.804C132.806 146.146 130.831 148.416 130.559 152.701C130.473 154.031 130.286 156.947 131.679 157.662C132.651 158.16 133.942 157.405 136.12 156.076C138.01 154.925 139.495 153.735 140.592 152.755C140.748 152.615 140.997 152.732 140.997 152.942C140.981 155.135 141.751 156.931 143.003 157.398C144.209 157.849 145.593 156.97 147.304 155.873C148.331 155.22 149.14 154.528 149.762 153.922C149.926 153.758 150.206 153.898 150.167 154.124C150.011 155.073 150.198 155.951 150.742 156.542C151.536 157.39 152.772 157.304 153.394 157.265C154.351 157.203 155.549 156.861 158.427 154.552C160.923 152.553 161.802 151.379 162.261 151.643C163.055 152.087 160.986 155.835 162.393 157.203C163.031 157.817 164.073 157.662 164.976 157.53C165.886 157.398 168.157 156.9 173.057 151.97C173.874 151.146 174.543 150.423 175.001 149.909C175.095 149.808 175.079 149.653 174.978 149.559ZM89.3204 126.76C90.6271 124.56 92.3849 121.667 93.7538 121.994C94.0882 122.071 94.2982 122.328 94.3449 122.39C95.5582 123.907 92.7115 128.113 90.3082 131.659C88.2782 134.661 86.777 136.286 86.1392 136.947C84.2803 138.899 82.4992 140.765 82.0325 140.462C81.4959 140.096 84.0314 135.609 89.3204 126.76ZM58.0456 135.236C58.7222 133.549 59.3834 132.118 62.8756 126.146C62.8756 126.146 63.5445 124.995 65.8001 123.121C65.9712 122.981 66.2979 122.717 66.5001 122.818C66.7801 122.966 66.6401 123.735 66.5934 124.015C66.189 126.356 63.4201 130.524 62.3856 132.126C61.3045 133.798 60.55 135.104 59.0023 137.017C58.2089 137.989 57.2522 139.163 56.9644 139C56.6222 138.813 57.4 136.854 58.0456 135.236Z" fill="#FBFCFE"/>
<path d="M70.0286 132.611C70.5419 132.463 71.0008 132.634 71.4986 132.821C72.0975 133.038 72.8519 133.318 73.1241 133.979C73.4197 134.702 72.953 135.488 72.2764 136.592C71.7941 137.393 71.553 137.789 71.0397 137.96C70.2308 138.233 69.3986 137.735 69.0019 137.502C68.5819 137.245 68.1696 137.004 67.9752 136.522C67.6874 135.799 68.0919 135.068 68.5663 134.212C69.0096 133.412 69.3441 132.805 70.0208 132.618L70.0286 132.611Z" fill="#FBFCFE"/>
<path d="M149.993 132.611C150.507 132.463 150.966 132.634 151.463 132.821C152.062 133.038 152.817 133.318 153.089 133.979C153.385 134.702 152.918 135.488 152.241 136.592C151.759 137.393 151.518 137.789 151.005 137.96C150.196 138.233 149.363 137.735 148.967 137.502C148.547 137.245 148.134 137.004 147.94 136.522C147.652 135.799 148.057 135.068 148.531 134.212C148.975 133.412 149.309 132.805 149.986 132.618L149.993 132.611Z" fill="#FBFCFE"/>
<path d="M4.89003 171.506C3.58335 171.133 2.45556 170.806 2.45556 169.655C2.45556 168.582 3.27224 167.968 4.69559 167.968C5.6056 167.968 6.53895 168.295 7.32451 168.893L7.53451 169.057L8.14119 167.323L8.0323 167.237C7.19229 166.553 5.94005 166.141 4.68781 166.141C1.71667 166.141 0.658877 167.991 0.658877 169.725C0.658877 172.307 2.68112 172.89 4.30669 173.357C5.6056 173.73 6.72561 174.049 6.72561 175.207C6.72561 176.249 5.89338 176.848 4.43892 176.848C3.25668 176.848 2.02 176.335 1.27332 175.534L1.06332 175.308L0.371094 177.027L0.448871 177.12C1.31221 178.069 2.86779 178.675 4.43114 178.675C7.44118 178.675 8.50675 176.755 8.50675 175.106C8.50675 172.564 6.49228 171.98 4.8667 171.514L4.89003 171.506Z" fill="#FBFCFE"/>
<path d="M79.3158 171.506C78.0091 171.133 76.8813 170.806 76.8813 169.655C76.8813 168.582 77.698 167.968 79.1214 167.968C80.0314 167.968 80.9647 168.295 81.7503 168.893L81.9603 169.057L82.567 167.323L82.4581 167.237C81.6181 166.553 80.3658 166.141 79.1136 166.141C76.1424 166.141 75.0847 167.991 75.0847 169.725C75.0847 172.307 77.1069 172.89 78.7325 173.357C80.0314 173.73 81.1514 174.049 81.1514 175.207C81.1514 176.249 80.3192 176.848 78.8647 176.848C77.6902 176.848 76.4458 176.335 75.6991 175.534L75.4891 175.308L74.7969 177.027L74.8824 177.12C75.7458 178.069 77.3013 178.675 78.8647 178.675C81.8747 178.675 82.9403 176.755 82.9403 175.106C82.9403 172.564 80.9258 171.98 79.3003 171.514L79.3158 171.506Z" fill="#FBFCFE"/>
<path d="M18.6574 171.374H12.2251V166.266H10.1406V178.528H12.2251V173.233H18.6574V178.528H20.7419V166.266H18.6574V171.374Z" fill="#FBFCFE"/>
<path d="M30.7517 173.077C30.7517 175.511 29.7172 176.701 27.5861 176.701C25.4549 176.701 24.436 175.519 24.436 173.077V166.203H22.3516V173.147C22.3516 176.615 24.2494 178.598 27.5627 178.598C30.8761 178.598 32.7739 176.607 32.7739 173.147V166.203H30.7361V173.077H30.7517Z" fill="#FBFCFE"/>
<path d="M34.4023 168.132H37.389V178.528H39.458V168.132H42.4369V166.266H34.4023V168.132Z" fill="#FBFCFE"/>
<path d="M44.0508 168.132H47.0375V178.528H49.1064V168.132H52.0931V166.266H44.0508V168.132Z" fill="#FBFCFE"/>
<path d="M89.8711 168.116H92.85V178.513H94.9189V168.116H97.9056V166.258H89.8711V168.116Z" fill="#FBFCFE"/>
<path d="M152.453 168.116H155.432V178.513H157.501V168.116H160.488V166.258H152.453V168.116Z" fill="#FBFCFE"/>
<path d="M55.7876 173.217H60.6799V171.39H55.7876V168.132H61.4032V166.266H53.7031V178.528H61.6443V176.662H55.7876V173.217Z" fill="#FBFCFE"/>
<path d="M73.229 170.605C73.2446 170.076 73.1668 169.057 72.4901 168.109C72.2724 167.805 72.0079 167.533 71.6968 167.292C70.8023 166.623 69.5579 166.266 68.0801 166.266H63.2578V178.521H65.3423V174.905L66.6567 174.889H67.5745L70.1334 178.521H72.459L69.729 174.656C70.289 174.547 71.0046 174.298 71.6735 173.746C72.0235 173.451 73.1824 172.362 73.229 170.605ZM69.3868 172.914C68.9434 173.038 68.4768 173.077 68.0334 173.077H65.3423V168.132H68.0334C69.1768 168.132 70.4912 168.404 70.9579 169.57C71.0823 169.858 71.1446 170.192 71.1446 170.597C71.1446 172.012 70.3434 172.65 69.3868 172.914Z" fill="#FBFCFE"/>
<path d="M124.022 170.589C124.038 170.068 123.968 169.049 123.283 168.093C122.42 166.888 120.895 166.25 118.881 166.25H114.051V178.513H116.135V174.897H118.399L120.934 178.513H123.26L120.522 174.64C121.082 174.531 121.798 174.283 122.466 173.73C122.816 173.443 123.975 172.354 124.022 170.589ZM118.826 173.07H116.135V168.116H118.826C120.25 168.116 121.938 168.544 121.938 170.581C121.938 172.619 120.25 173.07 118.826 173.07Z" fill="#FBFCFE"/>
<path d="M105.994 166.117C102.277 166.117 99.4766 168.808 99.4766 172.377C99.4766 175.946 102.277 178.644 105.994 178.644C109.712 178.644 112.481 175.954 112.481 172.377C112.481 168.8 109.697 166.117 105.994 166.117ZM105.994 176.747C103.428 176.747 101.561 174.912 101.561 172.377C101.561 169.842 103.428 168.015 105.994 168.015C108.561 168.015 110.397 169.85 110.397 172.377C110.397 174.904 108.546 176.747 105.994 176.747Z" fill="#FBFCFE"/>
<path d="M132.119 166.117C128.402 166.117 125.602 168.808 125.602 172.377C125.602 175.946 128.402 178.644 132.119 178.644C135.837 178.644 138.606 175.954 138.606 172.377C138.606 168.8 135.822 166.117 132.119 166.117ZM132.119 176.747C129.553 176.747 127.686 174.912 127.686 172.377C127.686 169.842 129.553 168.015 132.119 168.015C134.686 168.015 136.522 169.85 136.522 172.377C136.522 174.904 134.671 176.747 132.119 176.747Z" fill="#FBFCFE"/>
<path d="M168.576 166.117C164.859 166.117 162.059 168.808 162.059 172.377C162.059 175.946 164.859 178.644 168.576 178.644C172.294 178.644 175.063 175.954 175.063 172.377C175.063 168.8 172.279 166.117 168.576 166.117ZM168.576 176.747C166.01 176.747 164.143 174.912 164.143 172.377C164.143 169.842 166.01 168.015 168.576 168.015C171.143 168.015 172.979 169.85 172.979 172.377C172.979 174.904 171.128 176.747 168.576 176.747Z" fill="#FBFCFE"/>
<path d="M148.696 166.38V173.829L140.195 165.797L140.188 178.635H142.272L142.342 170.952L150.882 178.969L150.781 166.38H148.696Z" fill="#FBFCFE"/>
<path d="M88.1184 96.0966C85.4242 96.0828 83.0478 95.7927 81.0859 95.4336C81.6939 97.6575 82.4676 100.061 83.4623 102.589C84.8854 106.235 86.4881 109.398 88.0355 112.092C89.5829 109.578 91.2408 106.456 92.6639 102.713C93.6449 100.144 94.3219 97.7403 94.8192 95.5717C92.9264 95.8756 90.6744 96.0966 88.1184 96.0828V96.0966Z" fill="#FBFCFE"/>
<path d="M65.8352 89.5758C63.5832 88.0978 61.7318 86.5784 60.2811 85.2109C59.5903 87.4072 58.9409 89.852 58.4159 92.5179C57.6422 96.3579 57.2692 99.8939 57.1172 102.988C59.7837 101.717 62.8647 99.9768 66.0701 97.601C68.2807 95.9711 70.1597 94.3136 71.7485 92.7665C69.9939 92.0068 67.9767 90.9709 65.8352 89.5758Z" fill="#FBFCFE"/>
<path d="M50.6154 72.0466C49.5101 69.5879 48.7917 67.3088 48.2943 65.375C46.5258 66.853 44.6607 68.5519 42.7678 70.5134C40.046 73.3312 37.8216 76.0937 36.0117 78.6215C38.9408 78.9944 42.4777 79.2016 46.4706 78.9253C49.2062 78.7458 51.6931 78.3728 53.8622 77.9308C52.7984 76.3423 51.6517 74.3809 50.6154 72.0466Z" fill="#FBFCFE"/>
<path d="M47.2904 49.0603C47.6911 46.3944 48.3128 44.0877 48.9483 42.1953C46.6548 42.4854 44.1679 42.9136 41.5152 43.5352C37.702 44.433 34.3308 45.5518 31.457 46.6983C33.7229 48.5906 36.5828 50.6764 40.0783 52.6102C42.4824 53.9362 44.762 54.9721 46.8345 55.7595C46.8068 53.8533 46.9035 51.5742 47.2766 49.0603H47.2904Z" fill="#FBFCFE"/>
<path d="M56.9206 27.9376C58.7029 25.9071 60.4714 24.3048 62.0326 23.0617C59.9602 22.0672 57.6253 21.0864 55.0693 20.1748C51.3803 18.8626 47.9401 17.9924 44.8867 17.3984C45.771 20.2162 47.0559 23.5175 48.9487 27.0398C50.2474 29.457 51.629 31.5565 52.9277 33.3384C53.9363 31.7085 55.2489 29.8576 56.9206 27.9376Z" fill="#FBFCFE"/>
<path d="M76.4317 15.3736C79.0292 14.6277 81.3779 14.241 83.3675 14.0338C82.1516 12.0724 80.7286 9.98664 79.0706 7.83185C76.6666 4.73778 74.2488 2.14098 72.0106 0C71.223 2.84543 70.5184 6.31244 70.2144 10.3043C70.0072 13.0393 70.021 15.5532 70.1454 17.7632C71.8724 16.9345 73.9725 16.0919 76.4317 15.3874V15.3736Z" fill="#FBFCFE"/>
<path d="M99.6504 15.3595C102.234 16.133 104.431 17.0861 106.213 17.984C106.255 15.6772 106.185 13.1495 105.951 10.4422C105.605 6.54698 104.97 3.05234 104.251 0.0273438C102.054 2.00257 99.5814 4.53031 97.1773 7.72106C95.5194 9.9173 94.1792 12.0307 93.1016 13.9644C94.9944 14.1993 97.2326 14.6275 99.6781 15.3595H99.6504Z" fill="#FBFCFE"/>
<path d="M119.204 27.8857C120.959 29.93 122.299 31.919 123.308 33.6318C124.592 31.7118 125.905 29.557 127.162 27.1398C128.986 23.6728 130.34 20.3853 131.362 17.457C128.447 17.9267 124.993 18.7278 121.249 20.1091C118.665 21.0484 116.399 22.1119 114.438 23.1479C115.902 24.3772 117.546 25.9381 119.204 27.8719V27.8857Z" fill="#FBFCFE"/>
<path d="M128.859 48.9908C129.232 51.6566 129.274 54.0462 129.204 56.0353C131.318 55.1098 133.584 54.0048 135.961 52.665C139.373 50.7312 142.288 48.7007 144.72 46.7945C142.012 45.6204 138.682 44.4187 134.772 43.5485C132.092 42.9546 129.605 42.6093 127.395 42.4297C127.961 44.253 128.514 46.463 128.859 48.9908Z" fill="#FBFCFE"/>
<path d="M125.57 71.9783C124.437 74.4232 123.194 76.4675 122.047 78.0974C124.327 78.4703 126.827 78.7604 129.549 78.9123C133.459 79.1195 137.01 78.9952 140.105 78.7051C138.461 76.2465 136.305 73.4425 133.501 70.6109C131.566 68.6632 129.66 67.0333 127.905 65.6797C127.394 67.5306 126.661 69.6716 125.584 71.9783H125.57Z" fill="#FBFCFE"/>
<path d="M110.39 89.5315C108.11 90.9681 105.969 92.0178 104.117 92.7775C105.83 94.3246 107.778 95.9268 109.989 97.5153C113.167 99.8082 116.22 101.618 118.97 103.04C118.914 100.084 118.61 96.5622 117.781 92.6532C117.215 89.9735 116.496 87.5701 115.737 85.4844C114.314 86.769 112.531 88.1779 110.376 89.5315H110.39Z" fill="#FBFCFE"/>
<path d="M51.5195 53.6639H124.635C124.538 50.9704 124.165 48.346 123.516 45.832H52.6386C52.0031 48.346 51.6162 50.9704 51.5333 53.6639H51.5195Z" fill="#FBFCFE"/>
<path d="M88.0754 91.4691C95.3427 91.4691 102.126 89.3557 107.819 85.6953H68.332C74.0243 89.3557 80.8081 91.4691 88.0754 91.4691Z" fill="#FBFCFE"/>
<path d="M88.0751 18.3164C80.8216 18.3164 74.0516 20.4298 68.3594 24.0763H107.791C102.099 20.4298 95.3424 18.3164 88.0751 18.3164Z" fill="#FBFCFE"/>
<path d="M60.3195 78.7031H115.847C117.698 76.5484 119.315 74.1726 120.627 71.6172H55.5391C56.8516 74.1726 58.4681 76.5484 60.3195 78.7031Z" fill="#FBFCFE"/>
<path d="M110.227 25.7852H65.9457C63.4035 27.7189 61.1377 29.9704 59.1758 32.4844H116.983C115.035 29.9704 112.755 27.7189 110.213 25.7852H110.227Z" fill="#FBFCFE"/>
<path d="M57.3873 34.9727C55.9366 37.2103 54.7208 39.5999 53.7812 42.1277H122.365C121.425 39.5999 120.21 37.1965 118.759 34.9727H57.3873Z" fill="#FBFCFE"/>
<path d="M54.4083 65.8423H124.235C124.995 63.4389 125.506 60.9249 125.741 58.3281H52.9023C53.1372 60.9249 53.6622 63.4389 54.4083 65.8423Z" fill="#FBFCFE"/>
</svg>
